{
.appVersion = "983";
DisplayStrings = (
"a \U00E6 o \U00F0 /dz  e /schwa  /ij  i /lj  /eng  n /nj  /oe  p \U00FE d \U00DF ",
"abcdefghijklmnopqrstuvwxyz\012nyg uhnrm abdpq\012qdyiklxKR\012DOQCG KR\012ABCDEFGHIJKLMNOPQRSTUVWXYZ\012The quick brown fox jumps over the lazy dog. \012nnenn ooeoo\012nnenn ooeoo",
"u/mu 0123456789/zero.lf/one.lf/two.lf/three.lf/four.lf/five.lf/six.lf/seven.lf/eight.lf/nine.lf \U00B9\U00B2\U00B3/foursuperior \U00BD\U00BC\U00BE*/backslash \U00B7/bullet :,/ellipsis !\U00A1#.?\U00BF\"'.;//-_{}[]()/emdash/endash -\U00AB\U00BB/guilsinglleft/guilsinglright/quotedblbase/quotedblleft/quotedblright/quoteleft/quoteright/quotesinglbase/leftanglebracket-math/rightanglebracket-math \012/cedi \U00A2/colonsign \U00A4S$d/dong C/euro/florin/franc G/guarani/kip/lira/liraTurkish/manat/naira P/peseta/peso/ruble/rupeeIndian \U00A3/won \U00A5/bulletoperator/minus/commercialMinusSign/divisionslash +/minus \U00D7\U00F7=/notequal ></greaterequal/lessequal \U00B1/approxequal ~\U00AC/integral/uni2206/product \U00B5%/perthousand/lozenge @&\U00B6\U00A7\U00A9\U00AE/trademark \U00B0|\U00A6/dagger/daggerdbl o/numero ^/minute/second",
"A \U00C6 D /DZ  /Dz  I /IJ  L /LJ  N /NJ  /Eng  /Nj  O /OE  \U00DE",
"/primemod \U00B4/breve/caron \U00B8/circumflex \U00A8/dotaccent `/hungarumlaut \U00AF/ogonek/ring/tilde"
);
classes = (
{
automatic = 1;

glyphs = (
{
glyphname = A;
lastChange = "2017-12-26 18:58:55 +0000";
layers = (
{
anchors = (
{
name = bottom;
position = "{620, 0}";
},
{
name = ogonek;
position = "{1116, 10}";
},
{
name = top;
position = "{630, 1171}";
}
);
layerId = "840BD324-B0A6-42B0-BD23-CB5E8C19394F";
paths = (
{
closed = 1;
nodes = (
"646 1074 LINE",
"983 86 LINE",
"796 86 LINE SMOOTH",
"763 86 OFFCURVE",
"747 65 OFFCURVE",
"747 44 CURVE SMOOTH",
"747 22 OFFCURVE",
"764 0 OFFCURVE",
"798 0 CURVE SMOOTH",
"1164 0 LINE SMOOTH",
"1197 0 OFFCURVE",
"1214 22 OFFCURVE",
"1214 44 CURVE SMOOTH",
"1214 65 OFFCURVE",
"1198 86 OFFCURVE",
"1166 86 CURVE SMOOTH",
"1085 86 LINE",
"725 1106 LINE SMOOTH",
"713 1140 OFFCURVE",
"690 1171 OFFCURVE",
"644 1171 CURVE SMOOTH",
"341 1171 LINE SMOOTH",
"308 1171 OFFCURVE",
"292 1149 OFFCURVE",
"292 1128 CURVE SMOOTH",
"292 1106 OFFCURVE",
"309 1085 OFFCURVE",
"342 1085 CURVE SMOOTH",
"559 1085 LINE",
"176 86 LINE",
"89 86 LINE SMOOTH",
"56 86 OFFCURVE",
"40 64 OFFCURVE",
"40 43 CURVE SMOOTH",
"40 21 OFFCURVE",
"57 0 OFFCURVE",
"90 0 CURVE SMOOTH",
"438 0 LINE SMOOTH",
"472 0 OFFCURVE",
"489 21 OFFCURVE",
"489 43 CURVE SMOOTH",
"489 64 OFFCURVE",
"472 86 OFFCURVE",
"439 86 CURVE SMOOTH",
"279 86 LINE"
);
},
{
closed = 1;
nodes = (
"865 475 LINE",
"415 475 LINE",
"382 392 LINE",
"895 392 LINE"
);
}
);
width = 1240;
},
{
anchors = (
{
name = bottom;
position = "{620, -40}";
},
{
name = ogonek;
position = "{1116, 10}";
},
{
name = top;
position = "{600, 1171}";
}
);
layerId = "F2E12B84-E402-48AA-89E7-06534AE23493";
paths = (
{
closed = 1;
nodes = (
"606 904 LINE",
"858 166 LINE",
"736 166 LINE SMOOTH",
"683 166 OFFCURVE",
"657 125 OFFCURVE",
"657 84 CURVE SMOOTH",
"657 42 OFFCURVE",
"684 0 OFFCURVE",
"738 0 CURVE SMOOTH",
"1140 0 LINE SMOOTH",
"1193 0 OFFCURVE",
"1220 42 OFFCURVE",
"1220 84 CURVE SMOOTH",
"1220 125 OFFCURVE",
"1194 166 OFFCURVE",
"1142 166 CURVE SMOOTH",
"1101 166 LINE",
"741 1106 LINE SMOOTH",
"728 1140 OFFCURVE",
"706 1171 OFFCURVE",
"660 1171 CURVE SMOOTH",
"321 1171 LINE SMOOTH",
"258 1171 OFFCURVE",
"232 1129 OFFCURVE",
"232 1085 CURVE SMOOTH",
"232 1040 OFFCURVE",
"259 999 OFFCURVE",
"322 999 CURVE SMOOTH",
"445 999 LINE",
"136 166 LINE",
"99 166 LINE SMOOTH",
"46 166 OFFCURVE",
"20 124 OFFCURVE",
"20 83 CURVE SMOOTH",
"20 41 OFFCURVE",
"47 0 OFFCURVE",
"100 0 CURVE SMOOTH",
"488 0 LINE SMOOTH",
"542 0 OFFCURVE",
"569 41 OFFCURVE",
"569 83 CURVE SMOOTH",
"569 124 OFFCURVE",
"542 166 OFFCURVE",
"489 166 CURVE SMOOTH",
"364 166 LINE"
);
},
{
closed = 1;
nodes = (
"865 495 LINE",
"415 495 LINE",
"362 333 LINE",
"915 333 LINE"
);
}
);
width = 1240;
},
{
anchors = (
{
name = bottom;
position = "{620, 0}";
},
{
name = ogonek;
position = "{1116, 10}";
},
{
name = top;
position = "{730, 1181}";
}
);
layerId = "440824D2-40E3-4EBC-B94D-DAF81B1E7F5E";
paths = (
{
closed = 1;
nodes = (
"770 1074 LINE",
"938 86 LINE",
"751 86 LINE SMOOTH",
"718 86 OFFCURVE",
"702 65 OFFCURVE",
"702 44 CURVE SMOOTH",
"702 22 OFFCURVE",
"719 0 OFFCURVE",
"753 0 CURVE SMOOTH",
"1119 0 LINE SMOOTH",
"1152 0 OFFCURVE",
"1169 22 OFFCURVE",
"1169 44 CURVE SMOOTH",
"1169 65 OFFCURVE",
"1153 86 OFFCURVE",
"1121 86 CURVE SMOOTH",
"1032 86 LINE",
"849 1106 LINE SMOOTH",
"843 1140 OFFCURVE",
"814 1171 OFFCURVE",
"768 1171 CURVE SMOOTH",
"465 1171 LINE SMOOTH",
"432 1171 OFFCURVE",
"416 1149 OFFCURVE",
"416 1128 CURVE SMOOTH",
"416 1106 OFFCURVE",
"433 1085 OFFCURVE",
"466 1085 CURVE SMOOTH",
"683 1085 LINE",
"131 86 LINE",
"44 86 LINE SMOOTH",
"11 86 OFFCURVE",
"-5 64 OFFCURVE",
"-5 43 CURVE SMOOTH",
"-5 21 OFFCURVE",
"12 0 OFFCURVE",
"45 0 CURVE SMOOTH",
"393 0 LINE SMOOTH",
"427 0 OFFCURVE",
"444 21 OFFCURVE",
"444 43 CURVE SMOOTH",
"444 64 OFFCURVE",
"427 86 OFFCURVE",
"394 86 CURVE SMOOTH",
"234 86 LINE"
);
},
{
closed = 1;
nodes = (
"890 475 LINE",
"410 475 LINE",
"377 392 LINE",
"920 392 LINE"
);
}
);
width = 1240;
},
{
anchors = (
{
name = bottom;
position = "{552, 0}";
},
{
name = ogonek;
position = "{1048, 10}";
},
{
name = top;
position = "{708, 1171}";
}
);
layerId = "2EAAA3E6-1429-4D6D-BAD7-A55486495AAE";
paths = (
{
closed = 1;
nodes = (
"696 904 LINE",
"819 166 LINE",
"697 166 LINE SMOOTH",
"644 166 OFFCURVE",
"605 125 OFFCURVE",
"603 74 CURVE SMOOTH",
"602 41 OFFCURVE",
"626 0 OFFCURVE",
"680 0 CURVE SMOOTH",
"1072 0 LINE SMOOTH",
"1125 0 OFFCURVE",
"1164 41 OFFCURVE",
"1166 94 CURVE SMOOTH",
"1167 125 OFFCURVE",
"1145 166 OFFCURVE",
"1093 166 CURVE SMOOTH",
"1062 166 LINE",
"866 1106 LINE SMOOTH",
"859 1140 OFFCURVE",
"842 1171 OFFCURVE",
"796 1171 CURVE SMOOTH",
"457 1171 LINE SMOOTH",
"394 1171 OFFCURVE",
"353 1129 OFFCURVE",
"353 1075 CURVE SMOOTH",
"353 1040 OFFCURVE",
"375 999 OFFCURVE",
"438 999 CURVE SMOOTH",
"551 999 LINE",
"97 166 LINE",
"60 166 LINE SMOOTH",
"7 166 OFFCURVE",
"-34 124 OFFCURVE",
"-34 73 CURVE SMOOTH",
"-34 41 OFFCURVE",
"-11 0 OFFCURVE",
"42 0 CURVE SMOOTH",
"420 0 LINE SMOOTH",
"474 0 OFFCURVE",
"515 41 OFFCURVE",
"515 93 CURVE SMOOTH",
"515 124 OFFCURVE",
"493 166 OFFCURVE",
"440 166 CURVE SMOOTH",
"325 166 LINE"
);
},
{
closed = 1;
nodes = (
"883 495 LINE",
"433 495 LINE",
"352 333 LINE",
"905 333 LINE"
);
}
);
width = 1240;
}
);
unicode = 0041;
},
{
glyphname = AE;
lastChange = "2017-12-25 22:50:36 +0000";
layers = (
{
anchors = (
{
name = bottom;
position = "{620, 0}";
},
{
name = top;
position = "{690, 1171}";
}
);
layerId = "840BD324-B0A6-42B0-BD23-CB5E8C19394F";
paths = (
{
closed = 1;
nodes = (
"397 0 LINE SMOOTH",
"431 0 OFFCURVE",
"448 21 OFFCURVE",
"448 43 CURVE SMOOTH",
"448 64 OFFCURVE",
"431 86 OFFCURVE",
"398 86 CURVE SMOOTH",
"231 86 LINE",
"327 392 LINE",
"642 392 LINE",
"642 85 LINE",
"612 85 LINE SMOOTH",
"579 85 OFFCURVE",
"562 64 OFFCURVE",
"562 43 CURVE SMOOTH",
"562 22 OFFCURVE",
"579 0 OFFCURVE",
"613 0 CURVE SMOOTH",
"1059 0 LINE SMOOTH",
"1092 0 OFFCURVE",
"1115 19 OFFCURVE",
"1115 53 CURVE SMOOTH",
"1115 283 LINE SMOOTH",
"1115 319 OFFCURVE",
"1094 335 OFFCURVE",
"1073 335 CURVE SMOOTH",
"1052 335 OFFCURVE",
"1033 320 OFFCURVE",
"1032 296 CURVE SMOOTH",
"1016 85 LINE",
"729 85 LINE",
"729 560 LINE",
"871 560 LINE SMOOTH",
"898 560 OFFCURVE",
"920 576 OFFCURVE",
"920 598 CURVE SMOOTH",
"920 625 OFFCURVE",
"898 637 OFFCURVE",
"871 637 CURVE SMOOTH",
"729 637 LINE",
"729 1085 LINE",
"1013 1085 LINE",
"1027 887 LINE SMOOTH",
"1028 862 OFFCURVE",
"1046 849 OFFCURVE",
"1066 849 CURVE SMOOTH",
"1086 849 OFFCURVE",
"1106 863 OFFCURVE",
"1106 893 CURVE SMOOTH",
"1106 1117 LINE SMOOTH",
"1106 1151 OFFCURVE",
"1083 1171 OFFCURVE",
"1050 1171 CURVE SMOOTH",
"300 1171 LINE SMOOTH",
"267 1171 OFFCURVE",
"251 1149 OFFCURVE",
"251 1128 CURVE SMOOTH",
"251 1106 OFFCURVE",
"268 1085 OFFCURVE",
"301 1085 CURVE SMOOTH",
"463 1085 LINE",
"138 86 LINE",
"87 86 LINE SMOOTH",
"54 86 OFFCURVE",
"38 64 OFFCURVE",
"38 43 CURVE SMOOTH",
"38 21 OFFCURVE",
"55 0 OFFCURVE",
"88 0 CURVE SMOOTH"
);
},
{
closed = 1;
nodes = (
"545 1085 LINE",
"642 1085 LINE",
"642 475 LINE",
"354 475 LINE"
);
}
);
width = 1240;
},
{
anchors = (
{
name = bottom;
position = "{620, 0}";
},
{
name = top;
position = "{710, 1171}";
}
);
layerId = "F2E12B84-E402-48AA-89E7-06534AE23493";
paths = (
{
closed = 1;
nodes = (
"377 0 LINE SMOOTH",
"431 0 OFFCURVE",
"448 51 OFFCURVE",
"448 83 CURVE SMOOTH",
"448 114 OFFCURVE",
"431 166 OFFCURVE",
"378 166 CURVE SMOOTH",
"341 166 LINE",
"399 352 LINE",
"607 352 LINE",
"607 165 LINE",
"597 165 LINE SMOOTH",
"544 165 OFFCURVE",
"527 114 OFFCURVE",
"527 83 CURVE SMOOTH",
"527 52 OFFCURVE",
"544 0 OFFCURVE",
"598 0 CURVE SMOOTH",
"1109 0 LINE SMOOTH",
"1142 0 OFFCURVE",
"1162 19 OFFCURVE",
"1165 53 CURVE SMOOTH",
"1183 253 LINE SMOOTH",
"1188 309 OFFCURVE",
"1144 335 OFFCURVE",
"1103 335 CURVE SMOOTH",
"1062 335 OFFCURVE",
"1030 309 OFFCURVE",
"1020 266 CURVE SMOOTH",
"996 165 LINE",
"809 165 LINE",
"809 520 LINE",
"901 520 LINE SMOOTH",
"959 520 OFFCURVE",
"999 555 OFFCURVE",
"999 600 CURVE SMOOTH",
"999 650 OFFCURVE",
"951 677 OFFCURVE",
"901 677 CURVE SMOOTH",
"809 677 LINE",
"809 1005 LINE",
"993 1005 LINE",
"1015 917 LINE SMOOTH",
"1026 873 OFFCURVE",
"1056 849 OFFCURVE",
"1096 849 CURVE SMOOTH",
"1136 849 OFFCURVE",
"1180 873 OFFCURVE",
"1174 933 CURVE SMOOTH",
"1156 1117 LINE SMOOTH",
"1153 1151 OFFCURVE",
"1133 1171 OFFCURVE",
"1100 1171 CURVE SMOOTH",
"320 1171 LINE SMOOTH",
"247 1171 OFFCURVE",
"231 1119 OFFCURVE",
"231 1088 CURVE SMOOTH",
"231 1056 OFFCURVE",
"248 1005 OFFCURVE",
"321 1005 CURVE SMOOTH",
"403 1005 LINE",
"128 166 LINE",
"97 166 LINE SMOOTH",
"44 166 OFFCURVE",
"28 114 OFFCURVE",
"28 83 CURVE SMOOTH",
"28 51 OFFCURVE",
"45 0 OFFCURVE",
"98 0 CURVE SMOOTH"
);
},
{
closed = 1;
nodes = (
"595 1005 LINE",
"607 1005 LINE",
"607 505 LINE",
"447 505 LINE"
);
}
);
width = 1240;
},
{
anchors = (
{
name = bottom;
position = "{552, 0}";
},
{
name = top;
position = "{858, 1151}";
}
);
layerId = "440824D2-40E3-4EBC-B94D-DAF81B1E7F5E";
paths = (
{
closed = 1;
nodes = (
"356 0 LINE SMOOTH",
"390 0 OFFCURVE",
"414 21 OFFCURVE",
"414 51 CURVE SMOOTH",
"414 64 OFFCURVE",
"405 86 OFFCURVE",
"372 86 CURVE SMOOTH",
"205 86 LINE",
"354 392 LINE",
"669 392 LINE",
"616 85 LINE",
"586 85 LINE SMOOTH",
"553 85 OFFCURVE",
"528 60 OFFCURVE",
"528 34 CURVE SMOOTH",
"528 18 OFFCURVE",
"538 0 OFFCURVE",
"572 0 CURVE SMOOTH",
"1018 0 LINE SMOOTH",
"1051 0 OFFCURVE",
"1077 19 OFFCURVE",
"1083 53 CURVE SMOOTH",
"1123 283 LINE SMOOTH",
"1129 319 OFFCURVE",
"1111 335 OFFCURVE",
"1090 335 CURVE SMOOTH",
"1069 335 OFFCURVE",
"1048 320 OFFCURVE",
"1042 296 CURVE SMOOTH",
"990 85 LINE",
"704 85 LINE",
"787 560 LINE",
"928 560 LINE SMOOTH",
"955 560 OFFCURVE",
"983 576 OFFCURVE",
"983 605 CURVE SMOOTH",
"983 625 OFFCURVE",
"968 637 OFFCURVE",
"941 637 CURVE SMOOTH",
"800 637 LINE",
"878 1085 LINE",
"1161 1085 LINE",
"1141 887 LINE SMOOTH",
"1138 862 OFFCURVE",
"1153 849 OFFCURVE",
"1173 849 CURVE SMOOTH",
"1193 849 OFFCURVE",
"1216 863 OFFCURVE",
"1221 893 CURVE SMOOTH",
"1260 1117 LINE SMOOTH",
"1266 1151 OFFCURVE",
"1246 1171 OFFCURVE",
"1213 1171 CURVE SMOOTH",
"463 1171 LINE SMOOTH",
"432 1171 OFFCURVE",
"407 1151 OFFCURVE",
"407 1122 CURVE SMOOTH",
"407 1102 OFFCURVE",
"419 1085 OFFCURVE",
"449 1085 CURVE SMOOTH",
"610 1085 LINE",
"111 86 LINE",
"61 86 LINE SMOOTH",
"28 86 OFFCURVE",
"4 64 OFFCURVE",
"4 36 CURVE SMOOTH",
"4 21 OFFCURVE",
"14 0 OFFCURVE",
"47 0 CURVE SMOOTH"
);
},
{
closed = 1;
nodes = (
"693 1085 LINE",
"790 1085 LINE",
"684 475 LINE",
"396 475 LINE"
);
}
);
width = 1240;
},
{
anchors = (
{
name = bottom;
position = "{552, 0}";
},
{
name = top;
position = "{758, 1171}";
}
);
layerId = "2EAAA3E6-1429-4D6D-BAD7-A55486495AAE";
paths = (
{
closed = 1;
nodes = (
"309 0 LINE SMOOTH",
"363 0 OFFCURVE",
"389 51 OFFCURVE",
"394 83 CURVE SMOOTH",
"399 114 OFFCURVE",
"392 166 OFFCURVE",
"339 166 CURVE SMOOTH",
"302 166 LINE",
"393 352 LINE",
"601 352 LINE",
"568 165 LINE",
"558 165 LINE SMOOTH",
"505 165 OFFCURVE",
"479 114 OFFCURVE",
"473 83 CURVE SMOOTH",
"467 52 OFFCURVE",
"476 0 OFFCURVE",
"530 0 CURVE SMOOTH",
"1041 0 LINE SMOOTH",
"1074 0 OFFCURVE",
"1097 19 OFFCURVE",
"1106 53 CURVE SMOOTH",
"1159 253 LINE SMOOTH",
"1174 309 OFFCURVE",
"1135 335 OFFCURVE",
"1094 335 CURVE SMOOTH",
"1053 335 OFFCURVE",
"1017 309 OFFCURVE",
"999 266 CURVE SMOOTH",
"957 165 LINE",
"770 165 LINE",
"832 520 LINE",
"924 520 LINE SMOOTH",
"982 520 OFFCURVE",
"1029 555 OFFCURVE",
"1037 600 CURVE SMOOTH",
"1046 650 OFFCURVE",
"1002 677 OFFCURVE",
"952 677 CURVE SMOOTH",
"860 677 LINE",
"918 1005 LINE",
"1102 1005 LINE",
"1108 917 LINE SMOOTH",
"1111 873 OFFCURVE",
"1137 849 OFFCURVE",
"1177 849 CURVE SMOOTH",
"1217 849 OFFCURVE",
"1265 873 OFFCURVE",
"1270 933 CURVE SMOOTH",
"1285 1117 LINE SMOOTH",
"1288 1151 OFFCURVE",
"1271 1171 OFFCURVE",
"1238 1171 CURVE SMOOTH",
"458 1171 LINE SMOOTH",
"385 1171 OFFCURVE",
"360 1119 OFFCURVE",
"355 1088 CURVE SMOOTH",
"350 1056 OFFCURVE",
"357 1005 OFFCURVE",
"430 1005 CURVE SMOOTH",
"512 1005 LINE",
"89 166 LINE",
"58 166 LINE SMOOTH",
"5 166 OFFCURVE",
"-20 114 OFFCURVE",
"-26 83 CURVE SMOOTH",
"-32 51 OFFCURVE",
"-23 0 OFFCURVE",
"30 0 CURVE SMOOTH"
);
},
{
closed = 1;
nodes = (
"704 1005 LINE",
"716 1005 LINE",
"628 505 LINE",
"468 505 LINE"
);
}
);
width = 1240;
}
);
unicode = 00C6;
},
{
glyphname = B;
lastChange = "2017-12-10 16:31:32 +0000";
layers = (
{
anchors = (
{
name = bottom;
position = "{620, 0}";
},
{
name = top;
position = "{620, 1171}";
}
);
layerId = "840BD324-B0A6-42B0-BD23-CB5E8C19394F";
paths = (
{
closed = 1;
nodes = (
"546 0 LINE SMOOTH",
"905 0 OFFCURVE",
"1108 94 OFFCURVE",
"1108 330 CURVE SMOOTH",
"1108 508 OFFCURVE",
"978 604 OFFCURVE",
"847 638 CURVE",
"936 669 OFFCURVE",
"1011 761 OFFCURVE",
"1011 885 CURVE SMOOTH",
"1011 1086 OFFCURVE",
"841 1171 OFFCURVE",
"546 1171 CURVE SMOOTH",
"180 1171 LINE SMOOTH",
"148 1171 OFFCURVE",
"132 1150 OFFCURVE",
"132 1129 CURVE SMOOTH",
"132 1107 OFFCURVE",
"148 1085 OFFCURVE",
"181 1085 CURVE SMOOTH",
"347 1085 LINE",
"347 86 LINE",
"187 86 LINE SMOOTH",
"154 86 OFFCURVE",
"137 64 OFFCURVE",
"137 43 CURVE SMOOTH",
"137 21 OFFCURVE",
"154 0 OFFCURVE",
"188 0 CURVE SMOOTH"
);
},
{
closed = 1;
nodes = (
"443 588 LINE",
"593 588 LINE SMOOTH",
"845 588 OFFCURVE",
"1012 516 OFFCURVE",
"1012 330 CURVE SMOOTH",
"1012 150 OFFCURVE",
"835 86 OFFCURVE",
"569 86 CURVE SMOOTH",
"443 86 LINE"
);
},
{
closed = 1;
nodes = (
"443 1085 LINE",
"569 1085 LINE SMOOTH",
"787 1085 OFFCURVE",
"925 1031 OFFCURVE",
"925 885 CURVE SMOOTH",
"925 749 OFFCURVE",
"797 672 OFFCURVE",
"593 672 CURVE SMOOTH",
"443 672 LINE"
);
}
);
width = 1240;
},
{
anchors = (
{
name = bottom;
position = "{620, 0}";
},
{
name = top;
position = "{620, 1171}";
}
);
layerId = "F2E12B84-E402-48AA-89E7-06534AE23493";
paths = (
{
closed = 1;
nodes = (
"601 0 LINE SMOOTH",
"930 0 OFFCURVE",
"1123 94 OFFCURVE",
"1123 350 CURVE SMOOTH",
"1123 508 OFFCURVE",
"993 604 OFFCURVE",
"892 638 CURVE",
"951 669 OFFCURVE",
"1026 761 OFFCURVE",
"1026 885 CURVE SMOOTH",
"1026 1086 OFFCURVE",
"866 1171 OFFCURVE",
"561 1171 CURVE SMOOTH",
"205 1171 LINE SMOOTH",
"133 1171 OFFCURVE",
"107 1130 OFFCURVE",
"107 1084 CURVE SMOOTH",
"107 1042 OFFCURVE",
"133 995 OFFCURVE",
"206 995 CURVE SMOOTH",
"272 995 LINE",
"272 176 LINE",
"202 176 LINE SMOOTH",
"139 176 OFFCURVE",
"112 129 OFFCURVE",
"112 88 CURVE SMOOTH",
"112 46 OFFCURVE",
"139 0 OFFCURVE",
"203 0 CURVE SMOOTH"
);
},
{
closed = 1;
nodes = (
"518 541 LINE",
"588 541 LINE SMOOTH",
"770 541 OFFCURVE",
"877 496 OFFCURVE",
"877 356 CURVE SMOOTH",
"877 260 OFFCURVE",
"790 176 OFFCURVE",
"588 176 CURVE SMOOTH",
"518 176 LINE"
);
},
{
closed = 1;
nodes = (
"518 995 LINE",
"588 995 LINE SMOOTH",
"692 995 OFFCURVE",
"790 959 OFFCURVE",
"790 855 CURVE SMOOTH",
"790 752 OFFCURVE",
"712 709 OFFCURVE",
"588 709 CURVE SMOOTH",
"518 709 LINE"
);
}
);
width = 1240;
},
{
anchors = (
{
name = bottom;
position = "{552, 0}";
},
{
name = top;
position = "{758, 1171}";
}
);
layerId = "440824D2-40E3-4EBC-B94D-DAF81B1E7F5E";
paths = (
{
closed = 1;
nodes = (
"478 0 LINE SMOOTH",
"846 0 OFFCURVE",
"1103 72 OFFCURVE",
"1103 355 CURVE SMOOTH",
"1103 518 OFFCURVE",
"1001 608 OFFCURVE",
"890 638 CURVE",
"1013 678 OFFCURVE",
"1102 779 OFFCURVE",
"1102 901 CURVE SMOOTH",
"1102 1092 OFFCURVE",
"948 1171 OFFCURVE",
"682 1171 CURVE SMOOTH",
"316 1171 LINE SMOOTH",
"284 1171 OFFCURVE",
"265 1150 OFFCURVE",
"261 1129 CURVE SMOOTH",
"257 1107 OFFCURVE",
"269 1085 OFFCURVE",
"302 1085 CURVE SMOOTH",
"468 1085 LINE",
"294 86 LINE",
"134 86 LINE SMOOTH",
"101 86 OFFCURVE",
"80 64 OFFCURVE",
"76 43 CURVE SMOOTH",
"72 21 OFFCURVE",
"86 0 OFFCURVE",
"120 0 CURVE SMOOTH"
);
},
{
closed = 1;
nodes = (
"477 588 LINE",
"667 588 LINE SMOOTH",
"857 588 OFFCURVE",
"1008 518 OFFCURVE",
"1006 355 CURVE SMOOTH",
"1003 132 OFFCURVE",
"777 86 OFFCURVE",
"516 86 CURVE SMOOTH",
"390 86 LINE"
);
},
{
closed = 1;
nodes = (
"564 1085 LINE",
"690 1085 LINE SMOOTH",
"889 1085 OFFCURVE",
"1014 1040 OFFCURVE",
"1014 896 CURVE SMOOTH",
"1014 762 OFFCURVE",
"841 672 OFFCURVE",
"682 672 CURVE SMOOTH",
"492 672 LINE"
);
}
);
width = 1240;
},
{
anchors = (
{
name = bottom;
position = "{552, 0}";
},
{
name = top;
position = "{758, 1171}";
}
);
layerId = "2EAAA3E6-1429-4D6D-BAD7-A55486495AAE";
paths = (
{
closed = 1;
nodes = (
"478 0 LINE SMOOTH",
"846 0 OFFCURVE",
"1103 72 OFFCURVE",
"1103 355 CURVE SMOOTH",
"1103 518 OFFCURVE",
"1001 608 OFFCURVE",
"900 638 CURVE",
"1013 678 OFFCURVE",
"1102 779 OFFCURVE",
"1102 901 CURVE SMOOTH",
"1102 1092 OFFCURVE",
"948 1171 OFFCURVE",
"682 1171 CURVE SMOOTH",
"336 1171 LINE SMOOTH",
"274 1171 OFFCURVE",
"231 1130 OFFCURVE",
"231 1080 CURVE SMOOTH",
"231 1042 OFFCURVE",
"259 998 OFFCURVE",
"322 998 CURVE SMOOTH",
"358 998 LINE",
"204 183 LINE",
"144 183 LINE SMOOTH",
"81 183 OFFCURVE",
"45 140 OFFCURVE",
"46 83 CURVE SMOOTH",
"46 51 OFFCURVE",
"66 0 OFFCURVE",
"130 0 CURVE SMOOTH"
);
},
{
closed = 1;
nodes = (
"513 539 LINE",
"638 539 LINE SMOOTH",
"753 539 OFFCURVE",
"860 490 OFFCURVE",
"859 374 CURVE SMOOTH",
"858 215 OFFCURVE",
"696 183 OFFCURVE",
"541 183 CURVE SMOOTH",
"451 183 LINE"
);
},
{
closed = 1;
nodes = (
"591 998 LINE",
"680 998 LINE SMOOTH",
"782 998 OFFCURVE",
"861 967 OFFCURVE",
"861 864 CURVE SMOOTH",
"861 769 OFFCURVE",
"748 705 OFFCURVE",
"645 705 CURVE SMOOTH",
"540 705 LINE"
);
}
);
width = 1240;
}
);
unicode = 0042;
},
{
glyphname = C;
lastChange = "2017-12-30 17:01:11 +0000";
layers = (
{
anchors = (
{
name = bottom;
position = "{620, 0}";
},
{
name = top;
position = "{680, 1171}";
}
);
layerId = "840BD324-B0A6-42B0-BD23-CB5E8C19394F";
paths = (
{
closed = 1;
nodes = (
"946 -17 OFFCURVE",
"1130 191 OFFCURVE",
"1130 343 CURVE SMOOTH",
"1130 377 OFFCURVE",
"1106 393 OFFCURVE",
"1083 393 CURVE SMOOTH",
"1062 393 OFFCURVE",
"1044 380 OFFCURVE",
"1036 345 CURVE SMOOTH",
"1010 239 OFFCURVE",
"893 69 OFFCURVE",
"670 69 CURVE SMOOTH",
"435 69 OFFCURVE",
"228 263 OFFCURVE",
"228 600 CURVE SMOOTH",
"228 890 OFFCURVE",
"396 1101 OFFCURVE",
"668 1101 CURVE SMOOTH",
"850 1101 OFFCURVE",
"996 974 OFFCURVE",
"1026 827 CURVE SMOOTH",
"1032 797 OFFCURVE",
"1050 780 OFFCURVE",
"1074 780 CURVE SMOOTH",
"1097 780 OFFCURVE",
"1122 795 OFFCURVE",
"1120 827 CURVE SMOOTH",
"1100 1120 LINE SMOOTH",
"1098 1154 OFFCURVE",
"1076 1171 OFFCURVE",
"1051 1171 CURVE SMOOTH",
"1028 1171 OFFCURVE",
"999 1155 OFFCURVE",
"1002 1123 CURVE SMOOTH",
"1002 1121 OFFCURVE",
"1011 1059 OFFCURVE",
"1020 994 CURVE",
"981 1071 OFFCURVE",
"863 1187 OFFCURVE",
"669 1187 CURVE SMOOTH",
"361 1187 OFFCURVE",
"132 954 OFFCURVE",
"132 607 CURVE SMOOTH",
"132 225 OFFCURVE",
"361 -17 OFFCURVE",
"669 -17 CURVE SMOOTH"
);
}
);
width = 1240;
},
{
anchors = (
{
name = bottom;
position = "{620, 0}";
},
{
name = top;
position = "{660, 1201}";
}
);
background = {
paths = (
{
closed = 1;
nodes = (
"946 -17 OFFCURVE",
"1130 191 OFFCURVE",
"1130 343 CURVE SMOOTH",
"1130 377 OFFCURVE",
"1106 393 OFFCURVE",
"1083 393 CURVE SMOOTH",
"1062 393 OFFCURVE",
"1044 380 OFFCURVE",
"1036 345 CURVE SMOOTH",
"1010 239 OFFCURVE",
"893 69 OFFCURVE",
"670 69 CURVE SMOOTH",
"435 69 OFFCURVE",
"228 263 OFFCURVE",
"228 600 CURVE SMOOTH",
"228 890 OFFCURVE",
"396 1101 OFFCURVE",
"668 1101 CURVE SMOOTH",
"850 1101 OFFCURVE",
"996 974 OFFCURVE",
"1026 827 CURVE SMOOTH",
"1032 797 OFFCURVE",
"1050 780 OFFCURVE",
"1074 780 CURVE SMOOTH",
"1097 780 OFFCURVE",
"1122 795 OFFCURVE",
"1120 827 CURVE SMOOTH",
"1100 1120 LINE SMOOTH",
"1098 1154 OFFCURVE",
"1076 1171 OFFCURVE",
"1051 1171 CURVE SMOOTH",
"1027 1171 OFFCURVE",
"997 1154 OFFCURVE",
"1002 1121 CURVE SMOOTH",
"1020 994 LINE",
"981 1071 OFFCURVE",
"863 1187 OFFCURVE",
"669 1187 CURVE SMOOTH",
"361 1187 OFFCURVE",
"132 954 OFFCURVE",
"132 607 CURVE SMOOTH",
"132 225 OFFCURVE",
"361 -17 OFFCURVE",
"669 -17 CURVE SMOOTH"
);
}
);
};
layerId = "F2E12B84-E402-48AA-89E7-06534AE23493";
paths = (
{
closed = 1;
nodes = (
"956 -17 OFFCURVE",
"1140 161 OFFCURVE",
"1142 308 CURVE SMOOTH",
"1143 367 OFFCURVE",
"1100 403 OFFCURVE",
"1054 403 CURVE SMOOTH",
"1009 403 OFFCURVE",
"973 359 OFFCURVE",
"942 308 CURVE SMOOTH",
"905 247 OFFCURVE",
"838 159 OFFCURVE",
"687 159 CURVE SMOOTH",
"515 159 OFFCURVE",
"358 313 OFFCURVE",
"358 600 CURVE SMOOTH",
"358 830 OFFCURVE",
"506 1011 OFFCURVE",
"698 1011 CURVE SMOOTH",
"871 1011 OFFCURVE",
"958 934 OFFCURVE",
"988 845 CURVE SMOOTH",
"1002 805 OFFCURVE",
"1031 780 OFFCURVE",
"1070 780 CURVE SMOOTH",
"1108 780 OFFCURVE",
"1156 803 OFFCURVE",
"1150 854 CURVE SMOOTH",
"1122 1100 LINE SMOOTH",
"1117 1140 OFFCURVE",
"1082 1187 OFFCURVE",
"1020 1187 CURVE SMOOTH",
"967 1187 OFFCURVE",
"928 1154 OFFCURVE",
"928 1114 CURVE SMOOTH",
"928 1103 OFFCURVE",
"934 1087 OFFCURVE",
"948 1054 CURVE",
"917 1090 OFFCURVE",
"850 1187 OFFCURVE",
"659 1187 CURVE SMOOTH",
"341 1187 OFFCURVE",
"112 954 OFFCURVE",
"112 607 CURVE SMOOTH",
"112 225 OFFCURVE",
"371 -17 OFFCURVE",
"659 -17 CURVE SMOOTH"
);
}
);
width = 1240;
},
{
anchors = (
{
name = bottom;
position = "{552, 0}";
},
{
name = top;
position = "{758, 1171}";
}
);
layerId = "440824D2-40E3-4EBC-B94D-DAF81B1E7F5E";
paths = (
{
closed = 1;
nodes = (
"906 -17 OFFCURVE",
"1088 191 OFFCURVE",
"1102 313 CURVE SMOOTH",
"1106 347 OFFCURVE",
"1083 363 OFFCURVE",
"1060 363 CURVE SMOOTH",
"1039 363 OFFCURVE",
"1019 350 OFFCURVE",
"1005 314 CURVE SMOOTH",
"976 239 OFFCURVE",
"855 69 OFFCURVE",
"632 69 CURVE SMOOTH",
"422 69 OFFCURVE",
"266 222 OFFCURVE",
"266 492 CURVE SMOOTH",
"266 526 OFFCURVE",
"268 562 OFFCURVE",
"274 600 CURVE SMOOTH",
"318 880 OFFCURVE",
"502 1101 OFFCURVE",
"744 1101 CURVE SMOOTH",
"889 1101 OFFCURVE",
"986 1039 OFFCURVE",
"1042 975 CURVE",
"1057 873 OFFCURVE",
"1060 797 OFFCURVE",
"1108 797 CURVE SMOOTH",
"1149 797 OFFCURVE",
"1168 832 OFFCURVE",
"1168 877 CURVE SMOOTH",
"1168 1071 OFFCURVE",
"966 1187 OFFCURVE",
"757 1187 CURVE SMOOTH",
"479 1187 OFFCURVE",
"224 954 OFFCURVE",
"174 607 CURVE SMOOTH",
"168 565 OFFCURVE",
"165 524 OFFCURVE",
"165 486 CURVE SMOOTH",
"165 181 OFFCURVE",
"348 -17 OFFCURVE",
"639 -17 CURVE SMOOTH"
);
}
);
width = 1240;
},
{
anchors = (
{
name = bottom;
position = "{552, 0}";
},
{
name = top;
position = "{758, 1171}";
}
);
layerId = "2EAAA3E6-1429-4D6D-BAD7-A55486495AAE";
paths = (
{
closed = 1;
nodes = (
"960 -17 OFFCURVE",
"1108 190 OFFCURVE",
"1108 291 CURVE SMOOTH",
"1108 350 OFFCURVE",
"1079 393 OFFCURVE",
"1015 393 CURVE SMOOTH",
"966 393 OFFCURVE",
"935 360 OFFCURVE",
"908 319 CURVE SMOOTH",
"867 257 OFFCURVE",
"815 159 OFFCURVE",
"632 159 CURVE SMOOTH",
"465 159 OFFCURVE",
"362 302 OFFCURVE",
"362 482 CURVE SMOOTH",
"362 526 OFFCURVE",
"365 562 OFFCURVE",
"370 600 CURVE SMOOTH",
"401 837 OFFCURVE",
"582 1021 OFFCURVE",
"764 1021 CURVE SMOOTH",
"869 1021 OFFCURVE",
"932 982 OFFCURVE",
"972 955 CURVE",
"987 833 OFFCURVE",
"1000 747 OFFCURVE",
"1068 747 CURVE SMOOTH",
"1159 747 OFFCURVE",
"1188 832 OFFCURVE",
"1188 877 CURVE SMOOTH",
"1188 1081 OFFCURVE",
"976 1187 OFFCURVE",
"777 1187 CURVE SMOOTH",
"409 1187 OFFCURVE",
"174 944 OFFCURVE",
"124 607 CURVE SMOOTH",
"118 565 OFFCURVE",
"115 524 OFFCURVE",
"115 486 CURVE SMOOTH",
"116 191 OFFCURVE",
"298 -17 OFFCURVE",
"639 -17 CURVE SMOOTH"
);
}
);
width = 1240;
}
);
unicode = 0043;
},
{
glyphname = D;
lastChange = "2017-12-30 16:53:27 +0000";
layers = (
{
anchors = (
{
name = bottom;
position = "{620, 0}";
},
{
name = center;
position = "{620, 586}";
},
{
name = top;
position = "{580, 1151}";
}
);
layerId = "840BD324-B0A6-42B0-BD23-CB5E8C19394F";
paths = (
{
closed = 1;
nodes = (
"517 0 LINE SMOOTH",
"918 0 OFFCURVE",
"1135 188 OFFCURVE",
"1135 591 CURVE SMOOTH",
"1135 973 OFFCURVE",
"902 1171 OFFCURVE",
"519 1171 CURVE SMOOTH",
"161 1171 LINE SMOOTH",
"128 1171 OFFCURVE",
"111 1149 OFFCURVE",
"111 1127 CURVE SMOOTH",
"111 1106 OFFCURVE",
"127 1085 OFFCURVE",
"159 1085 CURVE SMOOTH",
"318 1085 LINE",
"318 86 LINE",
"155 86 LINE SMOOTH",
"122 86 OFFCURVE",
"105 64 OFFCURVE",
"105 43 CURVE SMOOTH",
"105 21 OFFCURVE",
"122 0 OFFCURVE",
"156 0 CURVE SMOOTH"
);
},
{
closed = 1;
nodes = (
"414 1085 LINE",
"538 1085 LINE SMOOTH",
"871 1085 OFFCURVE",
"1039 887 OFFCURVE",
"1039 591 CURVE SMOOTH",
"1039 276 OFFCURVE",
"895 86 OFFCURVE",
"524 86 CURVE SMOOTH",
"414 86 LINE"
);
}
);
width = 1240;
},
{
anchors = (
{
name = bottom;
position = "{620, 0}";
},
{
name = center;
position = "{620, 586}";
},
{
name = top;
position = "{620, 1171}";
}
);
layerId = "F2E12B84-E402-48AA-89E7-06534AE23493";
paths = (
{
closed = 1;
nodes = (
"497 0 LINE SMOOTH",
"918 0 OFFCURVE",
"1145 188 OFFCURVE",
"1145 591 CURVE SMOOTH",
"1145 973 OFFCURVE",
"902 1171 OFFCURVE",
"489 1171 CURVE SMOOTH",
"186 1171 LINE SMOOTH",
"128 1171 OFFCURVE",
"91 1132 OFFCURVE",
"91 1083 CURVE SMOOTH",
"91 1035 OFFCURVE",
"127 995 OFFCURVE",
"184 995 CURVE SMOOTH",
"243 995 LINE",
"243 176 LINE",
"180 176 LINE SMOOTH",
"122 176 OFFCURVE",
"85 134 OFFCURVE",
"85 88 CURVE SMOOTH",
"85 41 OFFCURVE",
"122 0 OFFCURVE",
"181 0 CURVE SMOOTH"
);
},
{
closed = 1;
nodes = (
"489 995 LINE",
"498 995 LINE SMOOTH",
"762 995 OFFCURVE",
"909 857 OFFCURVE",
"909 591 CURVE SMOOTH",
"909 336 OFFCURVE",
"785 176 OFFCURVE",
"498 176 CURVE SMOOTH",
"489 176 LINE"
);
}
);
width = 1240;
},
{
anchors = (
{
name = bottom;
position = "{552, 0}";
},
{
name = center;
position = "{655, 586}";
},
{
name = top;
position = "{758, 1171}";
}
);
layerId = "440824D2-40E3-4EBC-B94D-DAF81B1E7F5E";
paths = (
{
closed = 1;
nodes = (
"447 0 LINE SMOOTH",
"888 0 OFFCURVE",
"1154 267 OFFCURVE",
"1154 690 CURVE SMOOTH",
"1154 983 OFFCURVE",
"987 1171 OFFCURVE",
"669 1171 CURVE SMOOTH",
"301 1171 LINE SMOOTH",
"268 1171 OFFCURVE",
"251 1149 OFFCURVE",
"251 1127 CURVE SMOOTH",
"251 1106 OFFCURVE",
"267 1085 OFFCURVE",
"299 1085 CURVE SMOOTH",
"448 1085 LINE",
"258 86 LINE",
"115 86 LINE SMOOTH",
"82 86 OFFCURVE",
"65 64 OFFCURVE",
"65 43 CURVE SMOOTH",
"65 21 OFFCURVE",
"82 0 OFFCURVE",
"116 0 CURVE SMOOTH"
);
},
{
closed = 1;
nodes = (
"544 1085 LINE",
"668 1085 LINE SMOOTH",
"934 1085 OFFCURVE",
"1059 936 OFFCURVE",
"1059 685 CURVE SMOOTH",
"1059 326 OFFCURVE",
"835 86 OFFCURVE",
"464 86 CURVE SMOOTH",
"354 86 LINE"
);
}
);
width = 1240;
},
{
anchors = (
{
name = bottom;
position = "{552, 0}";
},
{
name = center;
position = "{655, 586}";
},
{
name = top;
position = "{758, 1171}";
}
);
layerId = "2EAAA3E6-1429-4D6D-BAD7-A55486495AAE";
paths = (
{
closed = 1;
nodes = (
"447 0 LINE SMOOTH",
"908 0 OFFCURVE",
"1174 257 OFFCURVE",
"1174 690 CURVE SMOOTH",
"1174 973 OFFCURVE",
"1007 1171 OFFCURVE",
"669 1171 CURVE SMOOTH",
"296 1171 LINE SMOOTH",
"233 1171 OFFCURVE",
"201 1129 OFFCURVE",
"201 1072 CURVE SMOOTH",
"201 1033 OFFCURVE",
"232 995 OFFCURVE",
"294 995 CURVE SMOOTH",
"348 995 LINE",
"198 176 LINE",
"125 176 LINE SMOOTH",
"72 176 OFFCURVE",
"35 143 OFFCURVE",
"35 79 CURVE SMOOTH",
"35 35 OFFCURVE",
"72 0 OFFCURVE",
"126 0 CURVE SMOOTH"
);
},
{
closed = 1;
nodes = (
"594 995 LINE",
"668 995 LINE SMOOTH",
"826 995 OFFCURVE",
"928 905 OFFCURVE",
"928 685 CURVE SMOOTH",
"928 391 OFFCURVE",
"762 176 OFFCURVE",
"484 176 CURVE SMOOTH",
"444 176 LINE"
);
}
);
width = 1240;
}
);
unicode = 0044;
},
{
glyphname = DZ;
lastChange = "2017-12-25 23:03:59 +0000";
layers = (
{
components = (
{
name = _halfd;
transform = "{1, 0, 0, 1, 7, 0}";
}
);
layerId = "840BD324-B0A6-42B0-BD23-CB5E8C19394F";
paths = (
{
closed = 1;
nodes = (
"1108 0 LINE SMOOTH",
"1137 0 OFFCURVE",
"1160 19 OFFCURVE",
"1159 53 CURVE",
"1169 315 LINE SMOOTH",
"1170 350 OFFCURVE",
"1144 363 OFFCURVE",
"1123 363 CURVE SMOOTH",
"1100 363 OFFCURVE",
"1079 346 OFFCURVE",
"1077 314 CURVE",
"1067 86 LINE",
"818 86 LINE",
"1156 1081 LINE SMOOTH",
"1157 1085 OFFCURVE",
"1162 1102 OFFCURVE",
"1162 1116 CURVE SMOOTH",
"1162 1142 OFFCURVE",
"1152 1171 OFFCURVE",
"1117 1171 CURVE SMOOTH",
"807 1171 LINE SMOOTH",
"756 1171 OFFCURVE",
"750 1144 OFFCURVE",
"749 1116 CURVE",
"739 866 LINE SMOOTH",
"738 834 OFFCURVE",
"755 817 OFFCURVE",
"780 817 CURVE SMOOTH",
"802 817 OFFCURVE",
"824 830 OFFCURVE",
"825 857 CURVE SMOOTH",
"835 1085 LINE",
"1065 1085 LINE",
"722 95 LINE SMOOTH",
"714 73 OFFCURVE",
"711 54 OFFCURVE",
"711 39 CURVE SMOOTH",
"711 14 OFFCURVE",
"722 0 OFFCURVE",
"746 0 CURVE SMOOTH"
);
}
);
width = 1240;
},
{
components = (
{
name = _halfd;
transform = "{1, 0, 0, 1, 7, 0}";
}
);
layerId = "F2E12B84-E402-48AA-89E7-06534AE23493";
paths = (
{
closed = 1;
nodes = (
"1098 0 LINE SMOOTH",
"1137 0 OFFCURVE",
"1160 19 OFFCURVE",
"1159 53 CURVE",
"1178 295 LINE SMOOTH",
"1182 350 OFFCURVE",
"1144 363 OFFCURVE",
"1123 363 CURVE SMOOTH",
"1090 363 OFFCURVE",
"1073 345 OFFCURVE",
"1067 314 CURVE SMOOTH",
"1037 166 LINE",
"888 166 LINE",
"1186 1081 LINE SMOOTH",
"1187 1085 OFFCURVE",
"1192 1102 OFFCURVE",
"1192 1116 CURVE SMOOTH",
"1192 1142 OFFCURVE",
"1182 1171 OFFCURVE",
"1147 1171 CURVE SMOOTH",
"807 1171 LINE SMOOTH",
"756 1171 OFFCURVE",
"750 1144 OFFCURVE",
"749 1116 CURVE SMOOTH",
"730 886 LINE SMOOTH",
"726 834 OFFCURVE",
"755 817 OFFCURVE",
"780 817 CURVE SMOOTH",
"802 817 OFFCURVE",
"830 830 OFFCURVE",
"835 857 CURVE SMOOTH",
"865 1005 LINE",
"985 1005 LINE",
"692 95 LINE SMOOTH",
"685 73 OFFCURVE",
"681 54 OFFCURVE",
"681 39 CURVE SMOOTH",
"681 14 OFFCURVE",
"692 0 OFFCURVE",
"716 0 CURVE SMOOTH"
);
}
);
width = 1240;
},
{
components = (
{
name = _halfd;
transform = "{1, 0, 0, 1, 17, 0}";
}
);
layerId = "440824D2-40E3-4EBC-B94D-DAF81B1E7F5E";
paths = (
{
closed = 1;
nodes = (
"996 0 LINE SMOOTH",
"1025 0 OFFCURVE",
"1051 19 OFFCURVE",
"1056 53 CURVE",
"1112 315 LINE SMOOTH",
"1119 350 OFFCURVE",
"1095 363 OFFCURVE",
"1074 363 CURVE SMOOTH",
"1051 363 OFFCURVE",
"1027 346 OFFCURVE",
"1020 314 CURVE",
"970 86 LINE",
"721 86 LINE",
"1233 1078 LINE SMOOTH",
"1239 1090 OFFCURVE",
"1247 1108 OFFCURVE",
"1248 1133 CURVE SMOOTH",
"1249 1150 OFFCURVE",
"1244 1171 OFFCURVE",
"1209 1171 CURVE SMOOTH",
"899 1171 LINE SMOOTH",
"848 1171 OFFCURVE",
"838 1144 OFFCURVE",
"832 1116 CURVE",
"778 866 LINE SMOOTH",
"771 834 OFFCURVE",
"785 817 OFFCURVE",
"810 817 CURVE SMOOTH",
"832 817 OFFCURVE",
"852 830 OFFCURVE",
"858 857 CURVE SMOOTH",
"912 1085 LINE",
"1142 1085 LINE",
"626 98 LINE SMOOTH",
"615 76 OFFCURVE",
"603 53 OFFCURVE",
"603 34 CURVE SMOOTH",
"603 11 OFFCURVE",
"615 0 OFFCURVE",
"634 0 CURVE SMOOTH"
);
}
);
width = 1240;
},
{
components = (
{
name = _halfd;
transform = "{1, 0, 0, 1, 7, 0}";
}
);
layerId = "2EAAA3E6-1429-4D6D-BAD7-A55486495AAE";
paths = (
{
closed = 1;
nodes = (
"1005 0 LINE SMOOTH",
"1044 0 OFFCURVE",
"1070 19 OFFCURVE",
"1075 53 CURVE",
"1137 295 LINE SMOOTH",
"1151 350 OFFCURVE",
"1115 363 OFFCURVE",
"1094 363 CURVE SMOOTH",
"1061 363 OFFCURVE",
"1041 345 OFFCURVE",
"1029 314 CURVE SMOOTH",
"973 166 LINE",
"824 166 LINE",
"1283 1081 LINE SMOOTH",
"1285 1085 OFFCURVE",
"1293 1102 OFFCURVE",
"1296 1116 CURVE SMOOTH",
"1302 1142 OFFCURVE",
"1295 1171 OFFCURVE",
"1260 1171 CURVE SMOOTH",
"910 1171 LINE SMOOTH",
"859 1171 OFFCURVE",
"849 1144 OFFCURVE",
"843 1116 CURVE SMOOTH",
"793 886 LINE SMOOTH",
"782 833 OFFCURVE",
"806 817 OFFCURVE",
"831 817 CURVE SMOOTH",
"853 817 OFFCURVE",
"883 830 OFFCURVE",
"893 857 CURVE SMOOTH",
"949 1005 LINE",
"1069 1005 LINE",
"616 95 LINE SMOOTH",
"605 73 OFFCURVE",
"597 54 OFFCURVE",
"595 39 CURVE SMOOTH",
"592 14 OFFCURVE",
"599 0 OFFCURVE",
"623 0 CURVE SMOOTH"
);
}
);
width = 1240;
}
);
unicode = 01F1;
},
{
glyphname = DZcaron;
lastChange = "2017-12-26 02:16:54 +0000";
layers = (
{
components = (
{
name = DZ;
}
);
layerId = "840BD324-B0A6-42B0-BD23-CB5E8C19394F";
paths = (
{
closed = 1;
nodes = (
"974 1299 OFFCURVE",
"981 1312 OFFCURVE",
"985 1320 CURVE SMOOTH",
"1119 1583 LINE SMOOTH",
"1123 1592 OFFCURVE",
"1125 1601 OFFCURVE",
"1125 1612 CURVE SMOOTH",
"1125 1627 OFFCURVE",
"1107 1637 OFFCURVE",
"1094 1637 CURVE SMOOTH",
"1081 1637 OFFCURVE",
"1071 1629 OFFCURVE",
"1066 1621 CURVE SMOOTH",
"953 1432 LINE",
"811 1621 LINE SMOOTH",
"805 1629 OFFCURVE",
"796 1634 OFFCURVE",
"783 1634 CURVE SMOOTH",
"770 1634 OFFCURVE",
"755 1623 OFFCURVE",
"752 1606 CURVE SMOOTH",
"750 1596 OFFCURVE",
"754 1590 OFFCURVE",
"758 1583 CURVE SMOOTH",
"922 1320 LINE SMOOTH",
"927 1312 OFFCURVE",
"932 1299 OFFCURVE",
"953 1299 CURVE SMOOTH"
);
}
);
width = 1240;
},
{
components = (
{
name = DZ;
}
);
layerId = "F2E12B84-E402-48AA-89E7-06534AE23493";
paths = (
{
closed = 1;
nodes = (
"975 1264 OFFCURVE",
"986 1272 OFFCURVE",
"994 1280 CURVE SMOOTH",
"1183 1492 LINE SMOOTH",
"1194 1504 OFFCURVE",
"1212 1525 OFFCURVE",
"1212 1546 CURVE SMOOTH",
"1212 1572 OFFCURVE",
"1191 1597 OFFCURVE",
"1156 1597 CURVE SMOOTH",
"1133 1597 OFFCURVE",
"1117 1586 OFFCURVE",
"1110 1580 CURVE SMOOTH",
"959 1442 LINE",
"810 1583 LINE SMOOTH",
"804 1589 OFFCURVE",
"789 1597 OFFCURVE",
"768 1597 CURVE SMOOTH",
"733 1597 OFFCURVE",
"711 1578 OFFCURVE",
"711 1552 CURVE SMOOTH",
"711 1531 OFFCURVE",
"734 1506 OFFCURVE",
"746 1492 CURVE SMOOTH",
"931 1280 LINE SMOOTH",
"940 1270 OFFCURVE",
"949 1264 OFFCURVE",
"962 1264 CURVE SMOOTH"
);
}
);
width = 1240;
},
{
components = (
{
name = DZ;
}
);
layerId = "440824D2-40E3-4EBC-B94D-DAF81B1E7F5E";
paths = (
{
closed = 1;
nodes = (
"1094 1299 OFFCURVE",
"1104 1312 OFFCURVE",
"1116 1330 CURVE SMOOTH",
"1289 1583 LINE SMOOTH",
"1295 1592 OFFCURVE",
"1300 1601 OFFCURVE",
"1300 1612 CURVE SMOOTH",
"1300 1627 OFFCURVE",
"1287 1637 OFFCURVE",
"1274 1637 CURVE SMOOTH",
"1261 1637 OFFCURVE",
"1249 1629 OFFCURVE",
"1243 1621 CURVE SMOOTH",
"1091 1432 LINE",
"988 1621 LINE SMOOTH",
"983 1629 OFFCURVE",
"975 1634 OFFCURVE",
"962 1634 CURVE SMOOTH",
"949 1634 OFFCURVE",
"931 1627 OFFCURVE",
"924 1610 CURVE SMOOTH",
"920 1600 OFFCURVE",
"925 1590 OFFCURVE",
"928 1583 CURVE SMOOTH",
"1046 1320 LINE SMOOTH",
"1050 1312 OFFCURVE",
"1057 1299 OFFCURVE",
"1075 1299 CURVE SMOOTH"
);
}
);
width = 1240;
},
{
components = (
{
name = DZ;
}
);
layerId = "2EAAA3E6-1429-4D6D-BAD7-A55486495AAE";
paths = (
{
closed = 1;
nodes = (
"1097 1281 OFFCURVE",
"1109 1286 OFFCURVE",
"1118 1297 CURVE SMOOTH",
"1255 1489 LINE SMOOTH",
"1267 1505 OFFCURVE",
"1287 1527 OFFCURVE",
"1287 1552 CURVE SMOOTH",
"1287 1569 OFFCURVE",
"1273 1597 OFFCURVE",
"1248 1597 CURVE SMOOTH",
"1227 1597 OFFCURVE",
"1216 1588 OFFCURVE",
"1209 1580 CURVE SMOOTH",
"1101 1459 LINE",
"1019 1577 LINE SMOOTH",
"1014 1584 OFFCURVE",
"999 1594 OFFCURVE",
"976 1594 CURVE SMOOTH",
"951 1594 OFFCURVE",
"919 1575 OFFCURVE",
"919 1541 CURVE SMOOTH",
"919 1524 OFFCURVE",
"930 1509 OFFCURVE",
"937 1498 CURVE SMOOTH",
"1055 1297 LINE SMOOTH",
"1060 1288 OFFCURVE",
"1071 1281 OFFCURVE",
"1084 1281 CURVE SMOOTH"
);
}
);
width = 1240;
}
);
unicode = 01C4;
},
{
glyphname = Eth;
lastChange = "2017-12-26 02:39:18 +0000";
layers = (
{
components = (
{
name = D;
}
);
layerId = "840BD324-B0A6-42B0-BD23-CB5E8C19394F";
paths = (
{
closed = 1;
nodes = (
"605 572 LINE",
"633 572 OFFCURVE",
"646 592 OFFCURVE",
"646 611 CURVE SMOOTH",
"646 630 OFFCURVE",
"635 648 OFFCURVE",
"607 648 CURVE",
"168 648 LINE",
"138 648 OFFCURVE",
"126 630 OFFCURVE",
"126 611 CURVE SMOOTH",
"126 592 OFFCURVE",
"140 572 OFFCURVE",
"172 572 CURVE"
);
}
);
width = 1240;
},
{
components = (
{
name = D;
}
);
layerId = "F2E12B84-E402-48AA-89E7-06534AE23493";
paths = (
{
closed = 1;
nodes = (
"641 520 LINE",
"697 520 OFFCURVE",
"721 560 OFFCURVE",
"721 599 CURVE SMOOTH",
"721 638 OFFCURVE",
"688 677 OFFCURVE",
"642 677 CURVE",
"150 677 LINE",
"94 677 OFFCURVE",
"72 639 OFFCURVE",
"72 600 CURVE SMOOTH",
"72 560 OFFCURVE",
"96 520 OFFCURVE",
"152 520 CURVE"
);
}
);
width = 1240;
},
{
components = (
{
name = D;
}
);
layerId = "440824D2-40E3-4EBC-B94D-DAF81B1E7F5E";
paths = (
{
closed = 1;
nodes = (
"600 574 LINE SMOOTH",
"624 574 OFFCURVE",
"646 592 OFFCURVE",
"646 617 CURVE SMOOTH",
"646 630 OFFCURVE",
"641 649 OFFCURVE",
"615 649 CURVE SMOOTH",
"191 649 LINE SMOOTH",
"166 649 OFFCURVE",
"144 630 OFFCURVE",
"144 607 CURVE SMOOTH",
"144 593 OFFCURVE",
"150 574 OFFCURVE",
"175 574 CURVE SMOOTH"
);
}
);
width = 1240;
},
{
components = (
{
name = D;
}
);
layerId = "2EAAA3E6-1429-4D6D-BAD7-A55486495AAE";
paths = (
{
closed = 1;
nodes = (
"677 520 LINE",
"733 520 OFFCURVE",
"764 560 OFFCURVE",
"771 599 CURVE SMOOTH",
"778 638 OFFCURVE",
"752 677 OFFCURVE",
"706 677 CURVE",
"214 677 LINE",
"158 677 OFFCURVE",
"129 639 OFFCURVE",
"122 600 CURVE SMOOTH",
"115 560 OFFCURVE",
"132 520 OFFCURVE",
"188 520 CURVE"
);
}
);
width = 1240;
}
);
unicode = 00D0;
},
{
glyphname = Dcroat;
lastChange = "2017-12-26 02:39:35 +0000";
layers = (
{
components = (
{
name = D;
}
);
layerId = "840BD324-B0A6-42B0-BD23-CB5E8C19394F";
paths = (
{
closed = 1;
nodes = (
"605 572 LINE",
"633 572 OFFCURVE",
"646 592 OFFCURVE",
"646 611 CURVE SMOOTH",
"646 630 OFFCURVE",
"635 648 OFFCURVE",
"607 648 CURVE",
"168 648 LINE",
"138 648 OFFCURVE",
"126 630 OFFCURVE",
"126 611 CURVE SMOOTH",
"126 592 OFFCURVE",
"140 572 OFFCURVE",
"172 572 CURVE"
);
}
);
width = 1240;
},
{
components = (
{
name = D;
}
);
layerId = "F2E12B84-E402-48AA-89E7-06534AE23493";
paths = (
{
closed = 1;
nodes = (
"641 520 LINE",
"697 520 OFFCURVE",
"721 560 OFFCURVE",
"721 599 CURVE SMOOTH",
"721 638 OFFCURVE",
"688 677 OFFCURVE",
"642 677 CURVE",
"150 677 LINE",
"94 677 OFFCURVE",
"72 639 OFFCURVE",
"72 600 CURVE SMOOTH",
"72 560 OFFCURVE",
"96 520 OFFCURVE",
"152 520 CURVE"
);
}
);
width = 1240;
},
{
components = (
{
name = D;
}
);
layerId = "440824D2-40E3-4EBC-B94D-DAF81B1E7F5E";
paths = (
{
closed = 1;
nodes = (
"600 574 LINE SMOOTH",
"624 574 OFFCURVE",
"646 592 OFFCURVE",
"646 617 CURVE SMOOTH",
"646 630 OFFCURVE",
"641 649 OFFCURVE",
"615 649 CURVE SMOOTH",
"191 649 LINE SMOOTH",
"166 649 OFFCURVE",
"144 630 OFFCURVE",
"144 607 CURVE SMOOTH",
"144 593 OFFCURVE",
"150 574 OFFCURVE",
"175 574 CURVE SMOOTH"
);
}
);
width = 1240;
},
{
components = (
{
name = D;
}
);
layerId = "2EAAA3E6-1429-4D6D-BAD7-A55486495AAE";
paths = (
{
closed = 1;
nodes = (
"677 520 LINE",
"733 520 OFFCURVE",
"764 560 OFFCURVE",
"771 599 CURVE SMOOTH",
"778 638 OFFCURVE",
"752 677 OFFCURVE",
"706 677 CURVE",
"214 677 LINE",
"158 677 OFFCURVE",
"129 639 OFFCURVE",
"122 600 CURVE SMOOTH",
"115 560 OFFCURVE",
"132 520 OFFCURVE",
"188 520 CURVE"
);
}
);
width = 1240;
}
);
unicode = 0110;
},
{
glyphname = E;
lastChange = "2017-12-23 21:18:52 +0000";
layers = (
{
anchors = (
{
name = bottom;
position = "{620, 0}";
},
{
name = ogonek;
position = "{1116, 10}";
},
{
name = top;
position = "{650, 1171}";
},
{
name = topleft;
position = "{20, 1171}";
}
);
layerId = "840BD324-B0A6-42B0-BD23-CB5E8C19394F";
paths = (
{
closed = 1;
nodes = (
"1051 0 LINE SMOOTH",
"1084 0 OFFCURVE",
"1104 19 OFFCURVE",
"1107 53 CURVE SMOOTH",
"1127 323 LINE SMOOTH",
"1130 359 OFFCURVE",
"1106 375 OFFCURVE",
"1085 375 CURVE SMOOTH",
"1064 375 OFFCURVE",
"1044 360 OFFCURVE",
"1041 336 CURVE SMOOTH",
"1008 108 LINE SMOOTH",
"1007 99 OFFCURVE",
"1000 85 OFFCURVE",
"986 85 CURVE",
"410 85 LINE",
"410 577 LINE",
"736 577 LINE",
"749 429 LINE SMOOTH",
"751 401 OFFCURVE",
"770 386 OFFCURVE",
"789 386 CURVE SMOOTH",
"808 386 OFFCURVE",
"827 402 OFFCURVE",
"827 437 CURVE SMOOTH",
"827 779 LINE SMOOTH",
"827 816 OFFCURVE",
"808 832 OFFCURVE",
"789 832 CURVE SMOOTH",
"771 832 OFFCURVE",
"752 817 OFFCURVE",
"749 787 CURVE SMOOTH",
"736 654 LINE",
"410 654 LINE",
"410 1085 LINE",
"981 1085 LINE",
"992 1085 OFFCURVE",
"1001 1073 OFFCURVE",
"1003 1062 CURVE SMOOTH",
"1033 841 LINE SMOOTH",
"1036 816 OFFCURVE",
"1055 803 OFFCURVE",
"1075 803 CURVE SMOOTH",
"1095 803 OFFCURVE",
"1117 817 OFFCURVE",
"1115 847 CURVE SMOOTH",
"1095 1117 LINE SMOOTH",
"1092 1151 OFFCURVE",
"1072 1171 OFFCURVE",
"1039 1171 CURVE SMOOTH",
"181 1171 LINE SMOOTH",
"148 1171 OFFCURVE",
"131 1149 OFFCURVE",
"131 1127 CURVE SMOOTH",
"131 1106 OFFCURVE",
"147 1085 OFFCURVE",
"179 1085 CURVE SMOOTH",
"314 1085 LINE",
"314 85 LINE",
"144 85 LINE SMOOTH",
"111 85 OFFCURVE",
"94 64 OFFCURVE",
"94 43 CURVE SMOOTH",
"94 22 OFFCURVE",
"111 0 OFFCURVE",
"145 0 CURVE SMOOTH"
);
}
);
width = 1240;
},
{
anchors = (
{
name = bottom;
position = "{620, 0}";
},
{
name = ogonek;
position = "{1116, 10}";
},
{
name = top;
position = "{620, 1171}";
},
{
name = topleft;
position = "{20, 1171}";
}
);
layerId = "F2E12B84-E402-48AA-89E7-06534AE23493";
paths = (
{
closed = 1;
nodes = (
"1092 0 LINE SMOOTH",
"1125 0 OFFCURVE",
"1145 19 OFFCURVE",
"1148 53 CURVE SMOOTH",
"1167 297 LINE SMOOTH",
"1171 353 OFFCURVE",
"1138 395 OFFCURVE",
"1090 395 CURVE SMOOTH",
"1045 395 OFFCURVE",
"1006 370 OFFCURVE",
"996 320 CURVE SMOOTH",
"970 188 LINE SMOOTH",
"968 179 OFFCURVE",
"961 165 OFFCURVE",
"947 165 CURVE",
"511 165 LINE",
"511 533 LINE",
"677 533 LINE",
"710 429 LINE SMOOTH",
"719 402 OFFCURVE",
"751 386 OFFCURVE",
"780 386 CURVE SMOOTH",
"809 386 OFFCURVE",
"848 402 OFFCURVE",
"848 437 CURVE SMOOTH",
"848 779 LINE SMOOTH",
"848 816 OFFCURVE",
"809 832 OFFCURVE",
"780 832 CURVE SMOOTH",
"752 832 OFFCURVE",
"721 815 OFFCURVE",
"710 787 CURVE SMOOTH",
"677 699 LINE",
"511 699 LINE",
"511 1005 LINE",
"942 1005 LINE",
"953 1005 OFFCURVE",
"963 993 OFFCURVE",
"965 982 CURVE SMOOTH",
"988 856 LINE SMOOTH",
"997 808 OFFCURVE",
"1036 783 OFFCURVE",
"1081 783 CURVE SMOOTH",
"1126 783 OFFCURVE",
"1158 812 OFFCURVE",
"1154 872 CURVE SMOOTH",
"1136 1117 LINE SMOOTH",
"1134 1151 OFFCURVE",
"1113 1171 OFFCURVE",
"1080 1171 CURVE SMOOTH",
"202 1171 LINE SMOOTH",
"149 1171 OFFCURVE",
"112 1139 OFFCURVE",
"112 1090 CURVE SMOOTH",
"112 1041 OFFCURVE",
"148 1005 OFFCURVE",
"200 1005 CURVE SMOOTH",
"265 1005 LINE",
"265 165 LINE",
"165 165 LINE SMOOTH",
"112 165 OFFCURVE",
"75 129 OFFCURVE",
"75 83 CURVE SMOOTH",
"75 37 OFFCURVE",
"112 0 OFFCURVE",
"166 0 CURVE SMOOTH"
);
}
);
width = 1240;
},
{
anchors = (
{
name = bottom;
position = "{592, 0}";
},
{
name = ogonek;
position = "{1030, 10}";
},
{
name = top;
position = "{778, 1171}";
},
{
name = topleft;
position = "{158, 1171}";
}
);
layerId = "440824D2-40E3-4EBC-B94D-DAF81B1E7F5E";
paths = (
{
closed = 1;
nodes = (
"979 0 LINE SMOOTH",
"1012 0 OFFCURVE",
"1034 19 OFFCURVE",
"1044 53 CURVE SMOOTH",
"1110 330 LINE SMOOTH",
"1118 361 OFFCURVE",
"1096 375 OFFCURVE",
"1078 375 CURVE SMOOTH",
"1057 375 OFFCURVE",
"1035 360 OFFCURVE",
"1027 336 CURVE SMOOTH",
"955 108 LINE SMOOTH",
"952 99 OFFCURVE",
"943 85 OFFCURVE",
"929 85 CURVE",
"353 85 LINE",
"439 577 LINE",
"765 577 LINE",
"752 429 LINE SMOOTH",
"750 401 OFFCURVE",
"765 386 OFFCURVE",
"784 386 CURVE SMOOTH",
"803 386 OFFCURVE",
"825 402 OFFCURVE",
"831 437 CURVE SMOOTH",
"891 779 LINE SMOOTH",
"897 816 OFFCURVE",
"881 832 OFFCURVE",
"862 832 CURVE SMOOTH",
"844 832 OFFCURVE",
"822 817 OFFCURVE",
"814 787 CURVE SMOOTH",
"778 654 LINE",
"452 654 LINE",
"527 1085 LINE",
"1098 1085 LINE",
"1109 1085 OFFCURVE",
"1116 1073 OFFCURVE",
"1116 1062 CURVE SMOOTH",
"1108 841 LINE SMOOTH",
"1107 816 OFFCURVE",
"1123 803 OFFCURVE",
"1143 803 CURVE SMOOTH",
"1163 803 OFFCURVE",
"1188 817 OFFCURVE",
"1191 847 CURVE SMOOTH",
"1218 1117 LINE SMOOTH",
"1221 1151 OFFCURVE",
"1204 1171 OFFCURVE",
"1171 1171 CURVE SMOOTH",
"283 1171 LINE SMOOTH",
"250 1171 OFFCURVE",
"226 1149 OFFCURVE",
"226 1123 CURVE SMOOTH",
"226 1106 OFFCURVE",
"234 1085 OFFCURVE",
"266 1085 CURVE SMOOTH",
"431 1085 LINE",
"257 85 LINE",
"87 85 LINE SMOOTH",
"54 85 OFFCURVE",
"29 64 OFFCURVE",
"29 39 CURVE SMOOTH",
"29 22 OFFCURVE",
"39 0 OFFCURVE",
"73 0 CURVE SMOOTH"
);
}
);
width = 1240;
},
{
anchors = (
{
name = bottom;
position = "{552, 0}";
},
{
name = ogonek;
position = "{1084, -1}";
},
{
name = top;
position = "{758, 1171}";
},
{
name = topleft;
position = "{158, 1171}";
}
);
layerId = "2EAAA3E6-1429-4D6D-BAD7-A55486495AAE";
paths = (
{
closed = 1;
nodes = (
"1020 0 LINE SMOOTH",
"1053 0 OFFCURVE",
"1076 19 OFFCURVE",
"1085 53 CURVE SMOOTH",
"1147 297 LINE SMOOTH",
"1161 353 OFFCURVE",
"1135 395 OFFCURVE",
"1087 395 CURVE SMOOTH",
"1042 395 OFFCURVE",
"998 370 OFFCURVE",
"980 320 CURVE SMOOTH",
"931 188 LINE SMOOTH",
"928 179 OFFCURVE",
"918 165 OFFCURVE",
"904 165 CURVE SMOOTH",
"468 165 LINE",
"532 533 LINE",
"698 533 LINE",
"713 429 LINE SMOOTH",
"717 402 OFFCURVE",
"746 386 OFFCURVE",
"775 386 CURVE SMOOTH",
"804 386 OFFCURVE",
"846 402 OFFCURVE",
"852 437 CURVE SMOOTH",
"912 779 LINE SMOOTH",
"918 816 OFFCURVE",
"882 832 OFFCURVE",
"853 832 CURVE SMOOTH",
"825 832 OFFCURVE",
"790 815 OFFCURVE",
"775 787 CURVE SMOOTH",
"727 699 LINE",
"561 699 LINE",
"614 1005 LINE",
"1045 1005 LINE",
"1056 1005 OFFCURVE",
"1064 993 OFFCURVE",
"1064 982 CURVE SMOOTH",
"1065 856 LINE SMOOTH",
"1065 808 OFFCURVE",
"1100 783 OFFCURVE",
"1145 783 CURVE SMOOTH",
"1190 783 OFFCURVE",
"1228 812 OFFCURVE",
"1234 872 CURVE SMOOTH",
"1259 1117 LINE SMOOTH",
"1262 1151 OFFCURVE",
"1245 1171 OFFCURVE",
"1212 1171 CURVE SMOOTH",
"334 1171 LINE SMOOTH",
"274 1171 OFFCURVE",
"228 1129 OFFCURVE",
"228 1072 CURVE SMOOTH",
"229 1030 OFFCURVE",
"259 1005 OFFCURVE",
"303 1005 CURVE SMOOTH",
"368 1005 LINE",
"222 165 LINE",
"122 165 LINE SMOOTH",
"57 165 OFFCURVE",
"16 123 OFFCURVE",
"16 70 CURVE SMOOTH",
"15 30 OFFCURVE",
"45 0 OFFCURVE",
"94 0 CURVE SMOOTH"
);
}
);
width = 1240;
}
);
unicode = 0045;
},
{
glyphname = F;
lastChange = "2017-12-08 19:49:02 +0000";
layers = (
{
anchors = (
{
name = bottom;
position = "{620, 0}";
},
{
name = top;
position = "{620, 1171}";
}
);
layerId = "840BD324-B0A6-42B0-BD23-CB5E8C19394F";
paths = (
{
closed = 1;
nodes = (
"791 0 LINE SMOOTH",
"820 0 OFFCURVE",
"836 21 OFFCURVE",
"836 43 CURVE SMOOTH",
"836 64 OFFCURVE",
"821 85 OFFCURVE",
"790 85 CURVE SMOOTH",
"430 85 LINE",
"430 577 LINE",
"777 577 LINE",
"790 429 LINE SMOOTH",
"792 401 OFFCURVE",
"811 386 OFFCURVE",
"830 386 CURVE SMOOTH",
"849 386 OFFCURVE",
"868 402 OFFCURVE",
"868 437 CURVE SMOOTH",
"868 779 LINE SMOOTH",
"868 816 OFFCURVE",
"849 832 OFFCURVE",
"830 832 CURVE SMOOTH",
"812 832 OFFCURVE",
"793 817 OFFCURVE",
"790 787 CURVE SMOOTH",
"777 654 LINE",
"430 654 LINE",
"430 1085 LINE",
"1024 1085 LINE SMOOTH",
"1035 1085 OFFCURVE",
"1044 1073 OFFCURVE",
"1046 1062 CURVE",
"1076 841 LINE SMOOTH",
"1079 816 OFFCURVE",
"1098 803 OFFCURVE",
"1118 803 CURVE SMOOTH",
"1138 803 OFFCURVE",
"1160 817 OFFCURVE",
"1158 847 CURVE SMOOTH",
"1138 1117 LINE SMOOTH",
"1135 1151 OFFCURVE",
"1115 1171 OFFCURVE",
"1082 1171 CURVE SMOOTH",
"201 1171 LINE SMOOTH",
"168 1171 OFFCURVE",
"151 1149 OFFCURVE",
"151 1127 CURVE SMOOTH",
"151 1106 OFFCURVE",
"167 1085 OFFCURVE",
"199 1085 CURVE SMOOTH",
"334 1085 LINE",
"334 85 LINE",
"164 85 LINE SMOOTH",
"131 85 OFFCURVE",
"114 64 OFFCURVE",
"114 43 CURVE SMOOTH",
"114 22 OFFCURVE",
"131 0 OFFCURVE",
"165 0 CURVE SMOOTH"
);
}
);
width = 1240;
},
{
anchors = (
{
name = bottom;
position = "{620, 0}";
},
{
name = top;
position = "{620, 1171}";
}
);
layerId = "F2E12B84-E402-48AA-89E7-06534AE23493";
paths = (
{
closed = 1;
nodes = (
"788 0 LINE SMOOTH",
"845 0 OFFCURVE",
"868 40 OFFCURVE",
"868 80 CURVE SMOOTH",
"868 123 OFFCURVE",
"844 165 OFFCURVE",
"788 165 CURVE SMOOTH",
"521 165 LINE",
"521 533 LINE",
"687 533 LINE",
"720 429 LINE SMOOTH",
"729 402 OFFCURVE",
"761 386 OFFCURVE",
"790 386 CURVE SMOOTH",
"819 386 OFFCURVE",
"858 402 OFFCURVE",
"858 437 CURVE SMOOTH",
"858 779 LINE SMOOTH",
"858 816 OFFCURVE",
"819 832 OFFCURVE",
"790 832 CURVE SMOOTH",
"762 832 OFFCURVE",
"731 815 OFFCURVE",
"720 787 CURVE SMOOTH",
"687 699 LINE",
"521 699 LINE",
"521 1005 LINE",
"952 1005 LINE",
"963 1005 OFFCURVE",
"973 993 OFFCURVE",
"975 982 CURVE SMOOTH",
"998 856 LINE SMOOTH",
"1007 808 OFFCURVE",
"1046 783 OFFCURVE",
"1091 783 CURVE SMOOTH",
"1136 783 OFFCURVE",
"1168 812 OFFCURVE",
"1164 872 CURVE SMOOTH",
"1146 1117 LINE SMOOTH",
"1144 1151 OFFCURVE",
"1123 1171 OFFCURVE",
"1090 1171 CURVE SMOOTH",
"202 1171 LINE SMOOTH",
"159 1171 OFFCURVE",
"122 1139 OFFCURVE",
"122 1090 CURVE SMOOTH",
"122 1041 OFFCURVE",
"158 1005 OFFCURVE",
"200 1005 CURVE SMOOTH",
"275 1005 LINE",
"275 165 LINE",
"165 165 LINE SMOOTH",
"122 165 OFFCURVE",
"85 129 OFFCURVE",
"85 83 CURVE SMOOTH",
"85 37 OFFCURVE",
"122 0 OFFCURVE",
"166 0 CURVE SMOOTH"
);
}
);
width = 1240;
},
{
anchors = (
{
name = bottom;
position = "{552, 0}";
},
{
name = top;
position = "{758, 1171}";
}
);
layerId = "440824D2-40E3-4EBC-B94D-DAF81B1E7F5E";
paths = (
{
closed = 1;
nodes = (
"697 0 LINE SMOOTH",
"725 0 OFFCURVE",
"746 17 OFFCURVE",
"746 47 CURVE SMOOTH",
"746 69 OFFCURVE",
"725 85 OFFCURVE",
"697 85 CURVE SMOOTH",
"353 85 LINE",
"439 577 LINE",
"765 577 LINE",
"752 429 LINE SMOOTH",
"750 401 OFFCURVE",
"765 386 OFFCURVE",
"784 386 CURVE SMOOTH",
"803 386 OFFCURVE",
"825 402 OFFCURVE",
"831 437 CURVE SMOOTH",
"891 779 LINE SMOOTH",
"897 816 OFFCURVE",
"881 832 OFFCURVE",
"862 832 CURVE SMOOTH",
"844 832 OFFCURVE",
"822 817 OFFCURVE",
"814 787 CURVE SMOOTH",
"778 654 LINE",
"452 654 LINE",
"527 1085 LINE",
"1098 1085 LINE",
"1109 1085 OFFCURVE",
"1116 1073 OFFCURVE",
"1116 1062 CURVE SMOOTH",
"1108 841 LINE SMOOTH",
"1107 816 OFFCURVE",
"1123 803 OFFCURVE",
"1143 803 CURVE SMOOTH",
"1163 803 OFFCURVE",
"1188 817 OFFCURVE",
"1191 847 CURVE SMOOTH",
"1218 1117 LINE SMOOTH",
"1221 1151 OFFCURVE",
"1204 1171 OFFCURVE",
"1171 1171 CURVE SMOOTH",
"283 1171 LINE SMOOTH",
"250 1171 OFFCURVE",
"226 1149 OFFCURVE",
"226 1123 CURVE SMOOTH",
"226 1106 OFFCURVE",
"234 1085 OFFCURVE",
"266 1085 CURVE SMOOTH",
"431 1085 LINE",
"257 85 LINE",
"87 85 LINE SMOOTH",
"54 85 OFFCURVE",
"29 71 OFFCURVE",
"29 44 CURVE SMOOTH",
"29 22 OFFCURVE",
"39 0 OFFCURVE",
"73 0 CURVE SMOOTH"
);
}
);
width = 1240;
},
{
anchors = (
{
name = bottom;
position = "{552, 0}";
},
{
name = top;
position = "{758, 1171}";
}
);
layerId = "2EAAA3E6-1429-4D6D-BAD7-A55486495AAE";
paths = (
{
closed = 1;
nodes = (
"676 0 LINE SMOOTH",
"738 0 OFFCURVE",
"782 33 OFFCURVE",
"782 97 CURVE SMOOTH",
"782 135 OFFCURVE",
"763 165 OFFCURVE",
"715 165 CURVE SMOOTH",
"448 165 LINE",
"512 533 LINE",
"678 533 LINE",
"693 429 LINE SMOOTH",
"697 402 OFFCURVE",
"726 386 OFFCURVE",
"755 386 CURVE SMOOTH",
"784 386 OFFCURVE",
"826 402 OFFCURVE",
"832 437 CURVE SMOOTH",
"892 779 LINE SMOOTH",
"898 816 OFFCURVE",
"862 832 OFFCURVE",
"833 832 CURVE SMOOTH",
"805 832 OFFCURVE",
"771 815 OFFCURVE",
"755 787 CURVE SMOOTH",
"707 699 LINE",
"541 699 LINE",
"594 1005 LINE",
"1025 1005 LINE",
"1036 1005 OFFCURVE",
"1044 993 OFFCURVE",
"1044 982 CURVE SMOOTH",
"1045 856 LINE SMOOTH",
"1046 808 OFFCURVE",
"1080 783 OFFCURVE",
"1125 783 CURVE SMOOTH",
"1170 783 OFFCURVE",
"1208 812 OFFCURVE",
"1214 872 CURVE SMOOTH",
"1239 1117 LINE SMOOTH",
"1243 1151 OFFCURVE",
"1225 1171 OFFCURVE",
"1192 1171 CURVE SMOOTH",
"304 1171 LINE SMOOTH",
"245 1171 OFFCURVE",
"209 1130 OFFCURVE",
"209 1074 CURVE SMOOTH",
"209 1033 OFFCURVE",
"236 1005 OFFCURVE",
"273 1005 CURVE SMOOTH",
"348 1005 LINE",
"202 165 LINE",
"92 165 LINE SMOOTH",
"32 165 OFFCURVE",
"-4 119 OFFCURVE",
"-4 69 CURVE SMOOTH",
"-4 30 OFFCURVE",
"25 0 OFFCURVE",
"64 0 CURVE SMOOTH"
);
}
);
width = 1240;
}
);
unicode = 0046;
},
{
glyphname = G;
lastChange = "2017-12-30 17:01:17 +0000";
layers = (
{
anchors = (
{
name = bottom;
position = "{620, 0}";
},
{
name = top;
position = "{644, 1171}";
}
);
layerId = "840BD324-B0A6-42B0-BD23-CB5E8C19394F";
paths = (
{
closed = 1;
nodes = (
"844 -17 OFFCURVE",
"970 159 OFFCURVE",
"973 192 CURVE",
"973 367 LINE",
"972 272 OFFCURVE",
"835 69 OFFCURVE",
"607 69 CURVE SMOOTH",
"382 69 OFFCURVE",
"196 263 OFFCURVE",
"196 600 CURVE SMOOTH",
"196 890 OFFCURVE",
"343 1101 OFFCURVE",
"618 1101 CURVE SMOOTH",
"815 1101 OFFCURVE",
"937 957 OFFCURVE",
"972 837 CURVE SMOOTH",
"981 807 OFFCURVE",
"996 790 OFFCURVE",
"1020 790 CURVE SMOOTH",
"1043 790 OFFCURVE",
"1065 805 OFFCURVE",
"1063 837 CURVE SMOOTH",
"1043 1120 LINE SMOOTH",
"1041 1154 OFFCURVE",
"1022 1171 OFFCURVE",
"998 1171 CURVE SMOOTH",
"973 1171 OFFCURVE",
"948 1154 OFFCURVE",
"952 1121 CURVE SMOOTH",
"958 1075 OFFCURVE",
"964 1028 OFFCURVE",
"970 982 CURVE",
"923 1080 OFFCURVE",
"804 1187 OFFCURVE",
"615 1187 CURVE SMOOTH",
"307 1187 OFFCURVE",
"100 954 OFFCURVE",
"100 607 CURVE SMOOTH",
"100 225 OFFCURVE",
"308 -17 OFFCURVE",
"606 -17 CURVE SMOOTH"
);
},
{
closed = 1;
nodes = (
"1043 -8 OFFCURVE",
"1066 11 OFFCURVE",
"1066 49 CURVE SMOOTH",
"1066 470 LINE",
"1129 470 LINE SMOOTH",
"1163 470 OFFCURVE",
"1180 492 OFFCURVE",
"1180 514 CURVE SMOOTH",
"1180 535 OFFCURVE",
"1164 556 OFFCURVE",
"1131 556 CURVE SMOOTH",
"787 556 LINE SMOOTH",
"754 556 OFFCURVE",
"738 535 OFFCURVE",
"738 514 CURVE SMOOTH",
"738 492 OFFCURVE",
"755 470 OFFCURVE",
"788 470 CURVE SMOOTH",
"972 470 LINE",
"972 280 LINE",
"972 255 LINE",
"972 51 LINE SMOOTH",
"972 12 OFFCURVE",
"997 -8 OFFCURVE",
"1020 -8 CURVE SMOOTH"
);
}
);
width = 1240;
},
{
anchors = (
{
name = bottom;
position = "{620, 0}";
},
{
name = top;
position = "{620, 1171}";
}
);
layerId = "F2E12B84-E402-48AA-89E7-06534AE23493";
paths = (
{
closed = 1;
nodes = (
"824 -17 OFFCURVE",
"905 119 OFFCURVE",
"905 126 CURVE",
"883 325 LINE",
"883 255 OFFCURVE",
"775 159 OFFCURVE",
"657 159 CURVE SMOOTH",
"472 159 OFFCURVE",
"346 354 OFFCURVE",
"346 600 CURVE SMOOTH",
"346 800 OFFCURVE",
"463 1011 OFFCURVE",
"678 1011 CURVE SMOOTH",
"851 1011 OFFCURVE",
"936 931 OFFCURVE",
"968 845 CURVE SMOOTH",
"983 805 OFFCURVE",
"1011 780 OFFCURVE",
"1050 780 CURVE SMOOTH",
"1088 780 OFFCURVE",
"1136 803 OFFCURVE",
"1130 854 CURVE SMOOTH",
"1102 1100 LINE SMOOTH",
"1097 1140 OFFCURVE",
"1062 1187 OFFCURVE",
"1000 1187 CURVE SMOOTH",
"947 1187 OFFCURVE",
"908 1154 OFFCURVE",
"908 1114 CURVE SMOOTH",
"908 1103 OFFCURVE",
"914 1087 OFFCURVE",
"928 1054 CURVE",
"897 1090 OFFCURVE",
"820 1187 OFFCURVE",
"629 1187 CURVE SMOOTH",
"317 1187 OFFCURVE",
"100 944 OFFCURVE",
"100 607 CURVE SMOOTH",
"100 226 OFFCURVE",
"328 -17 OFFCURVE",
"626 -17 CURVE SMOOTH"
);
},
{
closed = 1;
nodes = (
"1053 -18 OFFCURVE",
"1096 11 OFFCURVE",
"1096 69 CURVE SMOOTH",
"1096 430 LINE",
"1139 430 LINE SMOOTH",
"1193 430 OFFCURVE",
"1210 472 OFFCURVE",
"1210 504 CURVE SMOOTH",
"1210 535 OFFCURVE",
"1192 576 OFFCURVE",
"1139 576 CURVE SMOOTH",
"747 576 LINE SMOOTH",
"702 576 OFFCURVE",
"678 535 OFFCURVE",
"678 504 CURVE SMOOTH",
"678 472 OFFCURVE",
"703 430 OFFCURVE",
"748 430 CURVE SMOOTH",
"882 430 LINE",
"882 233 LINE",
"902 144 LINE",
"902 71 LINE SMOOTH",
"902 12 OFFCURVE",
"957 -18 OFFCURVE",
"1000 -18 CURVE SMOOTH"
);
}
);
width = 1240;
},
{
anchors = (
{
name = bottom;
position = "{602, 0}";
},
{
name = top;
position = "{788, 1171}";
}
);
layerId = "440824D2-40E3-4EBC-B94D-DAF81B1E7F5E";
paths = (
{
closed = 1;
nodes = (
"836 -17 OFFCURVE",
"966 130 OFFCURVE",
"997 156 CURVE",
"1078 222 OFFCURVE",
"1014 310 OFFCURVE",
"994 283 CURVE",
"966 245 OFFCURVE",
"821 69 OFFCURVE",
"612 69 CURVE SMOOTH",
"422 69 OFFCURVE",
"266 222 OFFCURVE",
"266 492 CURVE SMOOTH",
"266 526 OFFCURVE",
"268 562 OFFCURVE",
"274 600 CURVE SMOOTH",
"318 880 OFFCURVE",
"502 1101 OFFCURVE",
"774 1101 CURVE SMOOTH",
"879 1101 OFFCURVE",
"986 1059 OFFCURVE",
"1042 995 CURVE",
"1057 893 OFFCURVE",
"1060 817 OFFCURVE",
"1108 817 CURVE SMOOTH",
"1149 817 OFFCURVE",
"1173 852 OFFCURVE",
"1173 897 CURVE SMOOTH",
"1173 1091 OFFCURVE",
"946 1187 OFFCURVE",
"787 1187 CURVE SMOOTH",
"479 1187 OFFCURVE",
"224 954 OFFCURVE",
"174 607 CURVE SMOOTH",
"168 565 OFFCURVE",
"165 524 OFFCURVE",
"165 486 CURVE SMOOTH",
"165 181 OFFCURVE",
"348 -17 OFFCURVE",
"599 -17 CURVE SMOOTH"
);
},
{
closed = 1;
nodes = (
"994 -8 OFFCURVE",
"1020 11 OFFCURVE",
"1027 49 CURVE SMOOTH",
"1100 470 LINE",
"1163 470 LINE SMOOTH",
"1197 470 OFFCURVE",
"1218 492 OFFCURVE",
"1222 514 CURVE SMOOTH",
"1226 535 OFFCURVE",
"1213 556 OFFCURVE",
"1180 556 CURVE SMOOTH",
"836 556 LINE SMOOTH",
"803 556 OFFCURVE",
"784 535 OFFCURVE",
"780 514 CURVE SMOOTH",
"776 492 OFFCURVE",
"789 470 OFFCURVE",
"822 470 CURVE SMOOTH",
"1006 470 LINE",
"973 280 LINE",
"969 255 LINE",
"933 51 LINE SMOOTH",
"926 12 OFFCURVE",
"948 -8 OFFCURVE",
"971 -8 CURVE SMOOTH"
);
}
);
width = 1240;
},
{
anchors = (
{
name = bottom;
position = "{552, 0}";
},
{
name = top;
position = "{758, 1171}";
}
);
layerId = "2EAAA3E6-1429-4D6D-BAD7-A55486495AAE";
paths = (
{
closed = 1;
nodes = (
"808 -17 OFFCURVE",
"904 159 OFFCURVE",
"913 211 CURVE",
"913 269 OFFCURVE",
"984 429 OFFCURVE",
"888 329 CURVE",
"847 267 OFFCURVE",
"775 159 OFFCURVE",
"599 159 CURVE SMOOTH",
"465 159 OFFCURVE",
"362 302 OFFCURVE",
"362 482 CURVE SMOOTH",
"362 526 OFFCURVE",
"365 562 OFFCURVE",
"370 600 CURVE SMOOTH",
"401 837 OFFCURVE",
"582 1021 OFFCURVE",
"764 1021 CURVE SMOOTH",
"859 1021 OFFCURVE",
"921 982 OFFCURVE",
"962 955 CURVE",
"977 833 OFFCURVE",
"990 747 OFFCURVE",
"1068 747 CURVE SMOOTH",
"1159 747 OFFCURVE",
"1188 832 OFFCURVE",
"1188 877 CURVE SMOOTH",
"1188 1091 OFFCURVE",
"976 1187 OFFCURVE",
"777 1187 CURVE SMOOTH",
"409 1187 OFFCURVE",
"174 944 OFFCURVE",
"124 607 CURVE SMOOTH",
"118 565 OFFCURVE",
"115 524 OFFCURVE",
"115 486 CURVE SMOOTH",
"116 191 OFFCURVE",
"298 -17 OFFCURVE",
"572 -17 CURVE SMOOTH"
);
},
{
closed = 1;
nodes = (
"1001 -18 OFFCURVE",
"1048 31 OFFCURVE",
"1061 99 CURVE SMOOTH",
"1122 430 LINE",
"1165 430 LINE SMOOTH",
"1219 430 OFFCURVE",
"1249 469 OFFCURVE",
"1249 512 CURVE SMOOTH",
"1249 543 OFFCURVE",
"1233 576 OFFCURVE",
"1191 576 CURVE SMOOTH",
"799 576 LINE SMOOTH",
"754 576 OFFCURVE",
"717 534 OFFCURVE",
"717 493 CURVE SMOOTH",
"717 461 OFFCURVE",
"729 430 OFFCURVE",
"774 430 CURVE SMOOTH",
"878 430 LINE",
"844 233 LINE",
"848 144 LINE",
"837 101 LINE SMOOTH",
"820 33 OFFCURVE",
"875 -18 OFFCURVE",
"935 -18 CURVE SMOOTH"
);
}
);
width = 1240;
}
);
unicode = 0047;
},
{
glyphname = H;
lastChange = "2017-12-03 19:17:05 +0000";
layers = (
{
anchors = (
{
name = bottom;
position = "{620, 0}";
},
{
name = center;
position = "{620, 586}";
},
{
name = top;
position = "{630, 1171}";
},
{
name = topleft;
position = "{20, 1171}";
}
);
layerId = "840BD324-B0A6-42B0-BD23-CB5E8C19394F";
paths = (
{
closed = 1;
nodes = (
"459 0 LINE SMOOTH",
"492 0 OFFCURVE",
"509 23 OFFCURVE",
"509 46 CURVE SMOOTH",
"509 66 OFFCURVE",
"493 86 OFFCURVE",
"461 86 CURVE SMOOTH",
"358 86 LINE",
"358 558 LINE",
"904 558 LINE",
"904 86 LINE",
"801 86 LINE SMOOTH",
"769 86 OFFCURVE",
"753 65 OFFCURVE",
"753 44 CURVE SMOOTH",
"753 22 OFFCURVE",
"770 0 OFFCURVE",
"803 0 CURVE SMOOTH",
"1097 0 LINE SMOOTH",
"1130 0 OFFCURVE",
"1147 22 OFFCURVE",
"1147 43 CURVE SMOOTH",
"1147 65 OFFCURVE",
"1130 86 OFFCURVE",
"1097 86 CURVE SMOOTH",
"997 86 LINE",
"997 1085 LINE",
"1097 1085 LINE SMOOTH",
"1130 1085 OFFCURVE",
"1147 1107 OFFCURVE",
"1147 1130 CURVE SMOOTH",
"1147 1150 OFFCURVE",
"1130 1171 OFFCURVE",
"1097 1171 CURVE SMOOTH",
"803 1171 LINE SMOOTH",
"770 1171 OFFCURVE",
"753 1149 OFFCURVE",
"753 1127 CURVE SMOOTH",
"753 1106 OFFCURVE",
"768 1085 OFFCURVE",
"801 1085 CURVE SMOOTH",
"904 1085 LINE",
"904 638 LINE",
"358 638 LINE",
"358 1085 LINE",
"461 1085 LINE SMOOTH",
"494 1085 OFFCURVE",
"509 1106 OFFCURVE",
"509 1127 CURVE SMOOTH",
"509 1149 OFFCURVE",
"492 1171 OFFCURVE",
"459 1171 CURVE SMOOTH",
"157 1171 LINE SMOOTH",
"124 1171 OFFCURVE",
"107 1149 OFFCURVE",
"107 1128 CURVE SMOOTH",
"107 1106 OFFCURVE",
"124 1085 OFFCURVE",
"157 1085 CURVE SMOOTH",
"265 1085 LINE",
"265 86 LINE",
"141 86 LINE SMOOTH",
"109 86 OFFCURVE",
"93 65 OFFCURVE",
"93 44 CURVE SMOOTH",
"93 22 OFFCURVE",
"110 0 OFFCURVE",
"143 0 CURVE SMOOTH"
);
}
);
width = 1240;
},
{
anchors = (
{
name = bottom;
position = "{620, 0}";
},
{
name = center;
position = "{620, 586}";
},
{
name = top;
position = "{620, 1171}";
},
{
name = topleft;
position = "{20, 1171}";
}
);
layerId = "F2E12B84-E402-48AA-89E7-06534AE23493";
paths = (
{
closed = 1;
nodes = (
"496 0 LINE SMOOTH",
"544 0 OFFCURVE",
"581 45 OFFCURVE",
"581 86 CURVE SMOOTH",
"581 129 OFFCURVE",
"546 172 OFFCURVE",
"498 172 CURVE SMOOTH",
"433 172 LINE",
"431 508 LINE",
"807 508 LINE",
"809 172 LINE",
"744 172 LINE SMOOTH",
"695 172 OFFCURVE",
"658 129 OFFCURVE",
"658 86 CURVE SMOOTH",
"658 45 OFFCURVE",
"695 0 OFFCURVE",
"744 0 CURVE SMOOTH",
"1108 0 LINE SMOOTH",
"1156 0 OFFCURVE",
"1193 45 OFFCURVE",
"1193 86 CURVE SMOOTH",
"1193 128 OFFCURVE",
"1156 172 OFFCURVE",
"1108 172 CURVE SMOOTH",
"1052 172 LINE",
"1050 999 LINE",
"1108 999 LINE SMOOTH",
"1156 999 OFFCURVE",
"1193 1044 OFFCURVE",
"1193 1087 CURVE SMOOTH",
"1193 1127 OFFCURVE",
"1156 1171 OFFCURVE",
"1108 1171 CURVE SMOOTH",
"743 1171 LINE SMOOTH",
"695 1171 OFFCURVE",
"658 1131 OFFCURVE",
"658 1084 CURVE SMOOTH",
"658 1037 OFFCURVE",
"693 999 OFFCURVE",
"741 999 CURVE SMOOTH",
"807 999 LINE",
"807 698 LINE",
"431 698 LINE",
"431 999 LINE",
"496 999 LINE SMOOTH",
"545 999 OFFCURVE",
"582 1037 OFFCURVE",
"582 1084 CURVE SMOOTH",
"582 1131 OFFCURVE",
"545 1171 OFFCURVE",
"496 1171 CURVE SMOOTH",
"132 1171 LINE SMOOTH",
"84 1171 OFFCURVE",
"47 1126 OFFCURVE",
"47 1085 CURVE SMOOTH",
"47 1043 OFFCURVE",
"84 999 OFFCURVE",
"132 999 CURVE SMOOTH",
"188 999 LINE",
"190 172 LINE",
"132 172 LINE SMOOTH",
"84 172 OFFCURVE",
"47 129 OFFCURVE",
"47 86 CURVE SMOOTH",
"47 46 OFFCURVE",
"84 0 OFFCURVE",
"132 0 CURVE SMOOTH"
);
}
);
width = 1240;
},
{
anchors = (
{
name = bottom;
position = "{552, 0}";
},
{
name = center;
position = "{655, 586}";
},
{
name = top;
position = "{758, 1171}";
},
{
name = topleft;
position = "{158, 1171}";
}
);
layerId = "440824D2-40E3-4EBC-B94D-DAF81B1E7F5E";
paths = (
{
closed = 1;
nodes = (
"399 0 LINE SMOOTH",
"432 0 OFFCURVE",
"449 23 OFFCURVE",
"449 46 CURVE SMOOTH",
"449 66 OFFCURVE",
"433 86 OFFCURVE",
"401 86 CURVE SMOOTH",
"298 86 LINE",
"378 558 LINE",
"924 558 LINE",
"844 86 LINE",
"741 86 LINE SMOOTH",
"709 86 OFFCURVE",
"693 65 OFFCURVE",
"693 44 CURVE SMOOTH",
"693 22 OFFCURVE",
"710 0 OFFCURVE",
"743 0 CURVE SMOOTH",
"1037 0 LINE SMOOTH",
"1070 0 OFFCURVE",
"1087 22 OFFCURVE",
"1087 43 CURVE SMOOTH",
"1087 65 OFFCURVE",
"1070 86 OFFCURVE",
"1037 86 CURVE SMOOTH",
"937 86 LINE",
"1113 1085 LINE",
"1203 1085 LINE SMOOTH",
"1236 1085 OFFCURVE",
"1253 1107 OFFCURVE",
"1253 1130 CURVE SMOOTH",
"1253 1150 OFFCURVE",
"1236 1171 OFFCURVE",
"1203 1171 CURVE SMOOTH",
"919 1171 LINE SMOOTH",
"886 1171 OFFCURVE",
"869 1149 OFFCURVE",
"869 1127 CURVE SMOOTH",
"869 1106 OFFCURVE",
"884 1085 OFFCURVE",
"917 1085 CURVE SMOOTH",
"1020 1085 LINE",
"937 638 LINE",
"392 638 LINE",
"474 1085 LINE",
"577 1085 LINE SMOOTH",
"610 1085 OFFCURVE",
"625 1106 OFFCURVE",
"625 1127 CURVE SMOOTH",
"625 1149 OFFCURVE",
"608 1171 OFFCURVE",
"575 1171 CURVE SMOOTH",
"273 1171 LINE SMOOTH",
"240 1171 OFFCURVE",
"223 1149 OFFCURVE",
"223 1128 CURVE SMOOTH",
"223 1106 OFFCURVE",
"240 1085 OFFCURVE",
"273 1085 CURVE SMOOTH",
"381 1085 LINE",
"205 86 LINE",
"91 86 LINE SMOOTH",
"59 86 OFFCURVE",
"43 65 OFFCURVE",
"43 44 CURVE SMOOTH",
"43 22 OFFCURVE",
"60 0 OFFCURVE",
"93 0 CURVE SMOOTH"
);
}
);
width = 1240;
},
{
anchors = (
{
name = bottom;
position = "{552, 0}";
},
{
name = center;
position = "{655, 586}";
},
{
name = top;
position = "{758, 1171}";
},
{
name = topleft;
position = "{158, 1171}";
}
);
layerId = "2EAAA3E6-1429-4D6D-BAD7-A55486495AAE";
paths = (
{
closed = 1;
nodes = (
"429 0 LINE SMOOTH",
"487 0 OFFCURVE",
"522 45 OFFCURVE",
"529 86 CURVE SMOOTH",
"536 129 OFFCURVE",
"509 172 OFFCURVE",
"461 172 CURVE SMOOTH",
"396 172 LINE",
"452 508 LINE",
"828 508 LINE",
"772 172 LINE",
"707 172 LINE SMOOTH",
"648 172 OFFCURVE",
"613 129 OFFCURVE",
"606 86 CURVE SMOOTH",
"599 45 OFFCURVE",
"628 0 OFFCURVE",
"677 0 CURVE SMOOTH",
"1041 0 LINE SMOOTH",
"1099 0 OFFCURVE",
"1134 45 OFFCURVE",
"1141 86 CURVE SMOOTH",
"1148 128 OFFCURVE",
"1119 172 OFFCURVE",
"1071 172 CURVE SMOOTH",
"1015 172 LINE",
"1157 999 LINE",
"1215 999 LINE SMOOTH",
"1273 999 OFFCURVE",
"1308 1044 OFFCURVE",
"1316 1087 CURVE SMOOTH",
"1323 1127 OFFCURVE",
"1293 1171 OFFCURVE",
"1245 1171 CURVE SMOOTH",
"880 1171 LINE SMOOTH",
"822 1171 OFFCURVE",
"788 1131 OFFCURVE",
"780 1084 CURVE SMOOTH",
"772 1037 OFFCURVE",
"800 999 OFFCURVE",
"848 999 CURVE SMOOTH",
"914 999 LINE",
"862 698 LINE",
"486 698 LINE",
"538 999 LINE",
"603 999 LINE SMOOTH",
"662 999 OFFCURVE",
"696 1037 OFFCURVE",
"704 1084 CURVE SMOOTH",
"712 1131 OFFCURVE",
"682 1171 OFFCURVE",
"633 1171 CURVE SMOOTH",
"269 1171 LINE SMOOTH",
"211 1171 OFFCURVE",
"176 1126 OFFCURVE",
"169 1085 CURVE SMOOTH",
"162 1043 OFFCURVE",
"191 999 OFFCURVE",
"239 999 CURVE SMOOTH",
"295 999 LINE",
"153 172 LINE",
"95 172 LINE SMOOTH",
"37 172 OFFCURVE",
"3 129 OFFCURVE",
"-5 86 CURVE SMOOTH",
"-12 46 OFFCURVE",
"17 0 OFFCURVE",
"65 0 CURVE SMOOTH"
);
}
);
width = 1240;
}
);
unicode = 0048;
},
{
glyphname = Hbar;
lastChange = "2017-12-26 01:44:46 +0000";
layers = (
{
components = (
{
name = H;
}
);
layerId = "840BD324-B0A6-42B0-BD23-CB5E8C19394F";
paths = (
{
closed = 1;
nodes = (
"1106 855 LINE SMOOTH",
"1139 855 OFFCURVE",
"1147 875 OFFCURVE",
"1147 894 CURVE SMOOTH",
"1147 913 OFFCURVE",
"1141 931 OFFCURVE",
"1108 931 CURVE SMOOTH",
"149 931 LINE SMOOTH",
"114 931 OFFCURVE",
"107 913 OFFCURVE",
"107 894 CURVE SMOOTH",
"107 875 OFFCURVE",
"116 855 OFFCURVE",
"153 855 CURVE SMOOTH"
);
}
);
width = 1240;
},
{
components = (
{
name = H;
}
);
layerId = "F2E12B84-E402-48AA-89E7-06534AE23493";
paths = (
{
closed = 1;
nodes = (
"1111 780 LINE",
"1167 780 OFFCURVE",
"1191 810 OFFCURVE",
"1191 849 CURVE SMOOTH",
"1191 888 OFFCURVE",
"1158 917 OFFCURVE",
"1112 917 CURVE",
"120 917 LINE",
"64 917 OFFCURVE",
"42 889 OFFCURVE",
"42 850 CURVE SMOOTH",
"42 810 OFFCURVE",
"66 780 OFFCURVE",
"122 780 CURVE"
);
}
);
width = 1240;
},
{
components = (
{
name = H;
}
);
layerId = "440824D2-40E3-4EBC-B94D-DAF81B1E7F5E";
paths = (
{
closed = 1;
nodes = (
"1170 854 LINE SMOOTH",
"1194 854 OFFCURVE",
"1216 872 OFFCURVE",
"1216 897 CURVE SMOOTH",
"1216 910 OFFCURVE",
"1211 929 OFFCURVE",
"1185 929 CURVE SMOOTH",
"221 929 LINE SMOOTH",
"196 929 OFFCURVE",
"174 910 OFFCURVE",
"174 887 CURVE SMOOTH",
"174 873 OFFCURVE",
"180 854 OFFCURVE",
"205 854 CURVE SMOOTH"
);
}
);
width = 1240;
},
{
components = (
{
name = H;
}
);
layerId = "2EAAA3E6-1429-4D6D-BAD7-A55486495AAE";
paths = (
{
closed = 1;
nodes = (
"1196 780 LINE",
"1252 780 OFFCURVE",
"1276 810 OFFCURVE",
"1276 849 CURVE SMOOTH",
"1276 888 OFFCURVE",
"1243 917 OFFCURVE",
"1197 917 CURVE",
"205 917 LINE",
"149 917 OFFCURVE",
"127 889 OFFCURVE",
"127 850 CURVE SMOOTH",
"127 810 OFFCURVE",
"151 780 OFFCURVE",
"207 780 CURVE"
);
}
);
width = 1240;
}
);
unicode = 0126;
},
{
glyphname = I;
lastChange = "2017-12-23 21:13:18 +0000";
layers = (
{
anchors = (
{
name = bottom;
position = "{620, 0}";
},
{
name = ogonek;
position = "{1116, 10}";
},
{
name = top;
position = "{670, 1171}";
},
{
name = topleft;
position = "{20, 1171}";
}
);
layerId = "840BD324-B0A6-42B0-BD23-CB5E8C19394F";
paths = (
{
closed = 1;
nodes = (
"995 0 LINE SMOOTH",
"1028 0 OFFCURVE",
"1045 21 OFFCURVE",
"1045 43 CURVE SMOOTH",
"1045 64 OFFCURVE",
"1029 86 OFFCURVE",
"996 86 CURVE SMOOTH",
"710 86 LINE",
"710 1085 LINE",
"996 1085 LINE SMOOTH",
"1029 1085 OFFCURVE",
"1045 1106 OFFCURVE",
"1045 1127 CURVE SMOOTH",
"1045 1149 OFFCURVE",
"1028 1171 OFFCURVE",
"995 1171 CURVE SMOOTH",
"310 1171 LINE SMOOTH",
"277 1171 OFFCURVE",
"259 1149 OFFCURVE",
"259 1127 CURVE SMOOTH",
"259 1106 OFFCURVE",
"276 1085 OFFCURVE",
"309 1085 CURVE SMOOTH",
"614 1085 LINE",
"614 86 LINE",
"309 86 LINE SMOOTH",
"276 86 OFFCURVE",
"259 64 OFFCURVE",
"259 43 CURVE SMOOTH",
"259 21 OFFCURVE",
"277 0 OFFCURVE",
"310 0 CURVE SMOOTH"
);
}
);
width = 1240;
},
{
anchors = (
{
name = bottom;
position = "{620, 0}";
},
{
name = ogonek;
position = "{1116, 10}";
},
{
name = top;
position = "{620, 1171}";
},
{
name = topleft;
position = "{20, 1171}";
}
);
layerId = "F2E12B84-E402-48AA-89E7-06534AE23493";
paths = (
{
closed = 1;
nodes = (
"963 0 LINE SMOOTH",
"1026 0 OFFCURVE",
"1053 46 OFFCURVE",
"1053 88 CURVE SMOOTH",
"1053 129 OFFCURVE",
"1027 176 OFFCURVE",
"964 176 CURVE SMOOTH",
"753 176 LINE",
"753 995 LINE",
"964 995 LINE SMOOTH",
"1017 995 OFFCURVE",
"1053 1041 OFFCURVE",
"1053 1082 CURVE SMOOTH",
"1053 1124 OFFCURVE",
"1016 1171 OFFCURVE",
"963 1171 CURVE SMOOTH",
"278 1171 LINE SMOOTH",
"215 1171 OFFCURVE",
"187 1124 OFFCURVE",
"187 1082 CURVE SMOOTH",
"187 1041 OFFCURVE",
"214 995 OFFCURVE",
"277 995 CURVE SMOOTH",
"507 995 LINE",
"507 176 LINE",
"277 176 LINE SMOOTH",
"214 176 OFFCURVE",
"187 129 OFFCURVE",
"187 88 CURVE SMOOTH",
"187 46 OFFCURVE",
"215 0 OFFCURVE",
"278 0 CURVE SMOOTH"
);
}
);
width = 1240;
},
{
anchors = (
{
name = bottom;
position = "{552, 0}";
},
{
name = ogonek;
position = "{628, 10}";
},
{
name = top;
position = "{758, 1171}";
},
{
name = topleft;
position = "{158, 1171}";
}
);
layerId = "440824D2-40E3-4EBC-B94D-DAF81B1E7F5E";
paths = (
{
closed = 1;
nodes = (
"896 0 LINE SMOOTH",
"929 0 OFFCURVE",
"953 19 OFFCURVE",
"953 41 CURVE SMOOTH",
"953 65 OFFCURVE",
"945 86 OFFCURVE",
"912 86 CURVE SMOOTH",
"626 86 LINE",
"800 1085 LINE",
"1086 1085 LINE SMOOTH",
"1119 1085 OFFCURVE",
"1143 1104 OFFCURVE",
"1143 1125 CURVE SMOOTH",
"1143 1150 OFFCURVE",
"1133 1171 OFFCURVE",
"1100 1171 CURVE SMOOTH",
"415 1171 LINE SMOOTH",
"382 1171 OFFCURVE",
"356 1150 OFFCURVE",
"357 1125 CURVE SMOOTH",
"358 1104 OFFCURVE",
"366 1085 OFFCURVE",
"399 1085 CURVE SMOOTH",
"704 1085 LINE",
"530 86 LINE",
"225 86 LINE SMOOTH",
"192 86 OFFCURVE",
"167 65 OFFCURVE",
"167 41 CURVE SMOOTH",
"167 19 OFFCURVE",
"178 0 OFFCURVE",
"211 0 CURVE SMOOTH"
);
}
);
width = 1240;
},
{
anchors = (
{
name = bottom;
position = "{552, 0}";
},
{
name = ogonek;
position = "{979, 7}";
},
{
name = top;
position = "{758, 1171}";
},
{
name = topleft;
position = "{158, 1171}";
}
);
layerId = "2EAAA3E6-1429-4D6D-BAD7-A55486495AAE";
paths = (
{
closed = 1;
nodes = (
"886 0 LINE SMOOTH",
"949 0 OFFCURVE",
"983 39 OFFCURVE",
"983 81 CURVE SMOOTH",
"983 125 OFFCURVE",
"965 176 OFFCURVE",
"892 176 CURVE SMOOTH",
"696 176 LINE",
"840 995 LINE",
"1036 995 LINE SMOOTH",
"1099 995 OFFCURVE",
"1133 1043 OFFCURVE",
"1133 1084 CURVE SMOOTH",
"1133 1129 OFFCURVE",
"1113 1171 OFFCURVE",
"1040 1171 CURVE SMOOTH",
"425 1171 LINE SMOOTH",
"362 1171 OFFCURVE",
"326 1125 OFFCURVE",
"327 1080 CURVE SMOOTH",
"328 1039 OFFCURVE",
"346 995 OFFCURVE",
"419 995 CURVE SMOOTH",
"594 995 LINE",
"450 176 LINE",
"255 176 LINE SMOOTH",
"192 176 OFFCURVE",
"157 125 OFFCURVE",
"157 81 CURVE SMOOTH",
"157 39 OFFCURVE",
"178 0 OFFCURVE",
"251 0 CURVE SMOOTH"
);
}
);
width = 1240;
}
);
unicode = 0049;
},
{
glyphname = IJ;
lastChange = "2017-12-25 22:50:00 +0000";
layers = (
{
layerId = "840BD324-B0A6-42B0-BD23-CB5E8C19394F";
paths = (
{
closed = 1;
nodes = (
"838 -19 OFFCURVE",
"961 146 OFFCURVE",
"961 431 CURVE SMOOTH",
"960 1085 LINE",
"1064 1085 LINE SMOOTH",
"1097 1085 OFFCURVE",
"1113 1107 OFFCURVE",
"1113 1128 CURVE SMOOTH",
"1113 1150 OFFCURVE",
"1096 1171 OFFCURVE",
"1063 1171 CURVE SMOOTH",
"760 1171 LINE SMOOTH",
"727 1171 OFFCURVE",
"709 1149 OFFCURVE",
"709 1127 CURVE SMOOTH",
"709 1106 OFFCURVE",
"726 1085 OFFCURVE",
"759 1085 CURVE SMOOTH",
"864 1085 LINE",
"865 428 LINE",
"865 198 OFFCURVE",
"768 64 OFFCURVE",
"601 64 CURVE SMOOTH",
"447 64 OFFCURVE",
"352 154 OFFCURVE",
"352 263 CURVE SMOOTH",
"352 294 OFFCURVE",
"330 311 OFFCURVE",
"304 311 CURVE SMOOTH",
"275 311 OFFCURVE",
"254 292 OFFCURVE",
"254 263 CURVE SMOOTH",
"254 101 OFFCURVE",
"384 -19 OFFCURVE",
"601 -19 CURVE SMOOTH"
);
},
{
closed = 1;
nodes = (
"558 430 LINE SMOOTH",
"591 430 OFFCURVE",
"608 451 OFFCURVE",
"608 473 CURVE SMOOTH",
"608 494 OFFCURVE",
"592 516 OFFCURVE",
"559 516 CURVE SMOOTH",
"428 516 LINE",
"428 1085 LINE",
"547 1085 LINE SMOOTH",
"580 1085 OFFCURVE",
"596 1107 OFFCURVE",
"596 1128 CURVE SMOOTH",
"596 1150 OFFCURVE",
"579 1171 OFFCURVE",
"546 1171 CURVE SMOOTH",
"218 1171 LINE SMOOTH",
"185 1171 OFFCURVE",
"167 1149 OFFCURVE",
"167 1127 CURVE SMOOTH",
"167 1106 OFFCURVE",
"184 1085 OFFCURVE",
"217 1085 CURVE SMOOTH",
"332 1085 LINE",
"332 516 LINE",
"217 516 LINE SMOOTH",
"184 516 OFFCURVE",
"167 494 OFFCURVE",
"167 473 CURVE SMOOTH",
"167 451 OFFCURVE",
"185 430 OFFCURVE",
"218 430 CURVE SMOOTH"
);
}
);
width = 1240;
},
{
layerId = "F2E12B84-E402-48AA-89E7-06534AE23493";
paths = (
{
closed = 1;
nodes = (
"873 -29 OFFCURVE",
"1017 116 OFFCURVE",
"1016 481 CURVE SMOOTH",
"1015 995 LINE",
"1049 995 LINE SMOOTH",
"1112 995 OFFCURVE",
"1138 1046 OFFCURVE",
"1138 1087 CURVE SMOOTH",
"1138 1129 OFFCURVE",
"1111 1171 OFFCURVE",
"1048 1171 CURVE SMOOTH",
"755 1171 LINE SMOOTH",
"692 1171 OFFCURVE",
"664 1129 OFFCURVE",
"664 1087 CURVE SMOOTH",
"664 1046 OFFCURVE",
"691 995 OFFCURVE",
"754 995 CURVE SMOOTH",
"789 995 LINE",
"790 478 LINE SMOOTH",
"790 268 OFFCURVE",
"743 154 OFFCURVE",
"626 154 CURVE SMOOTH",
"535 154 OFFCURVE",
"457 212 OFFCURVE",
"457 283 CURVE SMOOTH",
"457 354 OFFCURVE",
"395 386 OFFCURVE",
"349 386 CURVE SMOOTH",
"300 386 OFFCURVE",
"239 352 OFFCURVE",
"239 283 CURVE SMOOTH",
"239 102 OFFCURVE",
"386 -29 OFFCURVE",
"626 -29 CURVE SMOOTH"
);
},
{
closed = 1;
nodes = (
"503 450 LINE SMOOTH",
"566 450 OFFCURVE",
"593 501 OFFCURVE",
"593 543 CURVE SMOOTH",
"593 584 OFFCURVE",
"567 636 OFFCURVE",
"504 636 CURVE SMOOTH",
"453 636 LINE",
"453 995 LINE",
"492 995 LINE SMOOTH",
"555 995 OFFCURVE",
"581 1046 OFFCURVE",
"581 1088 CURVE SMOOTH",
"581 1130 OFFCURVE",
"554 1171 OFFCURVE",
"491 1171 CURVE SMOOTH",
"193 1171 LINE SMOOTH",
"130 1171 OFFCURVE",
"102 1129 OFFCURVE",
"102 1087 CURVE SMOOTH",
"102 1046 OFFCURVE",
"129 995 OFFCURVE",
"192 995 CURVE SMOOTH",
"227 995 LINE",
"227 636 LINE",
"192 636 LINE SMOOTH",
"129 636 OFFCURVE",
"102 584 OFFCURVE",
"102 543 CURVE SMOOTH",
"102 501 OFFCURVE",
"130 450 OFFCURVE",
"193 450 CURVE SMOOTH"
);
}
);
width = 1240;
},
{
layerId = "440824D2-40E3-4EBC-B94D-DAF81B1E7F5E";
paths = (
{
closed = 1;
nodes = (
"794 -19 OFFCURVE",
"927 146 OFFCURVE",
"976 431 CURVE SMOOTH",
"1089 1085 LINE",
"1193 1085 LINE SMOOTH",
"1226 1085 OFFCURVE",
"1249 1107 OFFCURVE",
"1249 1133 CURVE SMOOTH",
"1249 1150 OFFCURVE",
"1240 1171 OFFCURVE",
"1207 1171 CURVE SMOOTH",
"904 1171 LINE SMOOTH",
"871 1171 OFFCURVE",
"845 1152 OFFCURVE",
"845 1123 CURVE SMOOTH",
"845 1106 OFFCURVE",
"855 1085 OFFCURVE",
"888 1085 CURVE SMOOTH",
"993 1085 LINE",
"879 428 LINE",
"839 198 OFFCURVE",
"739 64 OFFCURVE",
"552 64 CURVE SMOOTH",
"394 64 OFFCURVE",
"338 120 OFFCURVE",
"338 273 CURVE SMOOTH",
"338 298 OFFCURVE",
"321 311 OFFCURVE",
"298 311 CURVE SMOOTH",
"261 311 OFFCURVE",
"251 268 OFFCURVE",
"251 213 CURVE SMOOTH",
"251 97 OFFCURVE",
"344 -19 OFFCURVE",
"547 -19 CURVE SMOOTH"
);
},
{
closed = 1;
nodes = (
"573 430 LINE SMOOTH",
"606 430 OFFCURVE",
"630 451 OFFCURVE",
"630 479 CURVE SMOOTH",
"630 495 OFFCURVE",
"622 516 OFFCURVE",
"589 516 CURVE SMOOTH",
"458 516 LINE",
"557 1085 LINE",
"676 1085 LINE SMOOTH",
"709 1085 OFFCURVE",
"732 1107 OFFCURVE",
"732 1133 CURVE SMOOTH",
"732 1150 OFFCURVE",
"723 1171 OFFCURVE",
"690 1171 CURVE SMOOTH",
"362 1171 LINE SMOOTH",
"329 1171 OFFCURVE",
"303 1149 OFFCURVE",
"303 1121 CURVE SMOOTH",
"303 1106 OFFCURVE",
"313 1085 OFFCURVE",
"346 1085 CURVE SMOOTH",
"461 1085 LINE",
"362 516 LINE",
"247 516 LINE SMOOTH",
"214 516 OFFCURVE",
"189 498 OFFCURVE",
"189 466 CURVE SMOOTH",
"189 451 OFFCURVE",
"200 430 OFFCURVE",
"233 430 CURVE SMOOTH"
);
}
);
width = 1240;
},
{
layerId = "2EAAA3E6-1429-4D6D-BAD7-A55486495AAE";
paths = (
{
closed = 1;
nodes = (
"821 -29 OFFCURVE",
"970 116 OFFCURVE",
"1034 481 CURVE SMOOTH",
"1124 995 LINE",
"1158 995 LINE SMOOTH",
"1221 995 OFFCURVE",
"1256 1046 OFFCURVE",
"1263 1087 CURVE SMOOTH",
"1270 1129 OFFCURVE",
"1251 1171 OFFCURVE",
"1188 1171 CURVE SMOOTH",
"895 1171 LINE SMOOTH",
"832 1171 OFFCURVE",
"796 1129 OFFCURVE",
"789 1087 CURVE SMOOTH",
"782 1046 OFFCURVE",
"800 995 OFFCURVE",
"863 995 CURVE SMOOTH",
"898 995 LINE",
"808 478 LINE SMOOTH",
"771 268 OFFCURVE",
"703 154 OFFCURVE",
"586 154 CURVE SMOOTH",
"485 154 OFFCURVE",
"440 211 OFFCURVE",
"440 269 CURVE SMOOTH",
"440 351 OFFCURVE",
"396 386 OFFCURVE",
"334 386 CURVE SMOOTH",
"272 386 OFFCURVE",
"222 343 OFFCURVE",
"222 273 CURVE SMOOTH",
"222 122 OFFCURVE",
"314 -29 OFFCURVE",
"584 -29 CURVE SMOOTH"
);
},
{
closed = 1;
nodes = (
"516 450 LINE SMOOTH",
"579 450 OFFCURVE",
"615 501 OFFCURVE",
"622 543 CURVE SMOOTH",
"629 584 OFFCURVE",
"612 636 OFFCURVE",
"549 636 CURVE SMOOTH",
"498 636 LINE",
"562 995 LINE",
"601 995 LINE SMOOTH",
"664 995 OFFCURVE",
"699 1046 OFFCURVE",
"706 1088 CURVE SMOOTH",
"713 1130 OFFCURVE",
"694 1171 OFFCURVE",
"631 1171 CURVE SMOOTH",
"333 1171 LINE SMOOTH",
"270 1171 OFFCURVE",
"234 1129 OFFCURVE",
"227 1087 CURVE SMOOTH",
"220 1046 OFFCURVE",
"238 995 OFFCURVE",
"301 995 CURVE SMOOTH",
"336 995 LINE",
"272 636 LINE",
"237 636 LINE SMOOTH",
"174 636 OFFCURVE",
"138 584 OFFCURVE",
"131 543 CURVE SMOOTH",
"124 501 OFFCURVE",
"143 450 OFFCURVE",
"206 450 CURVE SMOOTH"
);
}
);
width = 1240;
}
);
unicode = 0132;
},
{
glyphname = J;
lastChange = "2017-12-26 02:17:47 +0000";
layers = (
{
anchors = (
{
name = bottom;
position = "{620, 0}";
},
{
name = top;
position = "{730, 1171}";
}
);
layerId = "840BD324-B0A6-42B0-BD23-CB5E8C19394F";
paths = (
{
closed = 1;
nodes = (
"752 -13 OFFCURVE",
"865 142 OFFCURVE",
"865 387 CURVE SMOOTH",
"865 1085 LINE",
"1036 1085 LINE SMOOTH",
"1069 1085 OFFCURVE",
"1085 1107 OFFCURVE",
"1085 1128 CURVE SMOOTH",
"1085 1150 OFFCURVE",
"1068 1171 OFFCURVE",
"1035 1171 CURVE SMOOTH",
"400 1171 LINE SMOOTH",
"367 1171 OFFCURVE",
"351 1149 OFFCURVE",
"351 1127 CURVE SMOOTH",
"351 1106 OFFCURVE",
"367 1085 OFFCURVE",
"399 1085 CURVE SMOOTH",
"769 1085 LINE",
"769 384 LINE SMOOTH",
"769 194 OFFCURVE",
"682 70 OFFCURVE",
"500 70 CURVE SMOOTH",
"341 70 OFFCURVE",
"246 160 OFFCURVE",
"246 320 CURVE SMOOTH",
"246 352 OFFCURVE",
"224 368 OFFCURVE",
"198 368 CURVE SMOOTH",
"169 368 OFFCURVE",
"148 349 OFFCURVE",
"148 320 CURVE SMOOTH",
"148 107 OFFCURVE",
"278 -13 OFFCURVE",
"500 -13 CURVE SMOOTH"
);
}
);
width = 1240;
},
{
anchors = (
{
name = bottom;
position = "{620, 0}";
},
{
name = top;
position = "{840, 1171}";
}
);
layerId = "F2E12B84-E402-48AA-89E7-06534AE23493";
paths = (
{
closed = 1;
nodes = (
"802 -13 OFFCURVE",
"965 142 OFFCURVE",
"965 417 CURVE SMOOTH",
"965 995 LINE",
"1040 995 LINE SMOOTH",
"1103 995 OFFCURVE",
"1135 1037 OFFCURVE",
"1135 1083 CURVE SMOOTH",
"1135 1125 OFFCURVE",
"1102 1171 OFFCURVE",
"1039 1171 CURVE SMOOTH",
"416 1171 LINE SMOOTH",
"353 1171 OFFCURVE",
"321 1124 OFFCURVE",
"321 1082 CURVE SMOOTH",
"321 1036 OFFCURVE",
"353 995 OFFCURVE",
"415 995 CURVE SMOOTH",
"719 995 LINE",
"719 424 LINE SMOOTH",
"719 264 OFFCURVE",
"653 170 OFFCURVE",
"530 170 CURVE SMOOTH",
"441 170 OFFCURVE",
"356 222 OFFCURVE",
"356 320 CURVE SMOOTH",
"356 392 OFFCURVE",
"304 428 OFFCURVE",
"248 428 CURVE SMOOTH",
"189 428 OFFCURVE",
"138 389 OFFCURVE",
"138 320 CURVE SMOOTH",
"138 127 OFFCURVE",
"298 -13 OFFCURVE",
"530 -13 CURVE SMOOTH"
);
}
);
width = 1240;
},
{
anchors = (
{
name = bottom;
position = "{552, 0}";
},
{
name = top;
position = "{858, 1181}";
}
);
layerId = "440824D2-40E3-4EBC-B94D-DAF81B1E7F5E";
paths = (
{
closed = 1;
nodes = (
"684 -13 OFFCURVE",
"823 142 OFFCURVE",
"866 387 CURVE SMOOTH",
"988 1085 LINE",
"1159 1085 LINE SMOOTH",
"1192 1085 OFFCURVE",
"1212 1107 OFFCURVE",
"1216 1128 CURVE SMOOTH",
"1220 1150 OFFCURVE",
"1206 1171 OFFCURVE",
"1173 1171 CURVE SMOOTH",
"538 1171 LINE SMOOTH",
"505 1171 OFFCURVE",
"486 1149 OFFCURVE",
"482 1127 CURVE SMOOTH",
"478 1106 OFFCURVE",
"490 1085 OFFCURVE",
"522 1085 CURVE SMOOTH",
"892 1085 LINE",
"770 384 LINE SMOOTH",
"737 194 OFFCURVE",
"628 70 OFFCURVE",
"466 70 CURVE SMOOTH",
"287 70 OFFCURVE",
"217 160 OFFCURVE",
"236 320 CURVE SMOOTH",
"240 352 OFFCURVE",
"222 368 OFFCURVE",
"196 368 CURVE SMOOTH",
"167 368 OFFCURVE",
"141 355 OFFCURVE",
"138 320 CURVE SMOOTH",
"121 118 OFFCURVE",
"230 -13 OFFCURVE",
"466 -13 CURVE SMOOTH"
);
}
);
width = 1240;
},
{
anchors = (
{
name = bottom;
position = "{552, 0}";
},
{
name = top;
position = "{939, 1171}";
}
);
layerId = "2EAAA3E6-1429-4D6D-BAD7-A55486495AAE";
paths = (
{
closed = 1;
nodes = (
"739 -13 OFFCURVE",
"911 98 OFFCURVE",
"958 367 CURVE SMOOTH",
"1068 995 LINE",
"1143 995 LINE SMOOTH",
"1206 995 OFFCURVE",
"1253 1043 OFFCURVE",
"1253 1095 CURVE SMOOTH",
"1253 1131 OFFCURVE",
"1225 1171 OFFCURVE",
"1152 1171 CURVE SMOOTH",
"549 1171 LINE SMOOTH",
"486 1171 OFFCURVE",
"439 1119 OFFCURVE",
"439 1072 CURVE SMOOTH",
"439 1031 OFFCURVE",
"466 995 OFFCURVE",
"538 995 CURVE SMOOTH",
"822 995 LINE",
"722 424 LINE SMOOTH",
"694 264 OFFCURVE",
"612 170 OFFCURVE",
"489 170 CURVE SMOOTH",
"398 170 OFFCURVE",
"343 233 OFFCURVE",
"344 311 CURVE SMOOTH",
"345 393 OFFCURVE",
"302 428 OFFCURVE",
"252 428 CURVE SMOOTH",
"165 428 OFFCURVE",
"118 357 OFFCURVE",
"118 264 CURVE SMOOTH",
"118 100 OFFCURVE",
"258 -13 OFFCURVE",
"477 -13 CURVE SMOOTH"
);
}
);
width = 1240;
}
);
unicode = 004A;
},
{
glyphname = K;
lastChange = "2017-12-30 19:38:48 +0000";
layers = (
{
anchors = (
{
name = bottom;
position = "{650, 0}";
},
{
name = top;
position = "{620, 1171}";
}
);
layerId = "840BD324-B0A6-42B0-BD23-CB5E8C19394F";
paths = (
{
closed = 1;
nodes = (
"519 0 LINE SMOOTH",
"552 0 OFFCURVE",
"569 21 OFFCURVE",
"569 43 CURVE SMOOTH",
"569 64 OFFCURVE",
"553 86 OFFCURVE",
"520 86 CURVE SMOOTH",
"362 86 LINE",
"362 405 LINE",
"1029 1085 LINE",
"1157 1085 LINE SMOOTH",
"1189 1085 OFFCURVE",
"1205 1105 OFFCURVE",
"1205 1127 CURVE SMOOTH",
"1205 1149 OFFCURVE",
"1189 1171 OFFCURVE",
"1156 1171 CURVE SMOOTH",
"794 1171 LINE SMOOTH",
"762 1171 OFFCURVE",
"744 1147 OFFCURVE",
"744 1127 CURVE SMOOTH",
"744 1108 OFFCURVE",
"760 1085 OFFCURVE",
"793 1085 CURVE",
"911 1085 LINE",
"358 519 LINE",
"358 1084 LINE",
"521 1084 LINE SMOOTH",
"554 1084 OFFCURVE",
"569 1105 OFFCURVE",
"569 1126 CURVE SMOOTH",
"569 1148 OFFCURVE",
"552 1171 OFFCURVE",
"519 1171 CURVE SMOOTH",
"94 1171 LINE SMOOTH",
"60 1171 OFFCURVE",
"43 1149 OFFCURVE",
"43 1127 CURVE SMOOTH",
"43 1105 OFFCURVE",
"60 1084 OFFCURVE",
"93 1084 CURVE SMOOTH",
"262 1084 LINE",
"262 86 LINE",
"93 86 LINE SMOOTH",
"60 86 OFFCURVE",
"43 64 OFFCURVE",
"43 43 CURVE SMOOTH",
"43 21 OFFCURVE",
"60 0 OFFCURVE",
"94 0 CURVE SMOOTH"
);
},
{
closed = 1;
nodes = (
"1158 0 LINE SMOOTH",
"1191 0 OFFCURVE",
"1207 21 OFFCURVE",
"1207 43 CURVE SMOOTH",
"1207 64 OFFCURVE",
"1191 86 OFFCURVE",
"1159 86 CURVE SMOOTH",
"1072 86 LINE",
"611 676 LINE",
"537 621 LINE",
"955 86 LINE",
"779 86 LINE SMOOTH",
"746 86 OFFCURVE",
"730 64 OFFCURVE",
"730 43 CURVE SMOOTH",
"730 21 OFFCURVE",
"747 0 OFFCURVE",
"780 0 CURVE SMOOTH"
);
}
);
width = 1240;
},
{
anchors = (
{
name = bottom;
position = "{630, 0}";
},
{
name = top;
position = "{620, 1171}";
}
);
layerId = "F2E12B84-E402-48AA-89E7-06534AE23493";
paths = (
{
closed = 1;
nodes = (
"509 0 LINE SMOOTH",
"572 0 OFFCURVE",
"599 46 OFFCURVE",
"599 88 CURVE SMOOTH",
"599 129 OFFCURVE",
"573 176 OFFCURVE",
"510 176 CURVE SMOOTH",
"432 176 LINE",
"432 365 LINE",
"1067 995 LINE",
"1127 995 LINE SMOOTH",
"1189 995 OFFCURVE",
"1215 1040 OFFCURVE",
"1215 1082 CURVE SMOOTH",
"1215 1124 OFFCURVE",
"1189 1171 OFFCURVE",
"1126 1171 CURVE SMOOTH",
"764 1171 LINE SMOOTH",
"702 1171 OFFCURVE",
"674 1122 OFFCURVE",
"674 1082 CURVE SMOOTH",
"674 1043 OFFCURVE",
"700 995 OFFCURVE",
"763 995 CURVE SMOOTH",
"821 995 LINE",
"428 609 LINE",
"428 994 LINE",
"521 994 LINE SMOOTH",
"584 994 OFFCURVE",
"609 1040 OFFCURVE",
"609 1081 CURVE SMOOTH",
"609 1123 OFFCURVE",
"582 1171 OFFCURVE",
"519 1171 CURVE SMOOTH",
"134 1171 LINE SMOOTH",
"70 1171 OFFCURVE",
"43 1124 OFFCURVE",
"43 1082 CURVE SMOOTH",
"43 1040 OFFCURVE",
"70 994 OFFCURVE",
"133 994 CURVE SMOOTH",
"182 994 LINE",
"182 176 LINE",
"133 176 LINE SMOOTH",
"70 176 OFFCURVE",
"43 129 OFFCURVE",
"43 88 CURVE SMOOTH",
"43 46 OFFCURVE",
"70 0 OFFCURVE",
"134 0 CURVE SMOOTH"
);
},
{
closed = 1;
nodes = (
"1136 0 LINE SMOOTH",
"1199 0 OFFCURVE",
"1225 46 OFFCURVE",
"1225 88 CURVE SMOOTH",
"1225 129 OFFCURVE",
"1199 176 OFFCURVE",
"1137 176 CURVE SMOOTH",
"1082 176 LINE",
"714 698 LINE",
"533 591 LINE",
"835 176 LINE",
"759 176 LINE SMOOTH",
"696 176 OFFCURVE",
"670 129 OFFCURVE",
"670 88 CURVE SMOOTH",
"670 46 OFFCURVE",
"697 0 OFFCURVE",
"760 0 CURVE SMOOTH"
);
}
);
width = 1240;
},
{
anchors = (
{
name = bottom;
position = "{602, 0}";
},
{
name = top;
position = "{758, 1171}";
}
);
layerId = "440824D2-40E3-4EBC-B94D-DAF81B1E7F5E";
paths = (
{
closed = 1;
nodes = (
"452 0 LINE SMOOTH",
"485 0 OFFCURVE",
"505 21 OFFCURVE",
"509 43 CURVE SMOOTH",
"513 64 OFFCURVE",
"501 86 OFFCURVE",
"468 86 CURVE SMOOTH",
"310 86 LINE",
"379 466 LINE",
"767 598 OFFCURVE",
"1000 806 OFFCURVE",
"1161 1084 CURVE",
"1253 1084 LINE SMOOTH",
"1286 1084 OFFCURVE",
"1305 1105 OFFCURVE",
"1308 1126 CURVE SMOOTH",
"1311 1148 OFFCURVE",
"1299 1171 OFFCURVE",
"1266 1171 CURVE SMOOTH",
"971 1171 LINE SMOOTH",
"937 1171 OFFCURVE",
"916 1149 OFFCURVE",
"913 1127 CURVE SMOOTH",
"910 1105 OFFCURVE",
"922 1084 OFFCURVE",
"955 1084 CURVE SMOOTH",
"1051 1084 LINE",
"930 877 OFFCURVE",
"692 667 OFFCURVE",
"392 566 CURVE",
"480 1084 LINE",
"643 1084 LINE SMOOTH",
"676 1084 OFFCURVE",
"695 1105 OFFCURVE",
"698 1126 CURVE SMOOTH",
"701 1148 OFFCURVE",
"689 1171 OFFCURVE",
"656 1171 CURVE SMOOTH",
"231 1171 LINE SMOOTH",
"197 1171 OFFCURVE",
"176 1149 OFFCURVE",
"173 1127 CURVE SMOOTH",
"170 1105 OFFCURVE",
"182 1084 OFFCURVE",
"215 1084 CURVE SMOOTH",
"384 1084 LINE",
"210 86 LINE",
"41 86 LINE SMOOTH",
"8 86 OFFCURVE",
"-13 64 OFFCURVE",
"-17 43 CURVE SMOOTH",
"-21 21 OFFCURVE",
"-7 0 OFFCURVE",
"27 0 CURVE SMOOTH"
);
},
{
closed = 1;
nodes = (
"1019 -7 OFFCURVE",
"1056 10 OFFCURVE",
"1082 34 CURVE SMOOTH",
"1112 60 OFFCURVE",
"1129 93 OFFCURVE",
"1129 118 CURVE SMOOTH",
"1129 144 OFFCURVE",
"1116 164 OFFCURVE",
"1093 164 CURVE SMOOTH",
"1037 164 OFFCURVE",
"1045 83 OFFCURVE",
"977 83 CURVE",
"919 83 OFFCURVE",
"896 140 OFFCURVE",
"868 186 CURVE SMOOTH",
"604 618 LINE",
"532 581 LINE",
"815 100 LINE SMOOTH",
"848 44 OFFCURVE",
"900 -7 OFFCURVE",
"977 -7 CURVE SMOOTH"
);
}
);
width = 1240;
},
{
anchors = (
{
name = bottom;
position = "{612, 0}";
},
{
name = top;
position = "{758, 1171}";
}
);
layerId = "2EAAA3E6-1429-4D6D-BAD7-A55486495AAE";
paths = (
{
closed = 1;
nodes = (
"407 0 LINE SMOOTH",
"470 0 OFFCURVE",
"505 46 OFFCURVE",
"512 88 CURVE SMOOTH",
"519 129 OFFCURVE",
"501 176 OFFCURVE",
"438 176 CURVE SMOOTH",
"360 176 LINE",
"408 424 LINE",
"732 550 OFFCURVE",
"909 674 OFFCURVE",
"1139 995 CURVE",
"1189 995 LINE SMOOTH",
"1251 995 OFFCURVE",
"1284 1040 OFFCURVE",
"1292 1082 CURVE SMOOTH",
"1300 1124 OFFCURVE",
"1281 1171 OFFCURVE",
"1218 1171 CURVE SMOOTH",
"876 1171 LINE SMOOTH",
"814 1171 OFFCURVE",
"778 1122 OFFCURVE",
"771 1082 CURVE SMOOTH",
"764 1043 OFFCURVE",
"782 995 OFFCURVE",
"845 995 CURVE SMOOTH",
"903 995 LINE",
"768 806 OFFCURVE",
"617 705 OFFCURVE",
"438 639 CURVE",
"499 994 LINE",
"592 994 LINE SMOOTH",
"655 994 OFFCURVE",
"688 1040 OFFCURVE",
"696 1081 CURVE SMOOTH",
"703 1123 OFFCURVE",
"684 1171 OFFCURVE",
"621 1171 CURVE SMOOTH",
"236 1171 LINE SMOOTH",
"172 1171 OFFCURVE",
"137 1124 OFFCURVE",
"130 1082 CURVE SMOOTH",
"122 1040 OFFCURVE",
"141 994 OFFCURVE",
"204 994 CURVE SMOOTH",
"253 994 LINE",
"110 176 LINE",
"61 176 LINE SMOOTH",
"-2 176 OFFCURVE",
"-37 129 OFFCURVE",
"-44 88 CURVE SMOOTH",
"-51 46 OFFCURVE",
"-32 0 OFFCURVE",
"32 0 CURVE SMOOTH"
);
},
{
closed = 1;
nodes = (
"1007 -7 OFFCURVE",
"1068 28 OFFCURVE",
"1112 82 CURVE SMOOTH",
"1138 114 OFFCURVE",
"1154 153 OFFCURVE",
"1155 196 CURVE SMOOTH",
"1156 240 OFFCURVE",
"1124 269 OFFCURVE",
"1090 269 CURVE SMOOTH",
"1050 269 OFFCURVE",
"1013 228 OFFCURVE",
"976 191 CURVE",
"955 191 OFFCURVE",
"937 215 OFFCURVE",
"926 232 CURVE SMOOTH",
"694 608 LINE",
"462 581 LINE",
"714 154 LINE SMOOTH",
"752 90 OFFCURVE",
"816 -7 OFFCURVE",
"934 -7 CURVE SMOOTH"
);
}
);
width = 1240;
}
);
unicode = 004B;
},
{
glyphname = L;
lastChange = "2017-12-26 02:58:43 +0000";
layers = (
{
anchors = (
{
name = bottom;
position = "{708, -175}";
},
{
name = center;
position = "{620, 586}";
},
{
name = top;
position = "{440, 1171}";
},
{
name = topright;
position = "{1074, 774}";
}
);
layerId = "840BD324-B0A6-42B0-BD23-CB5E8C19394F";
paths = (
{
closed = 1;
nodes = (
"1048 0 LINE SMOOTH",
"1091 0 OFFCURVE",
"1115 29 OFFCURVE",
"1120 66 CURVE",
"1150 387 LINE",
"1150 393 LINE SMOOTH",
"1150 425 OFFCURVE",
"1127 442 OFFCURVE",
"1101 442 CURVE SMOOTH",
"1078 442 OFFCURVE",
"1057 428 OFFCURVE",
"1053 399 CURVE SMOOTH",
"1019 123 LINE SMOOTH",
"1015 92 OFFCURVE",
"998 88 OFFCURVE",
"976 86 CURVE",
"489 86 LINE",
"489 1085 LINE",
"641 1085 LINE SMOOTH",
"674 1085 OFFCURVE",
"691 1106 OFFCURVE",
"691 1127 CURVE SMOOTH",
"691 1149 OFFCURVE",
"674 1171 OFFCURVE",
"640 1171 CURVE SMOOTH",
"167 1171 LINE SMOOTH",
"134 1171 OFFCURVE",
"117 1149 OFFCURVE",
"117 1127 CURVE SMOOTH",
"117 1106 OFFCURVE",
"133 1085 OFFCURVE",
"166 1085 CURVE SMOOTH",
"393 1085 LINE",
"393 86 LINE",
"124 86 LINE SMOOTH",
"91 86 OFFCURVE",
"74 64 OFFCURVE",
"74 43 CURVE SMOOTH",
"74 21 OFFCURVE",
"91 0 OFFCURVE",
"125 0 CURVE SMOOTH"
);
}
);
width = 1240;
},
{
anchors = (
{
name = bottom;
position = "{620, 0}";
},
{
name = center;
position = "{620, 586}";
},
{
name = top;
position = "{620, 1171}";
},
{
name = topright;
position = "{1130, 651}";
}
);
layerId = "F2E12B84-E402-48AA-89E7-06534AE23493";
paths = (
{
closed = 1;
nodes = (
"1048 0 LINE SMOOTH",
"1101 0 OFFCURVE",
"1135 29 OFFCURVE",
"1140 86 CURVE",
"1170 447 LINE",
"1170 453 LINE SMOOTH",
"1170 525 OFFCURVE",
"1117 552 OFFCURVE",
"1071 552 CURVE SMOOTH",
"1028 552 OFFCURVE",
"978 528 OFFCURVE",
"969 459 CURVE SMOOTH",
"939 213 LINE SMOOTH",
"935 182 OFFCURVE",
"918 178 OFFCURVE",
"896 176 CURVE",
"539 176 LINE",
"539 995 LINE",
"621 995 LINE SMOOTH",
"684 995 OFFCURVE",
"711 1041 OFFCURVE",
"711 1082 CURVE SMOOTH",
"711 1124 OFFCURVE",
"684 1171 OFFCURVE",
"620 1171 CURVE SMOOTH",
"197 1171 LINE SMOOTH",
"134 1171 OFFCURVE",
"107 1124 OFFCURVE",
"107 1082 CURVE SMOOTH",
"107 1041 OFFCURVE",
"133 995 OFFCURVE",
"196 995 CURVE SMOOTH",
"293 995 LINE",
"293 176 LINE",
"154 176 LINE SMOOTH",
"91 176 OFFCURVE",
"64 129 OFFCURVE",
"64 88 CURVE SMOOTH",
"64 46 OFFCURVE",
"91 0 OFFCURVE",
"155 0 CURVE SMOOTH"
);
}
);
width = 1240;
},
{
anchors = (
{
name = bottom;
position = "{592, 0}";
},
{
name = center;
position = "{655, 586}";
},
{
name = top;
position = "{758, 1171}";
},
{
name = topright;
position = "{1164, 764}";
}
);
layerId = "440824D2-40E3-4EBC-B94D-DAF81B1E7F5E";
paths = (
{
closed = 1;
nodes = (
"976 0 LINE SMOOTH",
"1019 0 OFFCURVE",
"1048 29 OFFCURVE",
"1059 66 CURVE",
"1145 387 LINE",
"1146 393 LINE SMOOTH",
"1151 425 OFFCURVE",
"1132 442 OFFCURVE",
"1106 442 CURVE SMOOTH",
"1083 442 OFFCURVE",
"1059 428 OFFCURVE",
"1050 399 CURVE SMOOTH",
"968 123 LINE SMOOTH",
"959 92 OFFCURVE",
"941 88 OFFCURVE",
"919 86 CURVE",
"432 86 LINE",
"606 1085 LINE",
"758 1085 LINE SMOOTH",
"791 1085 OFFCURVE",
"816 1103 OFFCURVE",
"816 1134 CURVE SMOOTH",
"816 1156 OFFCURVE",
"806 1171 OFFCURVE",
"772 1171 CURVE SMOOTH",
"299 1171 LINE SMOOTH",
"266 1171 OFFCURVE",
"242 1153 OFFCURVE",
"242 1123 CURVE SMOOTH",
"242 1101 OFFCURVE",
"250 1085 OFFCURVE",
"283 1085 CURVE SMOOTH",
"510 1085 LINE",
"336 86 LINE",
"67 86 LINE SMOOTH",
"34 86 OFFCURVE",
"9 64 OFFCURVE",
"9 40 CURVE SMOOTH",
"9 18 OFFCURVE",
"19 0 OFFCURVE",
"53 0 CURVE SMOOTH"
);
}
);
width = 1240;
},
{
anchors = (
{
name = bottom;
position = "{552, 0}";
},
{
name = center;
position = "{655, 586}";
},
{
name = top;
position = "{758, 1171}";
},
{
name = topright;
position = "{1144, 738}";
}
);
layerId = "2EAAA3E6-1429-4D6D-BAD7-A55486495AAE";
paths = (
{
closed = 1;
nodes = (
"976 0 LINE SMOOTH",
"1029 0 OFFCURVE",
"1068 29 OFFCURVE",
"1083 86 CURVE SMOOTH",
"1176 447 LINE",
"1177 453 LINE SMOOTH",
"1189 525 OFFCURVE",
"1141 552 OFFCURVE",
"1095 552 CURVE SMOOTH",
"1052 552 OFFCURVE",
"998 528 OFFCURVE",
"977 459 CURVE SMOOTH",
"904 213 LINE SMOOTH",
"895 182 OFFCURVE",
"877 178 OFFCURVE",
"854 176 CURVE",
"497 176 LINE",
"641 995 LINE",
"723 995 LINE SMOOTH",
"786 995 OFFCURVE",
"828 1040 OFFCURVE",
"828 1091 CURVE SMOOTH",
"828 1133 OFFCURVE",
"801 1171 OFFCURVE",
"727 1171 CURVE SMOOTH",
"329 1171 LINE SMOOTH",
"266 1171 OFFCURVE",
"224 1124 OFFCURVE",
"224 1072 CURVE SMOOTH",
"224 1031 OFFCURVE",
"251 995 OFFCURVE",
"324 995 CURVE SMOOTH",
"395 995 LINE",
"251 176 LINE",
"112 176 LINE SMOOTH",
"49 176 OFFCURVE",
"7 129 OFFCURVE",
"7 88 CURVE SMOOTH",
"7 46 OFFCURVE",
"39 0 OFFCURVE",
"113 0 CURVE SMOOTH"
);
}
);
width = 1240;
}
);
unicode = 004C;
},
{
glyphname = LJ;
lastChange = "2017-12-25 23:57:06 +0000";
layers = (
{
layerId = "840BD324-B0A6-42B0-BD23-CB5E8C19394F";
paths = (
{
closed = 1;
nodes = (
"600 0 LINE SMOOTH",
"643 0 OFFCURVE",
"667 29 OFFCURVE",
"672 66 CURVE",
"702 387 LINE",
"702 393 LINE SMOOTH",
"702 424 OFFCURVE",
"681 442 OFFCURVE",
"655 442 CURVE SMOOTH",
"632 442 OFFCURVE",
"615 428 OFFCURVE",
"611 399 CURVE SMOOTH",
"577 123 LINE SMOOTH",
"573 92 OFFCURVE",
"558 88 OFFCURVE",
"536 86 CURVE",
"234 86 LINE",
"234 1085 LINE",
"416 1085 LINE SMOOTH",
"449 1085 OFFCURVE",
"466 1106 OFFCURVE",
"466 1127 CURVE SMOOTH",
"466 1149 OFFCURVE",
"449 1171 OFFCURVE",
"415 1171 CURVE SMOOTH",
"56 1171 LINE SMOOTH",
"23 1171 OFFCURVE",
"6 1149 OFFCURVE",
"6 1127 CURVE SMOOTH",
"6 1106 OFFCURVE",
"22 1085 OFFCURVE",
"55 1085 CURVE SMOOTH",
"138 1085 LINE",
"138 86 LINE",
"63 86 LINE SMOOTH",
"30 86 OFFCURVE",
"13 64 OFFCURVE",
"13 43 CURVE SMOOTH",
"13 21 OFFCURVE",
"30 0 OFFCURVE",
"64 0 CURVE SMOOTH"
);
},
{
closed = 1;
nodes = (
"1058 -13 OFFCURVE",
"1154 72 OFFCURVE",
"1154 287 CURVE SMOOTH",
"1154 1085 LINE",
"1225 1085 LINE SMOOTH",
"1258 1085 OFFCURVE",
"1274 1107 OFFCURVE",
"1274 1128 CURVE SMOOTH",
"1274 1150 OFFCURVE",
"1257 1171 OFFCURVE",
"1224 1171 CURVE SMOOTH",
"829 1171 LINE SMOOTH",
"796 1171 OFFCURVE",
"780 1149 OFFCURVE",
"780 1127 CURVE SMOOTH",
"780 1106 OFFCURVE",
"796 1085 OFFCURVE",
"828 1085 CURVE SMOOTH",
"1053 1085 LINE",
"1053 284 LINE SMOOTH",
"1053 149 OFFCURVE",
"1000 75 OFFCURVE",
"924 75 CURVE SMOOTH",
"834 75 OFFCURVE",
"823 171 OFFCURVE",
"773 171 CURVE SMOOTH",
"744 171 OFFCURVE",
"726 149 OFFCURVE",
"726 124 CURVE SMOOTH",
"726 111 OFFCURVE",
"732 94 OFFCURVE",
"751 72 CURVE SMOOTH",
"782 35 OFFCURVE",
"829 -13 OFFCURVE",
"924 -13 CURVE SMOOTH"
);
}
);
width = 1240;
},
{
layerId = "F2E12B84-E402-48AA-89E7-06534AE23493";
paths = (
{
closed = 1;
nodes = (
"560 0 LINE SMOOTH",
"603 0 OFFCURVE",
"627 29 OFFCURVE",
"632 66 CURVE",
"662 347 LINE",
"662 353 LINE SMOOTH",
"662 425 OFFCURVE",
"621 442 OFFCURVE",
"585 442 CURVE SMOOTH",
"552 442 OFFCURVE",
"517 428 OFFCURVE",
"508 379 CURVE SMOOTH",
"477 203 LINE SMOOTH",
"472 172 OFFCURVE",
"458 168 OFFCURVE",
"436 166 CURVE",
"334 166 LINE",
"334 995 LINE",
"406 995 LINE SMOOTH",
"469 995 OFFCURVE",
"496 1041 OFFCURVE",
"496 1082 CURVE SMOOTH",
"496 1124 OFFCURVE",
"469 1171 OFFCURVE",
"405 1171 CURVE SMOOTH",
"96 1171 LINE SMOOTH",
"33 1171 OFFCURVE",
"6 1124 OFFCURVE",
"6 1082 CURVE SMOOTH",
"6 1041 OFFCURVE",
"32 995 OFFCURVE",
"95 995 CURVE SMOOTH",
"118 995 LINE",
"118 166 LINE",
"83 166 LINE SMOOTH",
"40 166 OFFCURVE",
"13 124 OFFCURVE",
"13 83 CURVE SMOOTH",
"13 50 OFFCURVE",
"40 0 OFFCURVE",
"84 0 CURVE SMOOTH"
);
},
{
closed = 1;
nodes = (
"1088 -13 OFFCURVE",
"1174 72 OFFCURVE",
"1174 367 CURVE SMOOTH",
"1174 995 LINE",
"1185 995 LINE SMOOTH",
"1248 995 OFFCURVE",
"1274 1042 OFFCURVE",
"1274 1083 CURVE SMOOTH",
"1274 1125 OFFCURVE",
"1247 1171 OFFCURVE",
"1184 1171 CURVE SMOOTH",
"819 1171 LINE SMOOTH",
"756 1171 OFFCURVE",
"730 1124 OFFCURVE",
"730 1082 CURVE SMOOTH",
"730 1041 OFFCURVE",
"756 995 OFFCURVE",
"818 995 CURVE SMOOTH",
"973 995 LINE",
"973 364 LINE SMOOTH",
"973 219 OFFCURVE",
"949 153 OFFCURVE",
"904 153 CURVE SMOOTH",
"884 153 OFFCURVE",
"865 171 OFFCURVE",
"858 180 CURVE SMOOTH",
"828 223 OFFCURVE",
"764 235 OFFCURVE",
"727 199 CURVE SMOOTH",
"693 166 OFFCURVE",
"687 114 OFFCURVE",
"706 80 CURVE SMOOTH",
"738 24 OFFCURVE",
"824 -13 OFFCURVE",
"904 -13 CURVE SMOOTH"
);
}
);
width = 1240;
},
{
layerId = "440824D2-40E3-4EBC-B94D-DAF81B1E7F5E";
paths = (
{
closed = 1;
nodes = (
"533 0 LINE SMOOTH",
"576 0 OFFCURVE",
"605 29 OFFCURVE",
"616 66 CURVE",
"702 387 LINE",
"704 393 LINE SMOOTH",
"714 423 OFFCURVE",
"691 442 OFFCURVE",
"665 442 CURVE SMOOTH",
"642 442 OFFCURVE",
"623 428 OFFCURVE",
"614 399 CURVE SMOOTH",
"531 123 LINE SMOOTH",
"522 92 OFFCURVE",
"506 88 OFFCURVE",
"484 86 CURVE",
"182 86 LINE",
"356 1085 LINE",
"538 1085 LINE SMOOTH",
"571 1085 OFFCURVE",
"596 1106 OFFCURVE",
"596 1136 CURVE SMOOTH",
"596 1153 OFFCURVE",
"586 1171 OFFCURVE",
"552 1171 CURVE SMOOTH",
"193 1171 LINE SMOOTH",
"160 1171 OFFCURVE",
"136 1152 OFFCURVE",
"136 1119 CURVE SMOOTH",
"136 1106 OFFCURVE",
"144 1085 OFFCURVE",
"177 1085 CURVE SMOOTH",
"260 1085 LINE",
"86 86 LINE",
"11 86 LINE SMOOTH",
"-22 86 OFFCURVE",
"-47 71 OFFCURVE",
"-47 39 CURVE SMOOTH",
"-47 21 OFFCURVE",
"-37 0 OFFCURVE",
"-3 0 CURVE SMOOTH"
);
},
{
closed = 1;
nodes = (
"1015 -13 OFFCURVE",
"1100 72 OFFCURVE",
"1151 367 CURVE SMOOTH",
"1276 1085 LINE",
"1347 1085 LINE SMOOTH",
"1380 1085 OFFCURVE",
"1405 1107 OFFCURVE",
"1405 1134 CURVE SMOOTH",
"1405 1150 OFFCURVE",
"1394 1171 OFFCURVE",
"1361 1171 CURVE SMOOTH",
"966 1171 LINE SMOOTH",
"933 1171 OFFCURVE",
"910 1152 OFFCURVE",
"910 1124 CURVE SMOOTH",
"910 1106 OFFCURVE",
"918 1085 OFFCURVE",
"950 1085 CURVE SMOOTH",
"1175 1085 LINE",
"1049 364 LINE SMOOTH",
"1011 149 OFFCURVE",
"946 76 OFFCURVE",
"880 76 CURVE SMOOTH",
"836 76 OFFCURVE",
"804 101 OFFCURVE",
"785 123 CURVE SMOOTH",
"766 146 OFFCURVE",
"747 165 OFFCURVE",
"725 165 CURVE SMOOTH",
"696 165 OFFCURVE",
"686 139 OFFCURVE",
"686 119 CURVE SMOOTH",
"686 51 OFFCURVE",
"788 -13 OFFCURVE",
"880 -13 CURVE SMOOTH"
);
}
);
width = 1240;
},
{
layerId = "2EAAA3E6-1429-4D6D-BAD7-A55486495AAE";
paths = (
{
closed = 1;
nodes = (
"458 0 LINE SMOOTH",
"501 0 OFFCURVE",
"530 29 OFFCURVE",
"542 66 CURVE",
"621 347 LINE",
"622 353 LINE SMOOTH",
"635 425 OFFCURVE",
"597 442 OFFCURVE",
"561 442 CURVE SMOOTH",
"528 442 OFFCURVE",
"490 428 OFFCURVE",
"473 379 CURVE SMOOTH",
"411 203 LINE SMOOTH",
"400 172 OFFCURVE",
"386 168 OFFCURVE",
"363 166 CURVE",
"261 166 LINE",
"407 995 LINE",
"479 995 LINE SMOOTH",
"542 995 OFFCURVE",
"577 1041 OFFCURVE",
"585 1082 CURVE SMOOTH",
"592 1124 OFFCURVE",
"573 1171 OFFCURVE",
"509 1171 CURVE SMOOTH",
"200 1171 LINE SMOOTH",
"137 1171 OFFCURVE",
"102 1124 OFFCURVE",
"95 1082 CURVE SMOOTH",
"87 1041 OFFCURVE",
"105 995 OFFCURVE",
"168 995 CURVE SMOOTH",
"191 995 LINE",
"45 166 LINE",
"10 166 LINE SMOOTH",
"-33 166 OFFCURVE",
"-67 124 OFFCURVE",
"-74 83 CURVE SMOOTH",
"-80 50 OFFCURVE",
"-62 0 OFFCURVE",
"-18 0 CURVE SMOOTH"
);
},
{
closed = 1;
nodes = (
"984 -13 OFFCURVE",
"1085 72 OFFCURVE",
"1137 367 CURVE SMOOTH",
"1247 995 LINE",
"1258 995 LINE SMOOTH",
"1321 995 OFFCURVE",
"1356 1042 OFFCURVE",
"1363 1083 CURVE SMOOTH",
"1370 1125 OFFCURVE",
"1351 1171 OFFCURVE",
"1288 1171 CURVE SMOOTH",
"923 1171 LINE SMOOTH",
"860 1171 OFFCURVE",
"826 1124 OFFCURVE",
"819 1082 CURVE SMOOTH",
"811 1041 OFFCURVE",
"829 995 OFFCURVE",
"891 995 CURVE SMOOTH",
"1046 995 LINE",
"935 364 LINE SMOOTH",
"910 219 OFFCURVE",
"874 153 OFFCURVE",
"839 153 CURVE SMOOTH",
"799 153 OFFCURVE",
"786 177 OFFCURVE",
"775 192 CURVE SMOOTH",
"764 207 OFFCURVE",
"749 237 OFFCURVE",
"700 237 CURVE SMOOTH",
"654 237 OFFCURVE",
"627 196 OFFCURVE",
"627 162 CURVE SMOOTH",
"627 51 OFFCURVE",
"720 -13 OFFCURVE",
"800 -13 CURVE SMOOTH"
);
}
);
width = 600;
}
);
unicode = 01C7;
},
{
glyphname = Ldot;
lastChange = "2017-12-23 21:16:48 +0000";
layers = (
{
anchors = (
{
name = bottom;
position = "{708, -175}";
},
{
name = center;
position = "{620, 586}";
},
{
name = top;
position = "{440, 1171}";
},
{
name = topright;
position = "{1074, 774}";
}
);
components = (
{
alignment = -1;
name = dotaccentcomb;
transform = "{1, 0, 0, 1, 485, 91}";
}
);
layerId = "840BD324-B0A6-42B0-BD23-CB5E8C19394F";
paths = (
{
closed = 1;
nodes = (
"1048 0 LINE SMOOTH",
"1091 0 OFFCURVE",
"1115 29 OFFCURVE",
"1120 66 CURVE",
"1150 387 LINE",
"1150 393 LINE SMOOTH",
"1150 425 OFFCURVE",
"1127 442 OFFCURVE",
"1101 442 CURVE SMOOTH",
"1078 442 OFFCURVE",
"1057 428 OFFCURVE",
"1053 399 CURVE SMOOTH",
"1019 123 LINE SMOOTH",
"1015 92 OFFCURVE",
"998 88 OFFCURVE",
"976 86 CURVE",
"489 86 LINE",
"489 1085 LINE",
"641 1085 LINE SMOOTH",
"674 1085 OFFCURVE",
"691 1106 OFFCURVE",
"691 1127 CURVE SMOOTH",
"691 1149 OFFCURVE",
"674 1171 OFFCURVE",
"640 1171 CURVE SMOOTH",
"167 1171 LINE SMOOTH",
"134 1171 OFFCURVE",
"117 1149 OFFCURVE",
"117 1127 CURVE SMOOTH",
"117 1106 OFFCURVE",
"133 1085 OFFCURVE",
"166 1085 CURVE SMOOTH",
"393 1085 LINE",
"393 86 LINE",
"124 86 LINE SMOOTH",
"91 86 OFFCURVE",
"74 64 OFFCURVE",
"74 43 CURVE SMOOTH",
"74 21 OFFCURVE",
"91 0 OFFCURVE",
"125 0 CURVE SMOOTH"
);
}
);
width = 1240;
},
{
anchors = (
{
name = bottom;
position = "{620, 0}";
},
{
name = center;
position = "{620, 586}";
},
{
name = top;
position = "{620, 1171}";
},
{
name = topright;
position = "{1130, 651}";
}
);
components = (
{
alignment = -1;
name = dotaccentcomb;
transform = "{1, 0, 0, 1, 418, -223}";
}
);
layerId = "F2E12B84-E402-48AA-89E7-06534AE23493";
paths = (
{
closed = 1;
nodes = (
"1048 0 LINE SMOOTH",
"1101 0 OFFCURVE",
"1135 29 OFFCURVE",
"1140 86 CURVE",
"1170 408 LINE",
"1170 414 LINE SMOOTH",
"1170 486 OFFCURVE",
"1117 513 OFFCURVE",
"1071 513 CURVE SMOOTH",
"1028 513 OFFCURVE",
"979 489 OFFCURVE",
"969 420 CURVE SMOOTH",
"939 213 LINE SMOOTH",
"935 182 OFFCURVE",
"918 178 OFFCURVE",
"896 176 CURVE",
"539 176 LINE",
"539 995 LINE",
"621 995 LINE SMOOTH",
"684 995 OFFCURVE",
"711 1041 OFFCURVE",
"711 1082 CURVE SMOOTH",
"711 1124 OFFCURVE",
"684 1171 OFFCURVE",
"620 1171 CURVE SMOOTH",
"197 1171 LINE SMOOTH",
"134 1171 OFFCURVE",
"107 1124 OFFCURVE",
"107 1082 CURVE SMOOTH",
"107 1041 OFFCURVE",
"133 995 OFFCURVE",
"196 995 CURVE SMOOTH",
"293 995 LINE",
"293 176 LINE",
"154 176 LINE SMOOTH",
"91 176 OFFCURVE",
"64 129 OFFCURVE",
"64 88 CURVE SMOOTH",
"64 46 OFFCURVE",
"91 0 OFFCURVE",
"155 0 CURVE SMOOTH"
);
}
);
width = 1240;
},
{
anchors = (
{
name = bottom;
position = "{552, 0}";
},
{
name = center;
position = "{655, 586}";
},
{
name = top;
position = "{758, 1171}";
},
{
name = topright;
position = "{1358, 1171}";
}
);
components = (
{
alignment = -1;
name = dotaccentcomb;
transform = "{1, 0, 0, 1, 485, 91}";
}
);
layerId = "440824D2-40E3-4EBC-B94D-DAF81B1E7F5E";
paths = (
{
closed = 1;
nodes = (
"976 0 LINE SMOOTH",
"1019 0 OFFCURVE",
"1048 29 OFFCURVE",
"1059 66 CURVE",
"1145 387 LINE",
"1146 393 LINE SMOOTH",
"1151 425 OFFCURVE",
"1132 442 OFFCURVE",
"1106 442 CURVE SMOOTH",
"1083 442 OFFCURVE",
"1059 428 OFFCURVE",
"1050 399 CURVE SMOOTH",
"968 123 LINE SMOOTH",
"959 92 OFFCURVE",
"941 88 OFFCURVE",
"919 86 CURVE",
"432 86 LINE",
"606 1085 LINE",
"758 1085 LINE SMOOTH",
"791 1085 OFFCURVE",
"816 1103 OFFCURVE",
"816 1134 CURVE SMOOTH",
"816 1156 OFFCURVE",
"806 1171 OFFCURVE",
"772 1171 CURVE SMOOTH",
"299 1171 LINE SMOOTH",
"266 1171 OFFCURVE",
"242 1153 OFFCURVE",
"242 1123 CURVE SMOOTH",
"242 1101 OFFCURVE",
"250 1085 OFFCURVE",
"283 1085 CURVE SMOOTH",
"510 1085 LINE",
"336 86 LINE",
"67 86 LINE SMOOTH",
"34 86 OFFCURVE",
"9 64 OFFCURVE",
"9 40 CURVE SMOOTH",
"9 18 OFFCURVE",
"19 0 OFFCURVE",
"53 0 CURVE SMOOTH"
);
}
);
width = 1240;
},
{
anchors = (
{
name = bottom;
position = "{552, 0}";
},
{
name = center;
position = "{655, 586}";
},
{
name = top;
position = "{758, 1171}";
},
{
name = topright;
position = "{1359, 1171}";
}
);
components = (
{
alignment = -1;
name = dotaccentcomb;
transform = "{1, 0, 0, 1, 401, -232}";
}
);
layerId = "2EAAA3E6-1429-4D6D-BAD7-A55486495AAE";
paths = (
{
closed = 1;
nodes = (
"976 0 LINE SMOOTH",
"1029 0 OFFCURVE",
"1068 29 OFFCURVE",
"1083 86 CURVE SMOOTH",
"1176 447 LINE",
"1177 453 LINE SMOOTH",
"1189 525 OFFCURVE",
"1141 552 OFFCURVE",
"1095 552 CURVE SMOOTH",
"1052 552 OFFCURVE",
"998 528 OFFCURVE",
"977 459 CURVE SMOOTH",
"904 213 LINE SMOOTH",
"895 182 OFFCURVE",
"877 178 OFFCURVE",
"854 176 CURVE",
"497 176 LINE",
"641 995 LINE",
"723 995 LINE SMOOTH",
"786 995 OFFCURVE",
"828 1040 OFFCURVE",
"828 1091 CURVE SMOOTH",
"828 1133 OFFCURVE",
"801 1171 OFFCURVE",
"727 1171 CURVE SMOOTH",
"329 1171 LINE SMOOTH",
"266 1171 OFFCURVE",
"224 1124 OFFCURVE",
"224 1072 CURVE SMOOTH",
"224 1031 OFFCURVE",
"251 995 OFFCURVE",
"324 995 CURVE SMOOTH",
"395 995 LINE",
"251 176 LINE",
"112 176 LINE SMOOTH",
"49 176 OFFCURVE",
"7 129 OFFCURVE",
"7 88 CURVE SMOOTH",
"7 46 OFFCURVE",
"39 0 OFFCURVE",
"113 0 CURVE SMOOTH"
);
}
);
width = 1240;
}
);
unicode = 013F;
},
{
glyphname = Lj;
lastChange = "2017-12-26 01:46:13 +0000";
layers = (
{
layerId = "840BD324-B0A6-42B0-BD23-CB5E8C19394F";
paths = (
{
closed = 1;
nodes = (
"719 0 LINE SMOOTH",
"762 0 OFFCURVE",
"786 29 OFFCURVE",
"791 66 CURVE",
"821 387 LINE",
"821 393 LINE SMOOTH",
"821 425 OFFCURVE",
"801 442 OFFCURVE",
"775 442 CURVE SMOOTH",
"752 442 OFFCURVE",
"734 428 OFFCURVE",
"730 399 CURVE SMOOTH",
"696 123 LINE SMOOTH",
"692 92 OFFCURVE",
"677 88 OFFCURVE",
"655 86 CURVE",
"353 86 LINE",
"353 1085 LINE",
"465 1085 LINE SMOOTH",
"498 1085 OFFCURVE",
"515 1106 OFFCURVE",
"515 1127 CURVE SMOOTH",
"515 1149 OFFCURVE",
"498 1171 OFFCURVE",
"464 1171 CURVE SMOOTH",
"155 1171 LINE SMOOTH",
"122 1171 OFFCURVE",
"105 1149 OFFCURVE",
"105 1127 CURVE SMOOTH",
"105 1106 OFFCURVE",
"121 1085 OFFCURVE",
"154 1085 CURVE SMOOTH",
"257 1085 LINE",
"257 86 LINE",
"112 86 LINE SMOOTH",
"79 86 OFFCURVE",
"62 64 OFFCURVE",
"62 43 CURVE SMOOTH",
"62 21 OFFCURVE",
"79 0 OFFCURVE",
"113 0 CURVE SMOOTH"
);
},
{
closed = 1;
nodes = (
"973 -309 OFFCURVE",
"1116 -198 OFFCURVE",
"1116 50 CURVE SMOOTH",
"1116 785 LINE SMOOTH",
"1116 806 OFFCURVE",
"1100 816 OFFCURVE",
"1080 814 CURVE SMOOTH",
"750 784 LINE SMOOTH",
"724 782 OFFCURVE",
"710 765 OFFCURVE",
"710 745 CURVE SMOOTH",
"710 724 OFFCURVE",
"725 699 OFFCURVE",
"754 702 CURVE SMOOTH",
"1020 730 LINE",
"1020 50 LINE SMOOTH",
"1020 -155 OFFCURVE",
"910 -220 OFFCURVE",
"735 -220 CURVE SMOOTH",
"696 -220 OFFCURVE",
"677 -243 OFFCURVE",
"677 -265 CURVE SMOOTH",
"677 -287 OFFCURVE",
"695 -309 OFFCURVE",
"728 -309 CURVE SMOOTH"
);
},
{
closed = 1;
nodes = (
"1072 990 OFFCURVE",
"1112 1029 OFFCURVE",
"1112 1080 CURVE SMOOTH",
"1112 1130 OFFCURVE",
"1072 1171 OFFCURVE",
"1022 1171 CURVE SMOOTH",
"971 1171 OFFCURVE",
"931 1130 OFFCURVE",
"931 1080 CURVE SMOOTH",
"931 1029 OFFCURVE",
"971 990 OFFCURVE",
"1022 990 CURVE SMOOTH"
);
}
);
width = 1240;
},
{
layerId = "F2E12B84-E402-48AA-89E7-06534AE23493";
paths = (
{
closed = 1;
nodes = (
"719 0 LINE SMOOTH",
"762 0 OFFCURVE",
"786 29 OFFCURVE",
"791 66 CURVE",
"821 336 LINE",
"822 345 LINE SMOOTH",
"830 421 OFFCURVE",
"791 442 OFFCURVE",
"755 442 CURVE SMOOTH",
"722 442 OFFCURVE",
"677 428 OFFCURVE",
"667 369 CURVE SMOOTH",
"637 183 LINE SMOOTH",
"632 152 OFFCURVE",
"617 148 OFFCURVE",
"595 146 CURVE",
"433 146 LINE",
"433 1025 LINE",
"455 1025 LINE SMOOTH",
"508 1025 OFFCURVE",
"535 1056 OFFCURVE",
"535 1097 CURVE SMOOTH",
"535 1139 OFFCURVE",
"508 1171 OFFCURVE",
"454 1171 CURVE SMOOTH",
"155 1171 LINE SMOOTH",
"102 1171 OFFCURVE",
"75 1139 OFFCURVE",
"75 1097 CURVE SMOOTH",
"75 1056 OFFCURVE",
"101 1025 OFFCURVE",
"154 1025 CURVE SMOOTH",
"187 1025 LINE",
"187 146 LINE",
"112 146 LINE SMOOTH",
"59 146 OFFCURVE",
"32 114 OFFCURVE",
"32 73 CURVE SMOOTH",
"32 31 OFFCURVE",
"59 0 OFFCURVE",
"113 0 CURVE SMOOTH"
);
},
{
closed = 1;
nodes = (
"1003 -329 OFFCURVE",
"1146 -178 OFFCURVE",
"1146 130 CURVE SMOOTH",
"1146 785 LINE SMOOTH",
"1146 806 OFFCURVE",
"1130 816 OFFCURVE",
"1110 814 CURVE SMOOTH",
"760 776 LINE SMOOTH",
"714 771 OFFCURVE",
"680 735 OFFCURVE",
"680 695 CURVE SMOOTH",
"680 654 OFFCURVE",
"716 609 OFFCURVE",
"784 616 CURVE SMOOTH",
"940 633 LINE",
"940 70 LINE SMOOTH",
"940 -75 OFFCURVE",
"830 -140 OFFCURVE",
"745 -140 CURVE SMOOTH",
"685 -140 OFFCURVE",
"657 -193 OFFCURVE",
"657 -235 CURVE SMOOTH",
"657 -277 OFFCURVE",
"685 -329 OFFCURVE",
"748 -329 CURVE SMOOTH"
);
},
{
closed = 1;
nodes = (
"1101 944 OFFCURVE",
"1167 1004 OFFCURVE",
"1167 1079 CURVE SMOOTH",
"1167 1152 OFFCURVE",
"1101 1215 OFFCURVE",
"1018 1215 CURVE SMOOTH",
"934 1215 OFFCURVE",
"868 1152 OFFCURVE",
"868 1079 CURVE SMOOTH",
"868 1004 OFFCURVE",
"934 944 OFFCURVE",
"1018 944 CURVE SMOOTH"
);
}
);
width = 1240;
},
{
layerId = "440824D2-40E3-4EBC-B94D-DAF81B1E7F5E";
paths = (
{
closed = 1;
nodes = (
"644 0 LINE SMOOTH",
"687 0 OFFCURVE",
"716 29 OFFCURVE",
"727 66 CURVE",
"813 387 LINE",
"814 393 LINE SMOOTH",
"820 425 OFFCURVE",
"803 442 OFFCURVE",
"777 442 CURVE SMOOTH",
"754 442 OFFCURVE",
"733 428 OFFCURVE",
"724 399 CURVE SMOOTH",
"642 123 LINE SMOOTH",
"633 92 OFFCURVE",
"617 88 OFFCURVE",
"595 86 CURVE",
"293 86 LINE",
"467 1085 LINE",
"579 1085 LINE SMOOTH",
"612 1085 OFFCURVE",
"637 1106 OFFCURVE",
"637 1135 CURVE SMOOTH",
"637 1154 OFFCURVE",
"627 1171 OFFCURVE",
"593 1171 CURVE SMOOTH",
"284 1171 LINE SMOOTH",
"251 1171 OFFCURVE",
"227 1154 OFFCURVE",
"227 1119 CURVE SMOOTH",
"227 1106 OFFCURVE",
"235 1085 OFFCURVE",
"268 1085 CURVE SMOOTH",
"371 1085 LINE",
"197 86 LINE",
"52 86 LINE SMOOTH",
"19 86 OFFCURVE",
"-6 71 OFFCURVE",
"-6 38 CURVE SMOOTH",
"-6 21 OFFCURVE",
"4 0 OFFCURVE",
"38 0 CURVE SMOOTH"
);
},
{
closed = 1;
nodes = (
"824 -359 OFFCURVE",
"980 -216 OFFCURVE",
"1029 30 CURVE SMOOTH",
"1178 785 LINE SMOOTH",
"1182 806 OFFCURVE",
"1167 816 OFFCURVE",
"1147 814 CURVE SMOOTH",
"812 784 LINE SMOOTH",
"785 782 OFFCURVE",
"762 760 OFFCURVE",
"762 733 CURVE SMOOTH",
"762 716 OFFCURVE",
"772 699 OFFCURVE",
"801 702 CURVE SMOOTH",
"1072 730 LINE",
"933 30 LINE SMOOTH",
"893 -174 OFFCURVE",
"776 -270 OFFCURVE",
"581 -270 CURVE SMOOTH",
"542 -270 OFFCURVE",
"519 -293 OFFCURVE",
"515 -315 CURVE SMOOTH",
"511 -337 OFFCURVE",
"526 -359 OFFCURVE",
"559 -359 CURVE SMOOTH"
);
},
{
closed = 1;
nodes = (
"1232 990 OFFCURVE",
"1272 1029 OFFCURVE",
"1272 1080 CURVE SMOOTH",
"1272 1130 OFFCURVE",
"1232 1171 OFFCURVE",
"1182 1171 CURVE SMOOTH",
"1131 1171 OFFCURVE",
"1091 1130 OFFCURVE",
"1091 1080 CURVE SMOOTH",
"1091 1029 OFFCURVE",
"1131 990 OFFCURVE",
"1182 990 CURVE SMOOTH"
);
}
);
width = 1240;
},
{
layerId = "2EAAA3E6-1429-4D6D-BAD7-A55486495AAE";
paths = (
{
closed = 1;
nodes = (
"645 0 LINE SMOOTH",
"688 0 OFFCURVE",
"717 29 OFFCURVE",
"728 66 CURVE",
"806 336 LINE",
"809 345 LINE SMOOTH",
"830 421 OFFCURVE",
"795 442 OFFCURVE",
"759 442 CURVE SMOOTH",
"726 442 OFFCURVE",
"678 428 OFFCURVE",
"658 369 CURVE SMOOTH",
"595 183 LINE SMOOTH",
"585 152 OFFCURVE",
"569 148 OFFCURVE",
"547 146 CURVE",
"385 146 LINE",
"540 1025 LINE",
"562 1025 LINE SMOOTH",
"615 1025 OFFCURVE",
"647 1056 OFFCURVE",
"654 1097 CURVE SMOOTH",
"662 1139 OFFCURVE",
"640 1171 OFFCURVE",
"586 1171 CURVE SMOOTH",
"287 1171 LINE SMOOTH",
"234 1171 OFFCURVE",
"202 1139 OFFCURVE",
"194 1097 CURVE SMOOTH",
"187 1056 OFFCURVE",
"208 1025 OFFCURVE",
"261 1025 CURVE SMOOTH",
"294 1025 LINE",
"139 146 LINE",
"64 146 LINE SMOOTH",
"11 146 OFFCURVE",
"-22 114 OFFCURVE",
"-29 73 CURVE SMOOTH",
"-37 31 OFFCURVE",
"-15 0 OFFCURVE",
"39 0 CURVE SMOOTH"
);
},
{
closed = 1;
nodes = (
"881 -329 OFFCURVE",
"1040 -178 OFFCURVE",
"1095 130 CURVE SMOOTH",
"1210 785 LINE SMOOTH",
"1214 806 OFFCURVE",
"1200 816 OFFCURVE",
"1179 814 CURVE SMOOTH",
"823 776 LINE SMOOTH",
"776 771 OFFCURVE",
"735 735 OFFCURVE",
"728 695 CURVE SMOOTH",
"721 654 OFFCURVE",
"749 609 OFFCURVE",
"818 616 CURVE SMOOTH",
"977 633 LINE",
"882 90 LINE SMOOTH",
"853 -75 OFFCURVE",
"731 -140 OFFCURVE",
"656 -140 CURVE SMOOTH",
"586 -140 OFFCURVE",
"549 -193 OFFCURVE",
"541 -235 CURVE SMOOTH",
"534 -277 OFFCURVE",
"563 -329 OFFCURVE",
"626 -329 CURVE SMOOTH"
);
},
{
closed = 1;
nodes = (
"1201 944 OFFCURVE",
"1267 1004 OFFCURVE",
"1267 1079 CURVE SMOOTH",
"1267 1152 OFFCURVE",
"1201 1215 OFFCURVE",
"1118 1215 CURVE SMOOTH",
"1034 1215 OFFCURVE",
"968 1152 OFFCURVE",
"968 1079 CURVE SMOOTH",
"968 1004 OFFCURVE",
"1034 944 OFFCURVE",
"1118 944 CURVE SMOOTH"
);
}
);
width = 1240;
}
);
unicode = 01C8;
},
{
glyphname = Lslash;
lastChange = "2017-12-26 02:47:01 +0000";
layers = (
{
components = (
{
name = L;
}
);
layerId = "840BD324-B0A6-42B0-BD23-CB5E8C19394F";
paths = (
{
closed = 1;
nodes = (
"199 438 OFFCURVE",
"207 438 OFFCURVE",
"215 441 CURVE SMOOTH",
"760 665 LINE SMOOTH",
"786 676 OFFCURVE",
"798 683 OFFCURVE",
"798 702 CURVE SMOOTH",
"798 730 OFFCURVE",
"782 748 OFFCURVE",
"757 748 CURVE SMOOTH",
"751 748 OFFCURVE",
"745 748 OFFCURVE",
"738 745 CURVE SMOOTH",
"193 524 LINE SMOOTH",
"166 513 OFFCURVE",
"153 503 OFFCURVE",
"153 484 CURVE SMOOTH",
"153 456 OFFCURVE",
"168 438 OFFCURVE",
"193 438 CURVE SMOOTH"
);
}
);
width = 1240;
},
{
components = (
{
name = L;
}
);
layerId = "F2E12B84-E402-48AA-89E7-06534AE23493";
paths = (
{
closed = 1;
nodes = (
"173 379 OFFCURVE",
"196 384 OFFCURVE",
"212 391 CURVE SMOOTH",
"694 591 LINE SMOOTH",
"745 612 OFFCURVE",
"768 636 OFFCURVE",
"768 673 CURVE SMOOTH",
"768 721 OFFCURVE",
"737 756 OFFCURVE",
"688 756 CURVE SMOOTH",
"676 756 OFFCURVE",
"653 751 OFFCURVE",
"638 745 CURVE SMOOTH",
"161 547 LINE SMOOTH",
"107 525 OFFCURVE",
"83 506 OFFCURVE",
"83 469 CURVE SMOOTH",
"83 414 OFFCURVE",
"113 379 OFFCURVE",
"161 379 CURVE SMOOTH"
);
}
);
width = 1240;
},
{
components = (
{
name = L;
}
);
layerId = "440824D2-40E3-4EBC-B94D-DAF81B1E7F5E";
paths = (
{
closed = 1;
nodes = (
"199 427 OFFCURVE",
"207 428 OFFCURVE",
"215 431 CURVE SMOOTH",
"760 675 LINE SMOOTH",
"786 687 OFFCURVE",
"796 695 OFFCURVE",
"796 718 CURVE SMOOTH",
"796 742 OFFCURVE",
"785 759 OFFCURVE",
"760 759 CURVE SMOOTH",
"754 759 OFFCURVE",
"745 758 OFFCURVE",
"738 755 CURVE SMOOTH",
"193 514 LINE SMOOTH",
"166 502 OFFCURVE",
"153 493 OFFCURVE",
"153 469 CURVE SMOOTH",
"153 446 OFFCURVE",
"168 427 OFFCURVE",
"193 427 CURVE SMOOTH"
);
}
);
width = 1240;
},
{
components = (
{
name = L;
}
);
layerId = "2EAAA3E6-1429-4D6D-BAD7-A55486495AAE";
paths = (
{
closed = 1;
nodes = (
"180 379 OFFCURVE",
"204 384 OFFCURVE",
"221 391 CURVE SMOOTH",
"738 591 LINE SMOOTH",
"793 612 OFFCURVE",
"820 636 OFFCURVE",
"827 673 CURVE SMOOTH",
"836 721 OFFCURVE",
"810 756 OFFCURVE",
"761 756 CURVE SMOOTH",
"749 756 OFFCURVE",
"725 751 OFFCURVE",
"709 745 CURVE SMOOTH",
"197 547 LINE SMOOTH",
"140 525 OFFCURVE",
"112 506 OFFCURVE",
"106 469 CURVE SMOOTH",
"97 414 OFFCURVE",
"120 379 OFFCURVE",
"168 379 CURVE SMOOTH"
);
}
);
width = 1240;
}
);
unicode = 0141;
},
{
glyphname = M;
lastChange = "2017-12-08 20:16:57 +0000";
layers = (
{
anchors = (
{
name = bottom;
position = "{620, 0}";
},
{
name = top;
position = "{620, 1171}";
}
);
layerId = "840BD324-B0A6-42B0-BD23-CB5E8C19394F";
paths = (
{
closed = 1;
nodes = (
"417 0 LINE SMOOTH",
"451 0 OFFCURVE",
"468 22 OFFCURVE",
"468 44 CURVE SMOOTH",
"468 65 OFFCURVE",
"452 86 OFFCURVE",
"418 86 CURVE SMOOTH",
"295 86 LINE",
"295 940 LINE",
"295 978 LINE",
"310 945 LINE",
"567 385 LINE SMOOTH",
"581 355 OFFCURVE",
"601 342 OFFCURVE",
"625 342 CURVE SMOOTH",
"650 342 OFFCURVE",
"670 353 OFFCURVE",
"684 385 CURVE SMOOTH",
"936 946 LINE",
"951 979 LINE",
"951 935 LINE",
"951 86 LINE",
"815 86 LINE SMOOTH",
"782 86 OFFCURVE",
"766 65 OFFCURVE",
"766 44 CURVE SMOOTH",
"766 22 OFFCURVE",
"783 0 OFFCURVE",
"817 0 CURVE SMOOTH",
"1170 0 LINE SMOOTH",
"1203 0 OFFCURVE",
"1220 22 OFFCURVE",
"1220 44 CURVE SMOOTH",
"1220 65 OFFCURVE",
"1204 86 OFFCURVE",
"1172 86 CURVE SMOOTH",
"1044 86 LINE",
"1044 1085 LINE",
"1157 1085 LINE SMOOTH",
"1190 1085 OFFCURVE",
"1207 1106 OFFCURVE",
"1207 1127 CURVE SMOOTH",
"1207 1149 OFFCURVE",
"1190 1171 OFFCURVE",
"1156 1171 CURVE SMOOTH",
"974 1171 LINE SMOOTH",
"952 1171 OFFCURVE",
"937 1158 OFFCURVE",
"929 1141 CURVE SMOOTH",
"630 470 LINE",
"318 1136 LINE SMOOTH",
"310 1154 OFFCURVE",
"296 1171 OFFCURVE",
"272 1171 CURVE SMOOTH",
"84 1171 LINE SMOOTH",
"51 1171 OFFCURVE",
"34 1149 OFFCURVE",
"34 1127 CURVE SMOOTH",
"34 1106 OFFCURVE",
"50 1085 OFFCURVE",
"83 1085 CURVE SMOOTH",
"203 1085 LINE",
"203 86 LINE",
"69 86 LINE SMOOTH",
"36 86 OFFCURVE",
"20 64 OFFCURVE",
"20 43 CURVE SMOOTH",
"20 21 OFFCURVE",
"37 0 OFFCURVE",
"70 0 CURVE SMOOTH"
);
}
);
width = 1240;
},
{
anchors = (
{
name = bottom;
position = "{620, 0}";
},
{
name = top;
position = "{620, 1171}";
}
);
layerId = "F2E12B84-E402-48AA-89E7-06534AE23493";
paths = (
{
closed = 1;
nodes = (
"417 0 LINE SMOOTH",
"471 0 OFFCURVE",
"498 47 OFFCURVE",
"498 89 CURVE SMOOTH",
"498 135 OFFCURVE",
"472 176 OFFCURVE",
"418 176 CURVE SMOOTH",
"375 176 LINE",
"375 648 LINE",
"375 728 LINE",
"406 660 LINE",
"567 395 LINE SMOOTH",
"585 365 OFFCURVE",
"601 352 OFFCURVE",
"625 352 CURVE SMOOTH",
"650 352 OFFCURVE",
"665 362 OFFCURVE",
"684 395 CURVE SMOOTH",
"836 667 LINE",
"861 729 LINE",
"861 661 LINE",
"861 176 LINE",
"815 176 LINE SMOOTH",
"762 176 OFFCURVE",
"736 135 OFFCURVE",
"736 89 CURVE SMOOTH",
"736 47 OFFCURVE",
"763 0 OFFCURVE",
"817 0 CURVE SMOOTH",
"1130 0 LINE SMOOTH",
"1183 0 OFFCURVE",
"1210 47 OFFCURVE",
"1210 89 CURVE SMOOTH",
"1210 130 OFFCURVE",
"1184 176 OFFCURVE",
"1132 176 CURVE SMOOTH",
"1074 176 LINE",
"1074 995 LINE",
"1117 995 LINE SMOOTH",
"1170 995 OFFCURVE",
"1207 1041 OFFCURVE",
"1207 1082 CURVE SMOOTH",
"1207 1124 OFFCURVE",
"1180 1171 OFFCURVE",
"1116 1171 CURVE SMOOTH",
"979 1171 LINE SMOOTH",
"947 1171 OFFCURVE",
"924 1158 OFFCURVE",
"908 1132 CURVE SMOOTH",
"636 690 LINE",
"353 1129 LINE SMOOTH",
"337 1154 OFFCURVE",
"316 1171 OFFCURVE",
"282 1171 CURVE SMOOTH",
"124 1171 LINE SMOOTH",
"61 1171 OFFCURVE",
"34 1124 OFFCURVE",
"34 1082 CURVE SMOOTH",
"34 1041 OFFCURVE",
"60 995 OFFCURVE",
"123 995 CURVE SMOOTH",
"168 995 LINE",
"168 176 LINE",
"109 176 LINE SMOOTH",
"56 176 OFFCURVE",
"30 129 OFFCURVE",
"30 88 CURVE SMOOTH",
"30 46 OFFCURVE",
"57 0 OFFCURVE",
"110 0 CURVE SMOOTH"
);
}
);
width = 1240;
},
{
anchors = (
{
name = bottom;
position = "{552, 0}";
},
{
name = top;
position = "{758, 1171}";
}
);
layerId = "440824D2-40E3-4EBC-B94D-DAF81B1E7F5E";
paths = (
{
closed = 1;
nodes = (
"349 0 LINE SMOOTH",
"383 0 OFFCURVE",
"404 22 OFFCURVE",
"407 44 CURVE SMOOTH",
"410 65 OFFCURVE",
"399 86 OFFCURVE",
"365 86 CURVE SMOOTH",
"242 86 LINE",
"391 940 LINE",
"398 978 LINE",
"407 945 LINE",
"571 385 LINE SMOOTH",
"580 355 OFFCURVE",
"597 342 OFFCURVE",
"621 342 CURVE SMOOTH",
"646 342 OFFCURVE",
"663 353 OFFCURVE",
"683 385 CURVE SMOOTH",
"1033 946 LINE",
"1054 979 LINE",
"1046 935 LINE",
"898 86 LINE",
"762 86 LINE SMOOTH",
"729 86 OFFCURVE",
"709 65 OFFCURVE",
"705 44 CURVE SMOOTH",
"701 22 OFFCURVE",
"715 0 OFFCURVE",
"749 0 CURVE SMOOTH",
"1102 0 LINE SMOOTH",
"1135 0 OFFCURVE",
"1156 22 OFFCURVE",
"1159 44 CURVE SMOOTH",
"1162 65 OFFCURVE",
"1151 86 OFFCURVE",
"1119 86 CURVE SMOOTH",
"991 86 LINE",
"1165 1085 LINE",
"1278 1085 LINE SMOOTH",
"1311 1085 OFFCURVE",
"1332 1106 OFFCURVE",
"1336 1127 CURVE SMOOTH",
"1340 1149 OFFCURVE",
"1326 1171 OFFCURVE",
"1292 1171 CURVE SMOOTH",
"1110 1171 LINE SMOOTH",
"1088 1171 OFFCURVE",
"1071 1158 OFFCURVE",
"1060 1141 CURVE SMOOTH",
"641 470 LINE",
"445 1136 LINE SMOOTH",
"440 1154 OFFCURVE",
"429 1171 OFFCURVE",
"405 1171 CURVE SMOOTH",
"220 1171 LINE SMOOTH",
"187 1171 OFFCURVE",
"166 1149 OFFCURVE",
"163 1127 CURVE SMOOTH",
"160 1106 OFFCURVE",
"171 1085 OFFCURVE",
"204 1085 CURVE SMOOTH",
"324 1085 LINE",
"150 86 LINE",
"16 86 LINE SMOOTH",
"-17 86 OFFCURVE",
"-37 64 OFFCURVE",
"-41 43 CURVE SMOOTH",
"-45 21 OFFCURVE",
"-31 0 OFFCURVE",
"2 0 CURVE SMOOTH"
);
}
);
width = 1240;
},
{
anchors = (
{
name = bottom;
position = "{552, 0}";
},
{
name = top;
position = "{758, 1171}";
}
);
layerId = "2EAAA3E6-1429-4D6D-BAD7-A55486495AAE";
paths = (
{
closed = 1;
nodes = (
"349 0 LINE SMOOTH",
"403 0 OFFCURVE",
"438 47 OFFCURVE",
"445 89 CURVE SMOOTH",
"453 135 OFFCURVE",
"434 176 OFFCURVE",
"380 176 CURVE SMOOTH",
"337 176 LINE",
"420 648 LINE",
"434 728 LINE",
"453 660 LINE",
"578 405 LINE SMOOTH",
"592 376 OFFCURVE",
"604 362 OFFCURVE",
"628 362 CURVE SMOOTH",
"653 362 OFFCURVE",
"671 372 OFFCURVE",
"695 405 CURVE SMOOTH",
"884 667 LINE",
"920 729 LINE",
"908 661 LINE",
"823 176 LINE",
"777 176 LINE SMOOTH",
"724 176 OFFCURVE",
"691 135 OFFCURVE",
"683 89 CURVE SMOOTH",
"676 47 OFFCURVE",
"695 0 OFFCURVE",
"749 0 CURVE SMOOTH",
"1062 0 LINE SMOOTH",
"1115 0 OFFCURVE",
"1150 47 OFFCURVE",
"1157 89 CURVE SMOOTH",
"1164 130 OFFCURVE",
"1146 176 OFFCURVE",
"1094 176 CURVE SMOOTH",
"1036 176 LINE",
"1180 995 LINE",
"1223 995 LINE SMOOTH",
"1276 995 OFFCURVE",
"1321 1041 OFFCURVE",
"1328 1082 CURVE SMOOTH",
"1335 1124 OFFCURVE",
"1316 1171 OFFCURVE",
"1252 1171 CURVE SMOOTH",
"1085 1171 LINE SMOOTH",
"1053 1171 OFFCURVE",
"1027 1159 OFFCURVE",
"1007 1132 CURVE SMOOTH",
"678 690 LINE",
"472 1129 LINE SMOOTH",
"460 1154 OFFCURVE",
"442 1171 OFFCURVE",
"408 1171 CURVE SMOOTH",
"260 1171 LINE SMOOTH",
"197 1171 OFFCURVE",
"162 1124 OFFCURVE",
"155 1082 CURVE SMOOTH",
"148 1041 OFFCURVE",
"166 995 OFFCURVE",
"229 995 CURVE SMOOTH",
"274 995 LINE",
"130 176 LINE",
"71 176 LINE SMOOTH",
"18 176 OFFCURVE",
"-16 129 OFFCURVE",
"-23 88 CURVE SMOOTH",
"-30 46 OFFCURVE",
"-11 0 OFFCURVE",
"42 0 CURVE SMOOTH"
);
}
);
width = 1240;
}
);
unicode = 004D;
},
{
glyphname = N;
lastChange = "2017-12-23 22:40:08 +0000";
layers = (
{
anchors = (
{
name = bottom;
position = "{680, -140}";
},
{
name = top;
position = "{620, 1171}";
}
);
layerId = "840BD324-B0A6-42B0-BD23-CB5E8C19394F";
paths = (
{
closed = 1;
nodes = (
"1005 -16 OFFCURVE",
"1027 4 OFFCURVE",
"1027 47 CURVE SMOOTH",
"1027 1085 LINE",
"1127 1085 LINE SMOOTH",
"1159 1085 OFFCURVE",
"1175 1106 OFFCURVE",
"1175 1127 CURVE SMOOTH",
"1175 1149 OFFCURVE",
"1158 1171 OFFCURVE",
"1125 1171 CURVE SMOOTH",
"786 1171 LINE SMOOTH",
"752 1171 OFFCURVE",
"735 1149 OFFCURVE",
"735 1127 CURVE SMOOTH",
"735 1106 OFFCURVE",
"751 1085 OFFCURVE",
"784 1085 CURVE SMOOTH",
"936 1085 LINE",
"939 176 LINE",
"407 1147 LINE SMOOTH",
"398 1163 OFFCURVE",
"389 1171 OFFCURVE",
"367 1171 CURVE SMOOTH",
"120 1171 LINE SMOOTH",
"87 1171 OFFCURVE",
"70 1149 OFFCURVE",
"70 1127 CURVE SMOOTH",
"70 1106 OFFCURVE",
"86 1085 OFFCURVE",
"119 1085 CURVE SMOOTH",
"267 1085 LINE",
"267 86 LINE",
"149 86 LINE SMOOTH",
"116 86 OFFCURVE",
"100 64 OFFCURVE",
"100 43 CURVE SMOOTH",
"100 21 OFFCURVE",
"117 0 OFFCURVE",
"150 0 CURVE SMOOTH",
"498 0 LINE SMOOTH",
"531 0 OFFCURVE",
"548 21 OFFCURVE",
"548 43 CURVE SMOOTH",
"548 64 OFFCURVE",
"532 86 OFFCURVE",
"499 86 CURVE SMOOTH",
"361 86 LINE",
"361 1042 LINE",
"924 22 LINE SMOOTH",
"938 -3 OFFCURVE",
"958 -16 OFFCURVE",
"979 -16 CURVE SMOOTH"
);
}
);
width = 1240;
},
{
anchors = (
{
name = bottom;
position = "{620, 0}";
},
{
name = top;
position = "{620, 1171}";
}
);
layerId = "F2E12B84-E402-48AA-89E7-06534AE23493";
paths = (
{
closed = 1;
nodes = (
"1038 -16 OFFCURVE",
"1067 4 OFFCURVE",
"1067 47 CURVE SMOOTH",
"1067 995 LINE",
"1106 995 LINE SMOOTH",
"1168 995 OFFCURVE",
"1195 1041 OFFCURVE",
"1195 1082 CURVE SMOOTH",
"1195 1124 OFFCURVE",
"1168 1171 OFFCURVE",
"1105 1171 CURVE SMOOTH",
"776 1171 LINE SMOOTH",
"712 1171 OFFCURVE",
"685 1124 OFFCURVE",
"685 1082 CURVE SMOOTH",
"685 1041 OFFCURVE",
"711 995 OFFCURVE",
"774 995 CURVE SMOOTH",
"856 995 LINE",
"859 496 LINE",
"392 1128 LINE SMOOTH",
"375 1151 OFFCURVE",
"359 1171 OFFCURVE",
"327 1171 CURVE SMOOTH",
"140 1171 LINE SMOOTH",
"77 1171 OFFCURVE",
"50 1124 OFFCURVE",
"50 1082 CURVE SMOOTH",
"50 1041 OFFCURVE",
"76 995 OFFCURVE",
"139 995 CURVE SMOOTH",
"187 995 LINE",
"187 176 LINE",
"149 176 LINE SMOOTH",
"86 176 OFFCURVE",
"60 129 OFFCURVE",
"60 88 CURVE SMOOTH",
"60 46 OFFCURVE",
"87 0 OFFCURVE",
"150 0 CURVE SMOOTH",
"478 0 LINE SMOOTH",
"541 0 OFFCURVE",
"568 46 OFFCURVE",
"568 88 CURVE SMOOTH",
"568 129 OFFCURVE",
"542 176 OFFCURVE",
"479 176 CURVE SMOOTH",
"411 176 LINE",
"411 712 LINE",
"920 39 LINE SMOOTH",
"951 -2 OFFCURVE",
"978 -16 OFFCURVE",
"1009 -16 CURVE SMOOTH"
);
}
);
width = 1240;
},
{
anchors = (
{
name = bottom;
position = "{582, 0}";
},
{
name = top;
position = "{758, 1171}";
}
);
layerId = "440824D2-40E3-4EBC-B94D-DAF81B1E7F5E";
paths = (
{
closed = 1;
nodes = (
"917 -16 OFFCURVE",
"940 4 OFFCURVE",
"948 47 CURVE SMOOTH",
"1150 1085 LINE",
"1260 1085 LINE SMOOTH",
"1292 1085 OFFCURVE",
"1317 1106 OFFCURVE",
"1317 1134 CURVE SMOOTH",
"1317 1155 OFFCURVE",
"1309 1171 OFFCURVE",
"1276 1171 CURVE SMOOTH",
"927 1171 LINE SMOOTH",
"893 1171 OFFCURVE",
"867 1155 OFFCURVE",
"867 1124 CURVE SMOOTH",
"867 1104 OFFCURVE",
"874 1085 OFFCURVE",
"907 1085 CURVE SMOOTH",
"1059 1085 LINE",
"884 169 LINE",
"541 1147 LINE SMOOTH",
"535 1163 OFFCURVE",
"528 1171 OFFCURVE",
"506 1171 CURVE SMOOTH",
"261 1171 LINE SMOOTH",
"228 1171 OFFCURVE",
"202 1154 OFFCURVE",
"202 1124 CURVE SMOOTH",
"202 1103 OFFCURVE",
"209 1085 OFFCURVE",
"242 1085 CURVE SMOOTH",
"390 1085 LINE",
"181 86 LINE",
"63 86 LINE SMOOTH",
"30 86 OFFCURVE",
"5 64 OFFCURVE",
"5 39 CURVE SMOOTH",
"5 21 OFFCURVE",
"13 0 OFFCURVE",
"46 0 CURVE SMOOTH",
"394 0 LINE SMOOTH",
"427 0 OFFCURVE",
"453 21 OFFCURVE",
"453 47 CURVE SMOOTH",
"453 64 OFFCURVE",
"446 86 OFFCURVE",
"413 86 CURVE SMOOTH",
"275 86 LINE",
"478 1058 LINE",
"844 22 LINE SMOOTH",
"853 -3 OFFCURVE",
"870 -16 OFFCURVE",
"891 -16 CURVE SMOOTH"
);
}
);
width = 1240;
},
{
anchors = (
{
name = bottom;
position = "{552, 0}";
},
{
name = top;
position = "{758, 1171}";
}
);
layerId = "2EAAA3E6-1429-4D6D-BAD7-A55486495AAE";
paths = (
{
closed = 1;
nodes = (
"966 -16 OFFCURVE",
"998 4 OFFCURVE",
"1006 47 CURVE SMOOTH",
"1172 996 LINE",
"1215 996 LINE SMOOTH",
"1273 996 OFFCURVE",
"1308 1041 OFFCURVE",
"1316 1084 CURVE SMOOTH",
"1323 1124 OFFCURVE",
"1293 1171 OFFCURVE",
"1245 1171 CURVE SMOOTH",
"890 1171 LINE SMOOTH",
"832 1171 OFFCURVE",
"785 1140 OFFCURVE",
"780 1081 CURVE SMOOTH",
"776 1034 OFFCURVE",
"810 996 OFFCURVE",
"858 996 CURVE SMOOTH",
"961 996 LINE",
"877 486 LINE",
"500 1128 LINE SMOOTH",
"486 1151 OFFCURVE",
"475 1171 OFFCURVE",
"443 1171 CURVE SMOOTH",
"276 1171 LINE SMOOTH",
"217 1171 OFFCURVE",
"169 1129 OFFCURVE",
"169 1070 CURVE SMOOTH",
"169 1034 OFFCURVE",
"189 995 OFFCURVE",
"244 995 CURVE SMOOTH",
"292 995 LINE",
"149 177 LINE",
"95 177 LINE SMOOTH",
"37 177 OFFCURVE",
"3 129 OFFCURVE",
"-5 86 CURVE SMOOTH",
"-12 46 OFFCURVE",
"17 0 OFFCURVE",
"65 0 CURVE SMOOTH",
"429 0 LINE SMOOTH",
"487 0 OFFCURVE",
"522 45 OFFCURVE",
"529 86 CURVE SMOOTH",
"536 129 OFFCURVE",
"509 178 OFFCURVE",
"461 177 CURVE SMOOTH",
"373 176 LINE",
"466 712 LINE",
"858 39 LINE SMOOTH",
"882 -2 OFFCURVE",
"906 -16 OFFCURVE",
"937 -16 CURVE SMOOTH"
);
}
);
width = 1240;
}
);
unicode = 004E;
},
{
glyphname = NJ;
lastChange = "2017-12-25 23:57:26 +0000";
layers = (
{
background = {
paths = (
{
closed = 1;
nodes = (
"1055 -13 OFFCURVE",
"1151 72 OFFCURVE",
"1151 367 CURVE SMOOTH",
"1151 1085 LINE",
"1225 1085 LINE SMOOTH",
"1258 1085 OFFCURVE",
"1274 1107 OFFCURVE",
"1274 1128 CURVE SMOOTH",
"1274 1150 OFFCURVE",
"1257 1171 OFFCURVE",
"1224 1171 CURVE SMOOTH",
"506 1171 LINE SMOOTH",
"472 1171 OFFCURVE",
"455 1149 OFFCURVE",
"455 1127 CURVE SMOOTH",
"455 1106 OFFCURVE",
"471 1085 OFFCURVE",
"504 1085 CURVE SMOOTH",
"595 1085 LINE",
"595 257 LINE",
"273 1147 LINE SMOOTH",
"267 1164 OFFCURVE",
"255 1171 OFFCURVE",
"233 1171 CURVE SMOOTH",
"80 1171 LINE SMOOTH",
"47 1171 OFFCURVE",
"30 1149 OFFCURVE",
"30 1127 CURVE SMOOTH",
"30 1106 OFFCURVE",
"46 1085 OFFCURVE",
"79 1085 CURVE SMOOTH",
"135 1085 LINE",
"135 86 LINE",
"99 86 LINE SMOOTH",
"66 86 OFFCURVE",
"50 64 OFFCURVE",
"50 43 CURVE SMOOTH",
"50 21 OFFCURVE",
"67 0 OFFCURVE",
"100 0 CURVE SMOOTH",
"298 0 LINE SMOOTH",
"331 0 OFFCURVE",
"348 21 OFFCURVE",
"348 43 CURVE SMOOTH",
"348 64 OFFCURVE",
"332 86 OFFCURVE",
"299 86 CURVE SMOOTH",
"225 86 LINE",
"225 1024 LINE",
"594 28 LINE SMOOTH",
"603 3 OFFCURVE",
"619 -10 OFFCURVE",
"640 -10 CURVE SMOOTH",
"666 -10 OFFCURVE",
"682 10 OFFCURVE",
"682 53 CURVE SMOOTH",
"682 1085 LINE",
"1058 1085 LINE",
"1058 364 LINE SMOOTH",
"1058 149 OFFCURVE",
"997 73 OFFCURVE",
"921 73 CURVE SMOOTH",
"823 73 OFFCURVE",
"811 166 OFFCURVE",
"761 166 CURVE SMOOTH",
"740 166 OFFCURVE",
"721 150 OFFCURVE",
"721 127 CURVE SMOOTH",
"721 110 OFFCURVE",
"731 94 OFFCURVE",
"747 74 CURVE SMOOTH",
"778 35 OFFCURVE",
"829 -13 OFFCURVE",
"921 -13 CURVE SMOOTH"
);
}
);
};
layerId = "840BD324-B0A6-42B0-BD23-CB5E8C19394F";
paths = (
{
closed = 1;
nodes = (
"1065 -13 OFFCURVE",
"1151 94 OFFCURVE",
"1151 297 CURVE SMOOTH",
"1151 1085 LINE",
"1225 1085 LINE SMOOTH",
"1258 1085 OFFCURVE",
"1274 1107 OFFCURVE",
"1274 1128 CURVE SMOOTH",
"1274 1150 OFFCURVE",
"1257 1171 OFFCURVE",
"1224 1171 CURVE SMOOTH",
"506 1171 LINE SMOOTH",
"472 1171 OFFCURVE",
"455 1149 OFFCURVE",
"455 1127 CURVE SMOOTH",
"455 1106 OFFCURVE",
"471 1085 OFFCURVE",
"504 1085 CURVE SMOOTH",
"595 1085 LINE",
"595 257 LINE",
"273 1147 LINE SMOOTH",
"267 1164 OFFCURVE",
"255 1171 OFFCURVE",
"233 1171 CURVE SMOOTH",
"80 1171 LINE SMOOTH",
"47 1171 OFFCURVE",
"30 1149 OFFCURVE",
"30 1127 CURVE SMOOTH",
"30 1106 OFFCURVE",
"46 1085 OFFCURVE",
"79 1085 CURVE SMOOTH",
"135 1085 LINE",
"135 86 LINE",
"99 86 LINE SMOOTH",
"66 86 OFFCURVE",
"50 64 OFFCURVE",
"50 43 CURVE SMOOTH",
"50 21 OFFCURVE",
"67 0 OFFCURVE",
"100 0 CURVE SMOOTH",
"298 0 LINE SMOOTH",
"331 0 OFFCURVE",
"348 21 OFFCURVE",
"348 43 CURVE SMOOTH",
"348 64 OFFCURVE",
"332 86 OFFCURVE",
"299 86 CURVE SMOOTH",
"225 86 LINE",
"225 1024 LINE",
"594 28 LINE SMOOTH",
"603 3 OFFCURVE",
"619 -10 OFFCURVE",
"640 -10 CURVE SMOOTH",
"666 -10 OFFCURVE",
"682 10 OFFCURVE",
"682 53 CURVE SMOOTH",
"682 1085 LINE",
"1058 1085 LINE",
"1058 294 LINE SMOOTH",
"1058 148 OFFCURVE",
"1005 73 OFFCURVE",
"921 73 CURVE SMOOTH",
"823 73 OFFCURVE",
"812 169 OFFCURVE",
"765 169 CURVE SMOOTH",
"741 169 OFFCURVE",
"721 150 OFFCURVE",
"721 127 CURVE SMOOTH",
"721 110 OFFCURVE",
"731 94 OFFCURVE",
"747 74 CURVE SMOOTH",
"778 35 OFFCURVE",
"829 -13 OFFCURVE",
"921 -13 CURVE SMOOTH"
);
}
);
width = 1240;
},
{
layerId = "F2E12B84-E402-48AA-89E7-06534AE23493";
paths = (
{
closed = 1;
nodes = (
"1085 -13 OFFCURVE",
"1171 72 OFFCURVE",
"1171 367 CURVE SMOOTH",
"1171 1025 LINE",
"1205 1025 LINE SMOOTH",
"1258 1025 OFFCURVE",
"1274 1067 OFFCURVE",
"1274 1098 CURVE SMOOTH",
"1274 1130 OFFCURVE",
"1257 1171 OFFCURVE",
"1204 1171 CURVE SMOOTH",
"466 1171 LINE SMOOTH",
"412 1171 OFFCURVE",
"395 1129 OFFCURVE",
"395 1097 CURVE SMOOTH",
"395 1066 OFFCURVE",
"411 1025 OFFCURVE",
"464 1025 CURVE SMOOTH",
"515 1025 LINE",
"515 517 LINE",
"265 1126 LINE SMOOTH",
"254 1152 OFFCURVE",
"235 1171 OFFCURVE",
"203 1171 CURVE SMOOTH",
"80 1171 LINE SMOOTH",
"27 1171 OFFCURVE",
"10 1129 OFFCURVE",
"10 1097 CURVE SMOOTH",
"10 1066 OFFCURVE",
"26 1025 OFFCURVE",
"79 1025 CURVE SMOOTH",
"115 1025 LINE",
"115 146 LINE",
"99 146 LINE SMOOTH",
"46 146 OFFCURVE",
"30 104 OFFCURVE",
"30 73 CURVE SMOOTH",
"30 41 OFFCURVE",
"47 0 OFFCURVE",
"100 0 CURVE SMOOTH",
"298 0 LINE SMOOTH",
"351 0 OFFCURVE",
"368 41 OFFCURVE",
"368 73 CURVE SMOOTH",
"368 104 OFFCURVE",
"352 146 OFFCURVE",
"299 146 CURVE SMOOTH",
"275 146 LINE",
"275 704 LINE",
"570 46 LINE SMOOTH",
"585 13 OFFCURVE",
"599 -10 OFFCURVE",
"630 -10 CURVE SMOOTH",
"666 -10 OFFCURVE",
"682 10 OFFCURVE",
"682 53 CURVE SMOOTH",
"682 1025 LINE",
"990 1025 LINE",
"990 364 LINE SMOOTH",
"990 219 OFFCURVE",
"966 153 OFFCURVE",
"911 153 CURVE SMOOTH",
"881 153 OFFCURVE",
"864 188 OFFCURVE",
"843 204 CURVE SMOOTH",
"820 222 OFFCURVE",
"781 228 OFFCURVE",
"752 201 CURVE SMOOTH",
"717 170 OFFCURVE",
"719 114 OFFCURVE",
"735 79 CURVE SMOOTH",
"759 24 OFFCURVE",
"841 -13 OFFCURVE",
"901 -13 CURVE SMOOTH"
);
}
);
width = 1240;
},
{
layerId = "440824D2-40E3-4EBC-B94D-DAF81B1E7F5E";
paths = (
{
closed = 1;
nodes = (
"996 -13 OFFCURVE",
"1097 72 OFFCURVE",
"1148 367 CURVE SMOOTH",
"1273 1085 LINE",
"1347 1085 LINE SMOOTH",
"1380 1085 OFFCURVE",
"1404 1107 OFFCURVE",
"1404 1135 CURVE SMOOTH",
"1404 1150 OFFCURVE",
"1394 1171 OFFCURVE",
"1361 1171 CURVE SMOOTH",
"643 1171 LINE SMOOTH",
"609 1171 OFFCURVE",
"585 1149 OFFCURVE",
"585 1122 CURVE SMOOTH",
"585 1106 OFFCURVE",
"593 1085 OFFCURVE",
"626 1085 CURVE SMOOTH",
"717 1085 LINE",
"573 257 LINE",
"406 1147 LINE SMOOTH",
"403 1164 OFFCURVE",
"392 1171 OFFCURVE",
"370 1171 CURVE SMOOTH",
"217 1171 LINE SMOOTH",
"184 1171 OFFCURVE",
"160 1149 OFFCURVE",
"160 1121 CURVE SMOOTH",
"160 1106 OFFCURVE",
"168 1085 OFFCURVE",
"201 1085 CURVE SMOOTH",
"257 1085 LINE",
"83 86 LINE",
"47 86 LINE SMOOTH",
"14 86 OFFCURVE",
"-10 64 OFFCURVE",
"-10 38 CURVE SMOOTH",
"-10 21 OFFCURVE",
"0 0 OFFCURVE",
"33 0 CURVE SMOOTH",
"231 0 LINE SMOOTH",
"264 0 OFFCURVE",
"288 21 OFFCURVE",
"288 48 CURVE SMOOTH",
"288 64 OFFCURVE",
"280 86 OFFCURVE",
"247 86 CURVE SMOOTH",
"173 86 LINE",
"337 1024 LINE",
"532 28 LINE SMOOTH",
"537 3 OFFCURVE",
"550 -10 OFFCURVE",
"571 -10 CURVE SMOOTH",
"597 -10 OFFCURVE",
"617 10 OFFCURVE",
"624 53 CURVE SMOOTH",
"804 1085 LINE",
"1180 1085 LINE",
"1054 364 LINE SMOOTH",
"1016 149 OFFCURVE",
"953 77 OFFCURVE",
"887 77 CURVE SMOOTH",
"831 77 OFFCURVE",
"803 115 OFFCURVE",
"780 142 CURVE SMOOTH",
"766 159 OFFCURVE",
"750 169 OFFCURVE",
"735 169 CURVE SMOOTH",
"710 169 OFFCURVE",
"696 149 OFFCURVE",
"696 126 CURVE SMOOTH",
"696 56 OFFCURVE",
"794 -13 OFFCURVE",
"887 -13 CURVE SMOOTH"
);
}
);
width = 1240;
},
{
layerId = "2EAAA3E6-1429-4D6D-BAD7-A55486495AAE";
paths = (
{
closed = 1;
nodes = (
"1015 -13 OFFCURVE",
"1116 72 OFFCURVE",
"1168 367 CURVE SMOOTH",
"1284 1025 LINE",
"1318 1025 LINE SMOOTH",
"1371 1025 OFFCURVE",
"1394 1067 OFFCURVE",
"1400 1098 CURVE SMOOTH",
"1406 1130 OFFCURVE",
"1395 1171 OFFCURVE",
"1342 1171 CURVE SMOOTH",
"604 1171 LINE SMOOTH",
"550 1171 OFFCURVE",
"526 1129 OFFCURVE",
"520 1097 CURVE SMOOTH",
"514 1066 OFFCURVE",
"524 1025 OFFCURVE",
"577 1025 CURVE SMOOTH",
"628 1025 LINE",
"538 517 LINE",
"395 1126 LINE SMOOTH",
"389 1152 OFFCURVE",
"373 1171 OFFCURVE",
"341 1171 CURVE SMOOTH",
"218 1171 LINE SMOOTH",
"165 1171 OFFCURVE",
"141 1129 OFFCURVE",
"135 1097 CURVE SMOOTH",
"129 1066 OFFCURVE",
"139 1025 OFFCURVE",
"192 1025 CURVE SMOOTH",
"228 1025 LINE",
"73 146 LINE",
"57 146 LINE SMOOTH",
"4 146 OFFCURVE",
"-20 104 OFFCURVE",
"-25 73 CURVE SMOOTH",
"-30 41 OFFCURVE",
"-21 0 OFFCURVE",
"32 0 CURVE SMOOTH",
"230 0 LINE SMOOTH",
"283 0 OFFCURVE",
"307 41 OFFCURVE",
"313 73 CURVE SMOOTH",
"319 104 OFFCURVE",
"310 146 OFFCURVE",
"257 146 CURVE SMOOTH",
"233 146 LINE",
"331 704 LINE",
"510 46 LINE SMOOTH",
"519 13 OFFCURVE",
"529 -10 OFFCURVE",
"560 -10 CURVE SMOOTH",
"596 -10 OFFCURVE",
"615 10 OFFCURVE",
"623 53 CURVE SMOOTH",
"795 1025 LINE",
"1103 1025 LINE",
"986 364 LINE SMOOTH",
"960 219 OFFCURVE",
"925 153 OFFCURVE",
"870 153 CURVE SMOOTH",
"840 153 OFFCURVE",
"825 188 OFFCURVE",
"807 204 CURVE SMOOTH",
"798 213 OFFCURVE",
"784 218 OFFCURVE",
"769 218 CURVE SMOOTH",
"723 218 OFFCURVE",
"682 180 OFFCURVE",
"682 125 CURVE SMOOTH",
"682 41 OFFCURVE",
"750 -13 OFFCURVE",
"831 -13 CURVE SMOOTH"
);
}
);
width = 1240;
}
);
unicode = 01CA;
},
{
glyphname = Eng;
lastChange = "2017-12-25 23:15:44 +0000";
layers = (
{
layerId = "840BD324-B0A6-42B0-BD23-CB5E8C19394F";
paths = (
{
closed = 1;
nodes = (
"841 -401 OFFCURVE",
"1039 -252 OFFCURVE",
"1039 1 CURVE SMOOTH",
"1039 1085 LINE",
"1135 1085 LINE SMOOTH",
"1167 1085 OFFCURVE",
"1183 1106 OFFCURVE",
"1183 1127 CURVE SMOOTH",
"1183 1149 OFFCURVE",
"1166 1171 OFFCURVE",
"1133 1171 CURVE SMOOTH",
"796 1171 LINE SMOOTH",
"762 1171 OFFCURVE",
"745 1149 OFFCURVE",
"745 1127 CURVE SMOOTH",
"745 1106 OFFCURVE",
"761 1085 OFFCURVE",
"794 1085 CURVE SMOOTH",
"943 1085 LINE",
"943 224 LINE",
"447 1147 LINE SMOOTH",
"439 1163 OFFCURVE",
"429 1171 OFFCURVE",
"407 1171 CURVE SMOOTH",
"130 1171 LINE SMOOTH",
"97 1171 OFFCURVE",
"80 1149 OFFCURVE",
"80 1127 CURVE SMOOTH",
"80 1106 OFFCURVE",
"96 1085 OFFCURVE",
"129 1085 CURVE SMOOTH",
"285 1085 LINE",
"285 86 LINE",
"159 86 LINE SMOOTH",
"126 86 OFFCURVE",
"110 64 OFFCURVE",
"110 43 CURVE SMOOTH",
"110 21 OFFCURVE",
"127 0 OFFCURVE",
"160 0 CURVE SMOOTH",
"518 0 LINE SMOOTH",
"551 0 OFFCURVE",
"568 21 OFFCURVE",
"568 43 CURVE SMOOTH",
"568 64 OFFCURVE",
"552 86 OFFCURVE",
"519 86 CURVE SMOOTH",
"381 86 LINE",
"381 1084 LINE",
"943 52 LINE",
"943 -2 LINE SMOOTH",
"943 -211 OFFCURVE",
"782 -315 OFFCURVE",
"630 -315 CURVE SMOOTH",
"597 -315 OFFCURVE",
"584 -337 OFFCURVE",
"584 -357 CURVE SMOOTH",
"584 -378 OFFCURVE",
"598 -401 OFFCURVE",
"629 -401 CURVE SMOOTH"
);
}
);
width = 1240;
},
{
layerId = "F2E12B84-E402-48AA-89E7-06534AE23493";
paths = (
{
closed = 1;
nodes = (
"885 -355 OFFCURVE",
"1067 -206 OFFCURVE",
"1067 47 CURVE SMOOTH",
"1067 995 LINE",
"1106 995 LINE SMOOTH",
"1168 995 OFFCURVE",
"1195 1041 OFFCURVE",
"1195 1082 CURVE SMOOTH",
"1195 1124 OFFCURVE",
"1168 1171 OFFCURVE",
"1105 1171 CURVE SMOOTH",
"776 1171 LINE SMOOTH",
"712 1171 OFFCURVE",
"685 1124 OFFCURVE",
"685 1082 CURVE SMOOTH",
"685 1041 OFFCURVE",
"711 995 OFFCURVE",
"774 995 CURVE SMOOTH",
"856 995 LINE",
"859 496 LINE",
"377 1147 LINE SMOOTH",
"365 1163 OFFCURVE",
"359 1171 OFFCURVE",
"337 1171 CURVE SMOOTH",
"140 1171 LINE SMOOTH",
"77 1171 OFFCURVE",
"50 1124 OFFCURVE",
"50 1082 CURVE SMOOTH",
"50 1041 OFFCURVE",
"76 995 OFFCURVE",
"139 995 CURVE SMOOTH",
"187 995 LINE",
"187 176 LINE",
"149 176 LINE SMOOTH",
"86 176 OFFCURVE",
"60 129 OFFCURVE",
"60 88 CURVE SMOOTH",
"60 46 OFFCURVE",
"87 0 OFFCURVE",
"150 0 CURVE SMOOTH",
"478 0 LINE SMOOTH",
"541 0 OFFCURVE",
"568 46 OFFCURVE",
"568 88 CURVE SMOOTH",
"568 129 OFFCURVE",
"542 176 OFFCURVE",
"479 176 CURVE SMOOTH",
"411 176 LINE",
"411 712 LINE",
"869 107 LINE",
"869 50 LINE SMOOTH",
"869 -93 OFFCURVE",
"780 -169 OFFCURVE",
"697 -169 CURVE SMOOTH",
"628 -169 OFFCURVE",
"602 -221 OFFCURVE",
"602 -261 CURVE SMOOTH",
"602 -302 OFFCURVE",
"629 -355 OFFCURVE",
"696 -355 CURVE SMOOTH"
);
}
);
width = 1240;
},
{
layerId = "440824D2-40E3-4EBC-B94D-DAF81B1E7F5E";
paths = (
{
closed = 1;
nodes = (
"693 -401 OFFCURVE",
"917 -252 OFFCURVE",
"961 1 CURVE SMOOTH",
"1150 1085 LINE",
"1246 1085 LINE SMOOTH",
"1278 1085 OFFCURVE",
"1302 1103 OFFCURVE",
"1302 1132 CURVE SMOOTH",
"1302 1149 OFFCURVE",
"1292 1171 OFFCURVE",
"1259 1171 CURVE SMOOTH",
"922 1171 LINE SMOOTH",
"888 1171 OFFCURVE",
"864 1155 OFFCURVE",
"864 1125 CURVE SMOOTH",
"864 1106 OFFCURVE",
"872 1085 OFFCURVE",
"905 1085 CURVE SMOOTH",
"1054 1085 LINE",
"904 224 LINE",
"569 1147 LINE SMOOTH",
"563 1163 OFFCURVE",
"555 1171 OFFCURVE",
"533 1171 CURVE SMOOTH",
"256 1171 LINE SMOOTH",
"223 1171 OFFCURVE",
"199 1149 OFFCURVE",
"199 1121 CURVE SMOOTH",
"199 1106 OFFCURVE",
"207 1085 OFFCURVE",
"240 1085 CURVE SMOOTH",
"396 1085 LINE",
"222 86 LINE",
"96 86 LINE SMOOTH",
"63 86 OFFCURVE",
"39 69 OFFCURVE",
"39 38 CURVE SMOOTH",
"39 21 OFFCURVE",
"49 0 OFFCURVE",
"82 0 CURVE SMOOTH",
"440 0 LINE SMOOTH",
"473 0 OFFCURVE",
"497 21 OFFCURVE",
"497 50 CURVE SMOOTH",
"497 64 OFFCURVE",
"489 86 OFFCURVE",
"456 86 CURVE SMOOTH",
"318 86 LINE",
"492 1084 LINE",
"874 52 LINE",
"864 -2 LINE SMOOTH",
"825 -211 OFFCURVE",
"649 -315 OFFCURVE",
"497 -315 CURVE SMOOTH",
"464 -315 OFFCURVE",
"440 -331 OFFCURVE",
"440 -362 CURVE SMOOTH",
"440 -378 OFFCURVE",
"450 -401 OFFCURVE",
"481 -401 CURVE SMOOTH"
);
}
);
width = 1240;
},
{
layerId = "2EAAA3E6-1429-4D6D-BAD7-A55486495AAE";
paths = (
{
closed = 1;
nodes = (
"750 -355 OFFCURVE",
"955 -226 OFFCURVE",
"1003 47 CURVE SMOOTH",
"1171 995 LINE",
"1210 995 LINE SMOOTH",
"1272 995 OFFCURVE",
"1307 1041 OFFCURVE",
"1314 1082 CURVE SMOOTH",
"1321 1124 OFFCURVE",
"1303 1171 OFFCURVE",
"1240 1171 CURVE SMOOTH",
"911 1171 LINE SMOOTH",
"847 1171 OFFCURVE",
"811 1124 OFFCURVE",
"804 1082 CURVE SMOOTH",
"797 1041 OFFCURVE",
"815 995 OFFCURVE",
"878 995 CURVE SMOOTH",
"960 995 LINE",
"875 496 LINE",
"507 1147 LINE SMOOTH",
"498 1163 OFFCURVE",
"494 1171 OFFCURVE",
"472 1171 CURVE SMOOTH",
"275 1171 LINE SMOOTH",
"212 1171 OFFCURVE",
"176 1124 OFFCURVE",
"169 1082 CURVE SMOOTH",
"162 1041 OFFCURVE",
"180 995 OFFCURVE",
"243 995 CURVE SMOOTH",
"291 995 LINE",
"146 176 LINE",
"108 176 LINE SMOOTH",
"45 176 OFFCURVE",
"11 129 OFFCURVE",
"4 88 CURVE SMOOTH",
"-4 46 OFFCURVE",
"15 0 OFFCURVE",
"78 0 CURVE SMOOTH",
"406 0 LINE SMOOTH",
"469 0 OFFCURVE",
"504 46 OFFCURVE",
"512 88 CURVE SMOOTH",
"519 129 OFFCURVE",
"501 176 OFFCURVE",
"438 176 CURVE SMOOTH",
"370 176 LINE",
"465 712 LINE",
"816 107 LINE",
"806 50 LINE SMOOTH",
"781 -93 OFFCURVE",
"678 -169 OFFCURVE",
"595 -169 CURVE SMOOTH",
"526 -169 OFFCURVE",
"491 -221 OFFCURVE",
"484 -261 CURVE SMOOTH",
"477 -302 OFFCURVE",
"494 -355 OFFCURVE",
"561 -355 CURVE SMOOTH"
);
}
);
width = 1240;
}
);
unicode = 014A;
},
{
glyphname = Nj;
lastChange = "2017-12-25 23:19:52 +0000";
layers = (
{
layerId = "840BD324-B0A6-42B0-BD23-CB5E8C19394F";
paths = (
{
closed = 1;
nodes = (
"716 -16 OFFCURVE",
"730 4 OFFCURVE",
"730 47 CURVE SMOOTH",
"730 1085 LINE",
"795 1085 LINE SMOOTH",
"827 1085 OFFCURVE",
"843 1106 OFFCURVE",
"843 1127 CURVE SMOOTH",
"843 1149 OFFCURVE",
"826 1171 OFFCURVE",
"793 1171 CURVE SMOOTH",
"566 1171 LINE SMOOTH",
"532 1171 OFFCURVE",
"515 1149 OFFCURVE",
"515 1127 CURVE SMOOTH",
"515 1106 OFFCURVE",
"531 1085 OFFCURVE",
"564 1085 CURVE SMOOTH",
"643 1085 LINE",
"643 282 LINE",
"323 1147 LINE SMOOTH",
"317 1164 OFFCURVE",
"305 1171 OFFCURVE",
"283 1171 CURVE SMOOTH",
"90 1171 LINE SMOOTH",
"57 1171 OFFCURVE",
"40 1149 OFFCURVE",
"40 1127 CURVE SMOOTH",
"40 1106 OFFCURVE",
"56 1085 OFFCURVE",
"89 1085 CURVE SMOOTH",
"165 1085 LINE",
"165 86 LINE",
"109 86 LINE SMOOTH",
"76 86 OFFCURVE",
"60 64 OFFCURVE",
"60 43 CURVE SMOOTH",
"60 21 OFFCURVE",
"77 0 OFFCURVE",
"110 0 CURVE SMOOTH",
"328 0 LINE SMOOTH",
"361 0 OFFCURVE",
"378 21 OFFCURVE",
"378 43 CURVE SMOOTH",
"378 64 OFFCURVE",
"362 86 OFFCURVE",
"329 86 CURVE SMOOTH",
"255 86 LINE",
"255 1064 LINE",
"644 22 LINE SMOOTH",
"653 -3 OFFCURVE",
"669 -16 OFFCURVE",
"690 -16 CURVE SMOOTH"
);
},
{
closed = 1;
nodes = (
"973 -309 OFFCURVE",
"1136 -178 OFFCURVE",
"1136 37 CURVE SMOOTH",
"1136 785 LINE SMOOTH",
"1136 806 OFFCURVE",
"1120 816 OFFCURVE",
"1100 814 CURVE SMOOTH",
"850 794 LINE SMOOTH",
"824 792 OFFCURVE",
"810 775 OFFCURVE",
"810 755 CURVE SMOOTH",
"810 734 OFFCURVE",
"825 710 OFFCURVE",
"854 712 CURVE SMOOTH",
"1040 727 LINE",
"1040 40 LINE SMOOTH",
"1040 -135 OFFCURVE",
"910 -220 OFFCURVE",
"755 -220 CURVE SMOOTH",
"716 -220 OFFCURVE",
"697 -243 OFFCURVE",
"697 -265 CURVE SMOOTH",
"697 -287 OFFCURVE",
"715 -309 OFFCURVE",
"748 -309 CURVE SMOOTH"
);
},
{
closed = 1;
nodes = (
"1102 990 OFFCURVE",
"1142 1029 OFFCURVE",
"1142 1080 CURVE SMOOTH",
"1142 1130 OFFCURVE",
"1102 1171 OFFCURVE",
"1052 1171 CURVE SMOOTH",
"1001 1171 OFFCURVE",
"961 1130 OFFCURVE",
"961 1080 CURVE SMOOTH",
"961 1029 OFFCURVE",
"1001 990 OFFCURVE",
"1052 990 CURVE SMOOTH"
);
}
);
width = 1240;
},
{
layerId = "F2E12B84-E402-48AA-89E7-06534AE23493";
paths = (
{
closed = 1;
nodes = (
"706 -10 OFFCURVE",
"722 10 OFFCURVE",
"722 53 CURVE SMOOTH",
"722 1025 LINE",
"749 1025 LINE",
"802 1025 OFFCURVE",
"811 1067 OFFCURVE",
"811 1098 CURVE SMOOTH",
"811 1130 OFFCURVE",
"794 1171 OFFCURVE",
"741 1171 CURVE SMOOTH",
"506 1171 LINE SMOOTH",
"452 1171 OFFCURVE",
"435 1129 OFFCURVE",
"435 1097 CURVE SMOOTH",
"435 1066 OFFCURVE",
"451 1025 OFFCURVE",
"504 1025 CURVE SMOOTH",
"555 1025 LINE",
"555 517 LINE",
"305 1126 LINE SMOOTH",
"294 1152 OFFCURVE",
"275 1171 OFFCURVE",
"243 1171 CURVE SMOOTH",
"100 1171 LINE SMOOTH",
"47 1171 OFFCURVE",
"30 1129 OFFCURVE",
"30 1097 CURVE SMOOTH",
"30 1066 OFFCURVE",
"46 1025 OFFCURVE",
"99 1025 CURVE SMOOTH",
"135 1025 LINE",
"135 146 LINE",
"119 146 LINE SMOOTH",
"66 146 OFFCURVE",
"50 104 OFFCURVE",
"50 73 CURVE SMOOTH",
"50 41 OFFCURVE",
"67 0 OFFCURVE",
"120 0 CURVE SMOOTH",
"338 0 LINE SMOOTH",
"391 0 OFFCURVE",
"408 41 OFFCURVE",
"408 73 CURVE SMOOTH",
"408 104 OFFCURVE",
"392 146 OFFCURVE",
"339 146 CURVE SMOOTH",
"315 146 LINE",
"315 704 LINE",
"610 46 LINE SMOOTH",
"625 13 OFFCURVE",
"639 -10 OFFCURVE",
"670 -10 CURVE SMOOTH"
);
},
{
closed = 1;
nodes = (
"1003 -318 OFFCURVE",
"1146 -178 OFFCURVE",
"1146 130 CURVE SMOOTH",
"1146 785 LINE SMOOTH",
"1146 806 OFFCURVE",
"1130 817 OFFCURVE",
"1110 814 CURVE SMOOTH",
"840 777 LINE SMOOTH",
"801 772 OFFCURVE",
"770 735 OFFCURVE",
"770 695 CURVE SMOOTH",
"770 654 OFFCURVE",
"806 613 OFFCURVE",
"864 620 CURVE SMOOTH",
"940 629 LINE",
"940 70 LINE SMOOTH",
"940 -75 OFFCURVE",
"830 -140 OFFCURVE",
"745 -140 CURVE SMOOTH",
"685 -140 OFFCURVE",
"657 -187 OFFCURVE",
"657 -229 CURVE SMOOTH",
"657 -271 OFFCURVE",
"685 -318 OFFCURVE",
"748 -318 CURVE SMOOTH"
);
},
{
closed = 1;
nodes = (
"1093 957 OFFCURVE",
"1153 1011 OFFCURVE",
"1153 1079 CURVE SMOOTH",
"1153 1145 OFFCURVE",
"1093 1202 OFFCURVE",
"1018 1202 CURVE SMOOTH",
"942 1202 OFFCURVE",
"882 1145 OFFCURVE",
"882 1079 CURVE SMOOTH",
"882 1011 OFFCURVE",
"942 957 OFFCURVE",
"1018 957 CURVE SMOOTH"
);
}
);
width = 1240;
},
{
layerId = "440824D2-40E3-4EBC-B94D-DAF81B1E7F5E";
paths = (
{
closed = 1;
nodes = (
"647 -16 OFFCURVE",
"664 4 OFFCURVE",
"672 47 CURVE SMOOTH",
"853 1085 LINE",
"918 1085 LINE SMOOTH",
"950 1085 OFFCURVE",
"974 1106 OFFCURVE",
"974 1132 CURVE SMOOTH",
"974 1154 OFFCURVE",
"964 1171 OFFCURVE",
"931 1171 CURVE SMOOTH",
"704 1171 LINE SMOOTH",
"670 1171 OFFCURVE",
"646 1148 OFFCURVE",
"646 1122 CURVE SMOOTH",
"646 1106 OFFCURVE",
"654 1085 OFFCURVE",
"687 1085 CURVE SMOOTH",
"766 1085 LINE",
"626 282 LINE",
"457 1147 LINE SMOOTH",
"454 1164 OFFCURVE",
"443 1171 OFFCURVE",
"421 1171 CURVE SMOOTH",
"228 1171 LINE SMOOTH",
"195 1171 OFFCURVE",
"171 1151 OFFCURVE",
"171 1123 CURVE SMOOTH",
"171 1106 OFFCURVE",
"179 1085 OFFCURVE",
"212 1085 CURVE SMOOTH",
"288 1085 LINE",
"114 86 LINE",
"58 86 LINE SMOOTH",
"25 86 OFFCURVE",
"1 62 OFFCURVE",
"1 36 CURVE SMOOTH",
"1 19 OFFCURVE",
"11 0 OFFCURVE",
"44 0 CURVE SMOOTH",
"262 0 LINE SMOOTH",
"295 0 OFFCURVE",
"319 23 OFFCURVE",
"319 50 CURVE SMOOTH",
"319 66 OFFCURVE",
"311 86 OFFCURVE",
"278 86 CURVE SMOOTH",
"204 86 LINE",
"375 1064 LINE",
"582 22 LINE SMOOTH",
"587 -3 OFFCURVE",
"600 -16 OFFCURVE",
"621 -16 CURVE SMOOTH"
);
},
{
closed = 1;
nodes = (
"853 -309 OFFCURVE",
"1038 -178 OFFCURVE",
"1076 37 CURVE SMOOTH",
"1207 785 LINE SMOOTH",
"1211 806 OFFCURVE",
"1196 816 OFFCURVE",
"1176 814 CURVE SMOOTH",
"922 794 LINE SMOOTH",
"896 792 OFFCURVE",
"874 777 OFFCURVE",
"876 755 CURVE SMOOTH",
"878 734 OFFCURVE",
"883 710 OFFCURVE",
"912 712 CURVE SMOOTH",
"1101 727 LINE",
"981 40 LINE SMOOTH",
"950 -135 OFFCURVE",
"805 -220 OFFCURVE",
"650 -220 CURVE SMOOTH",
"611 -220 OFFCURVE",
"584 -243 OFFCURVE",
"584 -269 CURVE SMOOTH",
"584 -287 OFFCURVE",
"595 -309 OFFCURVE",
"628 -309 CURVE SMOOTH"
);
},
{
closed = 1;
nodes = (
"1232 990 OFFCURVE",
"1272 1029 OFFCURVE",
"1272 1080 CURVE SMOOTH",
"1272 1130 OFFCURVE",
"1232 1171 OFFCURVE",
"1182 1171 CURVE SMOOTH",
"1131 1171 OFFCURVE",
"1091 1130 OFFCURVE",
"1091 1080 CURVE SMOOTH",
"1091 1029 OFFCURVE",
"1131 990 OFFCURVE",
"1182 990 CURVE SMOOTH"
);
}
);
width = 1240;
},
{
layerId = "2EAAA3E6-1429-4D6D-BAD7-A55486495AAE";
paths = (
{
closed = 1;
nodes = (
"636 -10 OFFCURVE",
"655 10 OFFCURVE",
"663 53 CURVE SMOOTH",
"835 1025 LINE",
"862 1025 LINE",
"915 1025 OFFCURVE",
"931 1067 OFFCURVE",
"937 1098 CURVE SMOOTH",
"943 1130 OFFCURVE",
"933 1171 OFFCURVE",
"880 1171 CURVE SMOOTH",
"645 1171 LINE SMOOTH",
"591 1171 OFFCURVE",
"566 1129 OFFCURVE",
"560 1097 CURVE SMOOTH",
"554 1066 OFFCURVE",
"564 1025 OFFCURVE",
"617 1025 CURVE SMOOTH",
"668 1025 LINE",
"578 517 LINE",
"436 1126 LINE SMOOTH",
"430 1152 OFFCURVE",
"414 1171 OFFCURVE",
"382 1171 CURVE SMOOTH",
"239 1171 LINE SMOOTH",
"186 1171 OFFCURVE",
"161 1129 OFFCURVE",
"155 1097 CURVE SMOOTH",
"149 1066 OFFCURVE",
"159 1025 OFFCURVE",
"212 1025 CURVE SMOOTH",
"248 1025 LINE",
"93 146 LINE",
"77 146 LINE SMOOTH",
"24 146 OFFCURVE",
"0 104 OFFCURVE",
"-5 73 CURVE SMOOTH",
"-10 41 OFFCURVE",
"-1 0 OFFCURVE",
"52 0 CURVE SMOOTH",
"270 0 LINE SMOOTH",
"323 0 OFFCURVE",
"347 41 OFFCURVE",
"353 73 CURVE SMOOTH",
"359 104 OFFCURVE",
"350 146 OFFCURVE",
"297 146 CURVE SMOOTH",
"273 146 LINE",
"371 704 LINE",
"550 46 LINE SMOOTH",
"559 13 OFFCURVE",
"569 -10 OFFCURVE",
"600 -10 CURVE SMOOTH"
);
},
{
closed = 1;
nodes = (
"879 -318 OFFCURVE",
"1045 -188 OFFCURVE",
"1101 130 CURVE SMOOTH",
"1216 785 LINE SMOOTH",
"1220 806 OFFCURVE",
"1206 817 OFFCURVE",
"1186 814 CURVE SMOOTH",
"909 777 LINE SMOOTH",
"869 772 OFFCURVE",
"832 735 OFFCURVE",
"825 695 CURVE SMOOTH",
"818 654 OFFCURVE",
"846 613 OFFCURVE",
"905 620 CURVE SMOOTH",
"983 629 LINE",
"884 70 LINE SMOOTH",
"858 -75 OFFCURVE",
"737 -140 OFFCURVE",
"652 -140 CURVE SMOOTH",
"592 -140 OFFCURVE",
"556 -187 OFFCURVE",
"549 -229 CURVE SMOOTH",
"542 -271 OFFCURVE",
"561 -318 OFFCURVE",
"624 -318 CURVE SMOOTH"
);
},
{
closed = 1;
nodes = (
"1235 957 OFFCURVE",
"1295 1011 OFFCURVE",
"1295 1079 CURVE SMOOTH",
"1295 1145 OFFCURVE",
"1235 1202 OFFCURVE",
"1160 1202 CURVE SMOOTH",
"1084 1202 OFFCURVE",
"1024 1145 OFFCURVE",
"1024 1079 CURVE SMOOTH",
"1024 1011 OFFCURVE",
"1084 957 OFFCURVE",
"1160 957 CURVE SMOOTH"
);
}
);
width = 1240;
}
);
unicode = 01CB;
},
{
glyphname = O;
lastChange = "2017-12-31 03:14:22 +0000";
layers = (
{
anchors = (
{
name = bottom;
position = "{620, 0}";
},
{
name = center;
position = "{620, 586}";
},
{
name = ogonek;
position = "{1116, 10}";
},
{
name = top;
position = "{620, 1171}";
},
{
name = topleft;
position = "{20, 1171}";
},
{
name = topright;
position = "{1141, 1291}";
}
);
layerId = "840BD324-B0A6-42B0-BD23-CB5E8C19394F";
paths = (
{
closed = 1;
nodes = (
"961 -17 OFFCURVE",
"1135 291 OFFCURVE",
"1135 582 CURVE SMOOTH",
"1135 883 OFFCURVE",
"961 1187 OFFCURVE",
"620 1187 CURVE SMOOTH",
"279 1187 OFFCURVE",
"105 883 OFFCURVE",
"105 582 CURVE SMOOTH",
"105 291 OFFCURVE",
"279 -17 OFFCURVE",
"620 -17 CURVE SMOOTH"
);
},
{
closed = 1;
nodes = (
"340 69 OFFCURVE",
"201 336 OFFCURVE",
"201 582 CURVE SMOOTH",
"201 842 OFFCURVE",
"344 1101 OFFCURVE",
"620 1101 CURVE SMOOTH",
"896 1101 OFFCURVE",
"1039 842 OFFCURVE",
"1039 582 CURVE SMOOTH",
"1039 336 OFFCURVE",
"900 69 OFFCURVE",
"620 69 CURVE SMOOTH"
);
}
);
width = 1240;
},
{
anchors = (
{
name = bottom;
position = "{620, 0}";
},
{
name = center;
position = "{620, 586}";
},
{
name = ogonek;
position = "{1116, 10}";
},
{
name = top;
position = "{620, 1171}";
},
{
name = topleft;
position = "{20, 1171}";
},
{
name = topright;
position = "{973, 941}";
}
);
layerId = "F2E12B84-E402-48AA-89E7-06534AE23493";
paths = (
{
closed = 1;
nodes = (
"935 -17 OFFCURVE",
"1145 223 OFFCURVE",
"1145 582 CURVE SMOOTH",
"1145 945 OFFCURVE",
"935 1187 OFFCURVE",
"620 1187 CURVE SMOOTH",
"305 1187 OFFCURVE",
"95 945 OFFCURVE",
"95 582 CURVE SMOOTH",
"95 223 OFFCURVE",
"305 -17 OFFCURVE",
"620 -17 CURVE SMOOTH"
);
},
{
closed = 1;
nodes = (
"453 173 OFFCURVE",
"342 337 OFFCURVE",
"342 583 CURVE SMOOTH",
"342 831 OFFCURVE",
"453 997 OFFCURVE",
"620 997 CURVE SMOOTH",
"787 997 OFFCURVE",
"898 831 OFFCURVE",
"898 583 CURVE SMOOTH",
"898 337 OFFCURVE",
"787 173 OFFCURVE",
"620 173 CURVE SMOOTH"
);
}
);
width = 1240;
},
{
anchors = (
{
name = bottom;
position = "{552, 0}";
},
{
name = center;
position = "{655, 586}";
},
{
name = ogonek;
position = "{648, 10}";
},
{
name = top;
position = "{758, 1171}";
},
{
name = topleft;
position = "{158, 1171}";
},
{
name = topright;
position = "{1358, 1171}";
}
);
layerId = "440824D2-40E3-4EBC-B94D-DAF81B1E7F5E";
paths = (
{
closed = 1;
nodes = (
"948 -17 OFFCURVE",
"1179 311 OFFCURVE",
"1179 707 CURVE SMOOTH",
"1179 962 OFFCURVE",
"1033 1187 OFFCURVE",
"730 1187 CURVE SMOOTH",
"362 1187 OFFCURVE",
"130 857 OFFCURVE",
"130 461 CURVE SMOOTH",
"130 211 OFFCURVE",
"276 -17 OFFCURVE",
"580 -17 CURVE SMOOTH"
);
},
{
closed = 1;
nodes = (
"345 69 OFFCURVE",
"228 265 OFFCURVE",
"228 476 CURVE SMOOTH",
"228 796 OFFCURVE",
"419 1101 OFFCURVE",
"725 1101 CURVE SMOOTH",
"961 1101 OFFCURVE",
"1083 912 OFFCURVE",
"1082 695 CURVE SMOOTH",
"1082 374 OFFCURVE",
"890 69 OFFCURVE",
"585 69 CURVE SMOOTH"
);
}
);
width = 1240;
},
{
anchors = (
{
name = bottom;
position = "{592, 0}";
},
{
name = center;
position = "{655, 586}";
},
{
name = ogonek;
position = "{796, 0}";
},
{
name = top;
position = "{738, 1171}";
},
{
name = topleft;
position = "{158, 1171}";
},
{
name = topright;
position = "{1358, 1171}";
}
);
layerId = "2EAAA3E6-1429-4D6D-BAD7-A55486495AAE";
paths = (
{
closed = 1;
nodes = (
"969 -17 OFFCURVE",
"1190 281 OFFCURVE",
"1190 707 CURVE SMOOTH",
"1190 972 OFFCURVE",
"1024 1187 OFFCURVE",
"731 1187 CURVE SMOOTH",
"353 1187 OFFCURVE",
"121 897 OFFCURVE",
"121 471 CURVE SMOOTH",
"121 221 OFFCURVE",
"297 -17 OFFCURVE",
"591 -17 CURVE SMOOTH"
);
},
{
closed = 1;
nodes = (
"446 166 OFFCURVE",
"367 318 OFFCURVE",
"367 491 CURVE SMOOTH",
"367 778 OFFCURVE",
"496 1004 OFFCURVE",
"713 1004 CURVE SMOOTH",
"863 1004 OFFCURVE",
"946 856 OFFCURVE",
"945 689 CURVE SMOOTH",
"943 392 OFFCURVE",
"815 166 OFFCURVE",
"599 166 CURVE SMOOTH"
);
}
);
width = 1240;
}
);
unicode = 004F;
},
{
glyphname = Oslash;
lastChange = "2017-12-26 02:47:39 +0000";
layers = (
{
components = (
{
name = O;
}
);
layerId = "840BD324-B0A6-42B0-BD23-CB5E8C19394F";
paths = (
{
closed = 1;
nodes = (
"277 -192 OFFCURVE",
"288 -187 OFFCURVE",
"295 -172 CURVE SMOOTH",
"1033 1274 LINE SMOOTH",
"1036 1279 OFFCURVE",
"1037 1284 OFFCURVE",
"1037 1289 CURVE SMOOTH",
"1037 1308 OFFCURVE",
"1017 1321 OFFCURVE",
"999 1321 CURVE SMOOTH",
"988 1321 OFFCURVE",
"978 1316 OFFCURVE",
"972 1305 CURVE SMOOTH",
"229 -146 LINE SMOOTH",
"227 -150 OFFCURVE",
"226 -154 OFFCURVE",
"226 -158 CURVE SMOOTH",
"226 -176 OFFCURVE",
"246 -192 OFFCURVE",
"265 -192 CURVE SMOOTH"
);
}
);
width = 1240;
},
{
components = (
{
name = O;
}
);
layerId = "F2E12B84-E402-48AA-89E7-06534AE23493";
paths = (
{
closed = 1;
nodes = (
"336 -191 OFFCURVE",
"354 -172 OFFCURVE",
"366 -146 CURVE SMOOTH",
"986 1181 LINE SMOOTH",
"992 1194 OFFCURVE",
"1005 1227 OFFCURVE",
"1005 1260 CURVE SMOOTH",
"1005 1292 OFFCURVE",
"977 1321 OFFCURVE",
"932 1321 CURVE SMOOTH",
"900 1321 OFFCURVE",
"875 1289 OFFCURVE",
"865 1268 CURVE SMOOTH",
"257 -45 LINE SMOOTH",
"254 -52 OFFCURVE",
"236 -82 OFFCURVE",
"236 -119 CURVE SMOOTH",
"236 -165 OFFCURVE",
"267 -191 OFFCURVE",
"304 -191 CURVE SMOOTH"
);
}
);
width = 1240;
},
{
anchors = (
{
name = bottom;
position = "{552, 0}";
},
{
name = top;
position = "{758, 1171}";
}
);
components = (
{
name = O;
}
);
layerId = "440824D2-40E3-4EBC-B94D-DAF81B1E7F5E";
paths = (
{
closed = 1;
nodes = (
"227 -162 OFFCURVE",
"236 -157 OFFCURVE",
"245 -142 CURVE SMOOTH",
"1081 1269 LINE SMOOTH",
"1084 1274 OFFCURVE",
"1086 1282 OFFCURVE",
"1086 1291 CURVE SMOOTH",
"1086 1307 OFFCURVE",
"1070 1323 OFFCURVE",
"1049 1323 CURVE SMOOTH",
"1038 1323 OFFCURVE",
"1028 1316 OFFCURVE",
"1022 1305 CURVE SMOOTH",
"187 -101 LINE SMOOTH",
"185 -105 OFFCURVE",
"179 -121 OFFCURVE",
"179 -130 CURVE SMOOTH",
"179 -143 OFFCURVE",
"196 -162 OFFCURVE",
"215 -162 CURVE SMOOTH"
);
}
);
width = 1240;
},
{
anchors = (
{
name = bottom;
position = "{552, 0}";
},
{
name = top;
position = "{758, 1171}";
}
);
components = (
{
name = O;
transform = "{1, 0, 0, 1, 1, 0}";
}
);
layerId = "2EAAA3E6-1429-4D6D-BAD7-A55486495AAE";
paths = (
{
closed = 1;
nodes = (
"203 -191 OFFCURVE",
"224 -172 OFFCURVE",
"241 -146 CURVE SMOOTH",
"1095 1181 LINE SMOOTH",
"1103 1194 OFFCURVE",
"1128 1226 OFFCURVE",
"1128 1260 CURVE SMOOTH",
"1128 1292 OFFCURVE",
"1110 1321 OFFCURVE",
"1065 1321 CURVE SMOOTH",
"1033 1321 OFFCURVE",
"1003 1289 OFFCURVE",
"989 1268 CURVE SMOOTH",
"149 -45 LINE SMOOTH",
"145 -52 OFFCURVE",
"122 -82 OFFCURVE",
"115 -119 CURVE SMOOTH",
"107 -165 OFFCURVE",
"134 -191 OFFCURVE",
"171 -191 CURVE SMOOTH"
);
}
);
width = 1240;
}
);
unicode = 00D8;
},
{
glyphname = OE;
lastChange = "2017-12-25 23:00:36 +0000";
layers = (
{
layerId = "840BD324-B0A6-42B0-BD23-CB5E8C19394F";
paths = (
{
closed = 1;
nodes = (
"1058 0 LINE SMOOTH",
"1091 0 OFFCURVE",
"1114 19 OFFCURVE",
"1114 53 CURVE SMOOTH",
"1114 323 LINE SMOOTH",
"1114 359 OFFCURVE",
"1093 375 OFFCURVE",
"1072 375 CURVE SMOOTH",
"1051 375 OFFCURVE",
"1029 360 OFFCURVE",
"1028 336 CURVE SMOOTH",
"1012 85 LINE",
"727 85 LINE",
"727 577 LINE",
"883 577 LINE SMOOTH",
"911 577 OFFCURVE",
"927 591 OFFCURVE",
"927 615 CURVE SMOOTH",
"927 638 OFFCURVE",
"910 654 OFFCURVE",
"883 654 CURVE SMOOTH",
"727 654 LINE",
"727 1084 LINE",
"1006 1084 LINE",
"1020 841 LINE SMOOTH",
"1021 816 OFFCURVE",
"1042 803 OFFCURVE",
"1062 803 CURVE SMOOTH",
"1082 803 OFFCURVE",
"1102 817 OFFCURVE",
"1102 847 CURVE SMOOTH",
"1102 1117 LINE SMOOTH",
"1102 1151 OFFCURVE",
"1079 1171 OFFCURVE",
"1046 1171 CURVE SMOOTH",
"936 1171 OFFCURVE",
"776 1172 OFFCURVE",
"616 1172 CURVE SMOOTH",
"342 1172 OFFCURVE",
"118 965 OFFCURVE",
"118 582 CURVE SMOOTH",
"118 200 OFFCURVE",
"340 0 OFFCURVE",
"613 0 CURVE SMOOTH"
);
},
{
closed = 1;
nodes = (
"387 82 OFFCURVE",
"214 260 OFFCURVE",
"214 582 CURVE SMOOTH",
"214 913 OFFCURVE",
"389 1084 OFFCURVE",
"614 1084 CURVE SMOOTH",
"629 1084 LINE",
"629 82 LINE",
"611 82 LINE SMOOTH"
);
}
);
width = 1240;
},
{
layerId = "F2E12B84-E402-48AA-89E7-06534AE23493";
paths = (
{
closed = 1;
nodes = (
"1108 0 LINE SMOOTH",
"1141 0 OFFCURVE",
"1161 19 OFFCURVE",
"1164 53 CURVE SMOOTH",
"1183 283 LINE SMOOTH",
"1188 349 OFFCURVE",
"1143 375 OFFCURVE",
"1112 375 CURVE SMOOTH",
"1071 375 OFFCURVE",
"1036 354 OFFCURVE",
"1024 301 CURVE SMOOTH",
"992 155 LINE",
"767 155 LINE",
"767 527 LINE",
"863 527 LINE SMOOTH",
"904 527 OFFCURVE",
"960 559 OFFCURVE",
"960 616 CURVE SMOOTH",
"960 672 OFFCURVE",
"904 694 OFFCURVE",
"863 694 CURVE SMOOTH",
"767 694 LINE",
"767 1014 LINE",
"986 1014 LINE",
"1017 871 LINE SMOOTH",
"1027 827 OFFCURVE",
"1062 803 OFFCURVE",
"1102 803 CURVE SMOOTH",
"1132 803 OFFCURVE",
"1175 827 OFFCURVE",
"1170 887 CURVE SMOOTH",
"1152 1117 LINE SMOOTH",
"1149 1151 OFFCURVE",
"1129 1171 OFFCURVE",
"1096 1171 CURVE SMOOTH",
"936 1171 OFFCURVE",
"746 1172 OFFCURVE",
"566 1172 CURVE SMOOTH",
"312 1172 OFFCURVE",
"78 965 OFFCURVE",
"78 582 CURVE SMOOTH",
"78 200 OFFCURVE",
"310 0 OFFCURVE",
"563 0 CURVE SMOOTH"
);
},
{
closed = 1;
nodes = (
"417 152 OFFCURVE",
"284 320 OFFCURVE",
"284 582 CURVE SMOOTH",
"284 853 OFFCURVE",
"416 1014 OFFCURVE",
"551 1014 CURVE SMOOTH",
"559 1014 LINE",
"559 152 LINE",
"551 152 LINE SMOOTH"
);
}
);
width = 1240;
},
{
layerId = "440824D2-40E3-4EBC-B94D-DAF81B1E7F5E";
paths = (
{
closed = 1;
nodes = (
"988 0 LINE SMOOTH",
"1021 0 OFFCURVE",
"1047 19 OFFCURVE",
"1053 53 CURVE SMOOTH",
"1100 323 LINE SMOOTH",
"1106 359 OFFCURVE",
"1088 375 OFFCURVE",
"1067 375 CURVE SMOOTH",
"1046 375 OFFCURVE",
"1022 360 OFFCURVE",
"1016 336 CURVE SMOOTH",
"957 85 LINE",
"672 85 LINE",
"757 577 LINE",
"913 577 LINE SMOOTH",
"941 577 OFFCURVE",
"964 591 OFFCURVE",
"964 622 CURVE SMOOTH",
"964 643 OFFCURVE",
"954 654 OFFCURVE",
"927 654 CURVE SMOOTH",
"771 654 LINE",
"846 1084 LINE",
"1125 1084 LINE",
"1097 841 LINE SMOOTH",
"1094 816 OFFCURVE",
"1112 803 OFFCURVE",
"1132 803 CURVE SMOOTH",
"1152 803 OFFCURVE",
"1175 817 OFFCURVE",
"1180 847 CURVE SMOOTH",
"1227 1117 LINE SMOOTH",
"1233 1151 OFFCURVE",
"1213 1171 OFFCURVE",
"1180 1171 CURVE SMOOTH",
"1070 1171 OFFCURVE",
"910 1172 OFFCURVE",
"750 1172 CURVE SMOOTH",
"384 1172 OFFCURVE",
"144 829 OFFCURVE",
"139 459 CURVE SMOOTH",
"134 150 OFFCURVE",
"306 0 OFFCURVE",
"544 0 CURVE SMOOTH"
);
},
{
closed = 1;
nodes = (
"363 82 OFFCURVE",
"232 212 OFFCURVE",
"232 461 CURVE SMOOTH",
"233 770 OFFCURVE",
"422 1084 OFFCURVE",
"733 1084 CURVE SMOOTH",
"748 1084 LINE",
"573 82 LINE",
"555 82 LINE SMOOTH"
);
}
);
width = 1240;
},
{
layerId = "2EAAA3E6-1429-4D6D-BAD7-A55486495AAE";
paths = (
{
closed = 1;
nodes = (
"1040 0 LINE SMOOTH",
"1073 0 OFFCURVE",
"1096 19 OFFCURVE",
"1105 53 CURVE SMOOTH",
"1165 283 LINE SMOOTH",
"1182 349 OFFCURVE",
"1141 375 OFFCURVE",
"1110 375 CURVE SMOOTH",
"1069 375 OFFCURVE",
"1030 354 OFFCURVE",
"1009 301 CURVE SMOOTH",
"951 155 LINE",
"726 155 LINE",
"792 527 LINE",
"888 527 LINE SMOOTH",
"939 527 OFFCURVE",
"1000 552 OFFCURVE",
"1000 623 CURVE SMOOTH",
"1000 666 OFFCURVE",
"968 694 OFFCURVE",
"917 694 CURVE SMOOTH",
"821 694 LINE",
"877 1014 LINE",
"1096 1014 LINE",
"1102 871 LINE SMOOTH",
"1104 827 OFFCURVE",
"1135 803 OFFCURVE",
"1175 803 CURVE SMOOTH",
"1205 803 OFFCURVE",
"1252 827 OFFCURVE",
"1258 887 CURVE SMOOTH",
"1281 1117 LINE SMOOTH",
"1284 1151 OFFCURVE",
"1267 1171 OFFCURVE",
"1234 1171 CURVE SMOOTH",
"1074 1171 OFFCURVE",
"884 1172 OFFCURVE",
"684 1172 CURVE SMOOTH",
"349 1172 OFFCURVE",
"98 877 OFFCURVE",
"98 509 CURVE SMOOTH",
"98 200 OFFCURVE",
"276 0 OFFCURVE",
"495 0 CURVE SMOOTH"
);
},
{
closed = 1;
nodes = (
"397 152 OFFCURVE",
"306 290 OFFCURVE",
"307 513 CURVE SMOOTH",
"307 716 OFFCURVE",
"443 1014 OFFCURVE",
"661 1014 CURVE SMOOTH",
"669 1014 LINE",
"517 152 LINE",
"509 152 LINE SMOOTH"
);
}
);
width = 1240;
}
);
unicode = 0152;
},
{
glyphname = P;
lastChange = "2017-12-08 20:01:52 +0000";
layers = (
{
anchors = (
{
name = bottom;
position = "{620, 0}";
},
{
name = top;
position = "{620, 1171}";
}
);
layerId = "840BD324-B0A6-42B0-BD23-CB5E8C19394F";
paths = (
{
closed = 1;
nodes = (
"792 0 LINE SMOOTH",
"825 0 OFFCURVE",
"842 21 OFFCURVE",
"842 43 CURVE SMOOTH",
"842 64 OFFCURVE",
"826 86 OFFCURVE",
"793 86 CURVE SMOOTH",
"464 86 LINE",
"464 441 LINE",
"574 441 LINE SMOOTH",
"917 441 OFFCURVE",
"1112 560 OFFCURVE",
"1112 806 CURVE SMOOTH",
"1112 1054 OFFCURVE",
"904 1171 OFFCURVE",
"574 1171 CURVE SMOOTH",
"210 1171 LINE SMOOTH",
"177 1171 OFFCURVE",
"160 1149 OFFCURVE",
"160 1127 CURVE SMOOTH",
"160 1106 OFFCURVE",
"176 1085 OFFCURVE",
"209 1085 CURVE SMOOTH",
"368 1085 LINE",
"368 86 LINE",
"195 86 LINE SMOOTH",
"162 86 OFFCURVE",
"145 64 OFFCURVE",
"145 43 CURVE SMOOTH",
"145 21 OFFCURVE",
"162 0 OFFCURVE",
"196 0 CURVE SMOOTH"
);
},
{
closed = 1;
nodes = (
"464 1085 LINE",
"594 1085 LINE SMOOTH",
"814 1085 OFFCURVE",
"1016 1015 OFFCURVE",
"1016 802 CURVE SMOOTH",
"1016 606 OFFCURVE",
"824 527 OFFCURVE",
"600 527 CURVE SMOOTH",
"464 527 LINE"
);
}
);
width = 1240;
},
{
anchors = (
{
name = bottom;
position = "{620, 0}";
},
{
name = top;
position = "{620, 1171}";
}
);
layerId = "F2E12B84-E402-48AA-89E7-06534AE23493";
paths = (
{
closed = 1;
nodes = (
"772 0 LINE SMOOTH",
"835 0 OFFCURVE",
"862 38 OFFCURVE",
"862 80 CURVE SMOOTH",
"862 121 OFFCURVE",
"836 166 OFFCURVE",
"773 166 CURVE SMOOTH",
"554 166 LINE",
"554 441 LINE",
"594 441 LINE SMOOTH",
"977 441 OFFCURVE",
"1152 560 OFFCURVE",
"1152 806 CURVE SMOOTH",
"1152 1054 OFFCURVE",
"964 1171 OFFCURVE",
"594 1171 CURVE SMOOTH",
"230 1171 LINE SMOOTH",
"167 1171 OFFCURVE",
"140 1129 OFFCURVE",
"140 1087 CURVE SMOOTH",
"140 1046 OFFCURVE",
"166 1005 OFFCURVE",
"229 1005 CURVE SMOOTH",
"308 1005 LINE",
"308 166 LINE",
"225 166 LINE SMOOTH",
"162 166 OFFCURVE",
"135 122 OFFCURVE",
"135 81 CURVE SMOOTH",
"135 39 OFFCURVE",
"162 0 OFFCURVE",
"226 0 CURVE SMOOTH"
);
},
{
closed = 1;
nodes = (
"554 1005 LINE",
"624 1005 LINE SMOOTH",
"784 1005 OFFCURVE",
"906 935 OFFCURVE",
"906 802 CURVE SMOOTH",
"906 686 OFFCURVE",
"794 607 OFFCURVE",
"630 607 CURVE SMOOTH",
"554 607 LINE"
);
}
);
width = 1240;
},
{
anchors = (
{
name = bottom;
position = "{552, 0}";
},
{
name = top;
position = "{758, 1171}";
}
);
layerId = "440824D2-40E3-4EBC-B94D-DAF81B1E7F5E";
paths = (
{
closed = 1;
nodes = (
"724 0 LINE SMOOTH",
"757 0 OFFCURVE",
"777 21 OFFCURVE",
"781 43 CURVE SMOOTH",
"785 64 OFFCURVE",
"773 86 OFFCURVE",
"740 86 CURVE SMOOTH",
"411 86 LINE",
"473 441 LINE",
"583 441 LINE SMOOTH",
"922 441 OFFCURVE",
"1191 560 OFFCURVE",
"1191 852 CURVE SMOOTH",
"1191 1075 OFFCURVE",
"1009 1171 OFFCURVE",
"710 1171 CURVE SMOOTH",
"346 1171 LINE SMOOTH",
"313 1171 OFFCURVE",
"292 1149 OFFCURVE",
"289 1127 CURVE SMOOTH",
"286 1106 OFFCURVE",
"297 1085 OFFCURVE",
"330 1085 CURVE SMOOTH",
"489 1085 LINE",
"315 86 LINE",
"142 86 LINE SMOOTH",
"109 86 OFFCURVE",
"88 64 OFFCURVE",
"84 43 CURVE SMOOTH",
"80 21 OFFCURVE",
"94 0 OFFCURVE",
"128 0 CURVE SMOOTH"
);
},
{
closed = 1;
nodes = (
"585 1085 LINE",
"715 1085 LINE SMOOTH",
"917 1085 OFFCURVE",
"1093 1026 OFFCURVE",
"1093 852 CURVE SMOOTH",
"1093 628 OFFCURVE",
"872 527 OFFCURVE",
"624 527 CURVE SMOOTH",
"488 527 LINE"
);
}
);
width = 1240;
},
{
anchors = (
{
name = bottom;
position = "{552, 0}";
},
{
name = top;
position = "{758, 1171}";
}
);
layerId = "2EAAA3E6-1429-4D6D-BAD7-A55486495AAE";
paths = (
{
closed = 1;
nodes = (
"676 0 LINE SMOOTH",
"739 0 OFFCURVE",
"782 37 OFFCURVE",
"782 90 CURVE SMOOTH",
"782 121 OFFCURVE",
"769 166 OFFCURVE",
"696 166 CURVE SMOOTH",
"487 166 LINE",
"535 441 LINE",
"575 441 LINE SMOOTH",
"936 441 OFFCURVE",
"1188 517 OFFCURVE",
"1199 835 CURVE SMOOTH",
"1206 1046 OFFCURVE",
"1036 1171 OFFCURVE",
"702 1171 CURVE SMOOTH",
"328 1171 LINE SMOOTH",
"265 1171 OFFCURVE",
"224 1134 OFFCURVE",
"224 1082 CURVE SMOOTH",
"224 1050 OFFCURVE",
"235 1005 OFFCURVE",
"308 1005 CURVE SMOOTH",
"387 1005 LINE",
"241 166 LINE",
"158 166 LINE SMOOTH",
"95 166 OFFCURVE",
"53 126 OFFCURVE",
"53 71 CURVE SMOOTH",
"53 38 OFFCURVE",
"66 0 OFFCURVE",
"140 0 CURVE SMOOTH"
);
},
{
closed = 1;
nodes = (
"633 1005 LINE",
"703 1005 LINE SMOOTH",
"848 1005 OFFCURVE",
"952 938 OFFCURVE",
"952 818 CURVE SMOOTH",
"952 679 OFFCURVE",
"803 607 OFFCURVE",
"640 607 CURVE SMOOTH",
"564 607 LINE"
);
}
);
width = 1240;
}
);
unicode = 0050;
},
{
glyphname = Thorn;
lastChange = "2017-12-25 23:11:55 +0000";
layers = (
{
layerId = "840BD324-B0A6-42B0-BD23-CB5E8C19394F";
paths = (
{
closed = 1;
nodes = (
"645 0 LINE SMOOTH",
"678 0 OFFCURVE",
"695 20 OFFCURVE",
"695 41 CURVE SMOOTH",
"695 61 OFFCURVE",
"679 82 OFFCURVE",
"646 82 CURVE SMOOTH",
"429 82 LINE",
"429 338 LINE",
"794 338 OFFCURVE",
"1057 408 OFFCURVE",
"1057 644 CURVE SMOOTH",
"1057 868 OFFCURVE",
"813 948 OFFCURVE",
"429 948 CURVE",
"429 1085 LINE",
"582 1085 LINE SMOOTH",
"615 1085 OFFCURVE",
"631 1108 OFFCURVE",
"631 1130 CURVE SMOOTH",
"631 1151 OFFCURVE",
"617 1171 OFFCURVE",
"590 1171 CURVE SMOOTH",
"133 1171 LINE SMOOTH",
"99 1171 OFFCURVE",
"82 1149 OFFCURVE",
"82 1127 CURVE SMOOTH",
"82 1106 OFFCURVE",
"98 1085 OFFCURVE",
"131 1085 CURVE SMOOTH",
"333 1085 LINE",
"333 82 LINE",
"118 82 LINE SMOOTH",
"85 82 OFFCURVE",
"68 61 OFFCURVE",
"68 41 CURVE SMOOTH",
"68 20 OFFCURVE",
"85 0 OFFCURVE",
"119 0 CURVE SMOOTH"
);
},
{
closed = 1;
nodes = (
"429 866 LINE",
"756 866 OFFCURVE",
"961 819 OFFCURVE",
"961 644 CURVE SMOOTH",
"961 460 OFFCURVE",
"730 420 OFFCURVE",
"429 420 CURVE"
);
}
);
width = 1240;
},
{
layerId = "F2E12B84-E402-48AA-89E7-06534AE23493";
paths = (
{
closed = 1;
nodes = (
"605 0 LINE SMOOTH",
"668 0 OFFCURVE",
"695 42 OFFCURVE",
"695 83 CURVE SMOOTH",
"695 123 OFFCURVE",
"669 166 OFFCURVE",
"606 166 CURVE SMOOTH",
"509 166 LINE",
"509 298 LINE",
"844 298 OFFCURVE",
"1107 368 OFFCURVE",
"1107 624 CURVE SMOOTH",
"1107 868 OFFCURVE",
"863 948 OFFCURVE",
"509 948 CURVE",
"509 1005 LINE",
"542 1005 LINE SMOOTH",
"605 1005 OFFCURVE",
"631 1048 OFFCURVE",
"631 1090 CURVE SMOOTH",
"631 1131 OFFCURVE",
"607 1171 OFFCURVE",
"550 1171 CURVE SMOOTH",
"173 1171 LINE SMOOTH",
"99 1171 OFFCURVE",
"82 1129 OFFCURVE",
"82 1087 CURVE SMOOTH",
"82 1046 OFFCURVE",
"98 1005 OFFCURVE",
"171 1005 CURVE SMOOTH",
"263 1005 LINE",
"263 166 LINE",
"158 166 LINE SMOOTH",
"85 166 OFFCURVE",
"68 123 OFFCURVE",
"68 83 CURVE SMOOTH",
"68 42 OFFCURVE",
"85 0 OFFCURVE",
"159 0 CURVE SMOOTH"
);
},
{
closed = 1;
nodes = (
"509 786 LINE",
"756 786 OFFCURVE",
"861 739 OFFCURVE",
"861 624 CURVE SMOOTH",
"861 500 OFFCURVE",
"730 460 OFFCURVE",
"509 460 CURVE"
);
}
);
width = 1240;
},
{
layerId = "440824D2-40E3-4EBC-B94D-DAF81B1E7F5E";
paths = (
{
closed = 1;
nodes = (
"603 0 LINE SMOOTH",
"636 0 OFFCURVE",
"660 20 OFFCURVE",
"660 48 CURVE SMOOTH",
"660 61 OFFCURVE",
"651 82 OFFCURVE",
"618 82 CURVE SMOOTH",
"401 82 LINE",
"446 328 LINE",
"803 328 OFFCURVE",
"1131 402 OFFCURVE",
"1131 690 CURVE SMOOTH",
"1132 879 OFFCURVE",
"908 948 OFFCURVE",
"552 948 CURVE",
"576 1085 LINE",
"729 1085 LINE SMOOTH",
"762 1085 OFFCURVE",
"787 1108 OFFCURVE",
"787 1138 CURVE SMOOTH",
"787 1151 OFFCURVE",
"779 1171 OFFCURVE",
"752 1171 CURVE SMOOTH",
"295 1171 LINE SMOOTH",
"261 1171 OFFCURVE",
"237 1152 OFFCURVE",
"237 1120 CURVE SMOOTH",
"237 1106 OFFCURVE",
"245 1085 OFFCURVE",
"278 1085 CURVE SMOOTH",
"480 1085 LINE",
"305 82 LINE",
"90 82 LINE SMOOTH",
"57 82 OFFCURVE",
"33 66 OFFCURVE",
"33 35 CURVE SMOOTH",
"33 20 OFFCURVE",
"43 0 OFFCURVE",
"77 0 CURVE SMOOTH"
);
},
{
closed = 1;
nodes = (
"538 866 LINE",
"865 866 OFFCURVE",
"1031 819 OFFCURVE",
"1031 675 CURVE SMOOTH",
"1031 458 OFFCURVE",
"761 420 OFFCURVE",
"460 420 CURVE"
);
}
);
width = 1240;
},
{
layerId = "2EAAA3E6-1429-4D6D-BAD7-A55486495AAE";
paths = (
{
closed = 1;
nodes = (
"538 0 LINE SMOOTH",
"601 0 OFFCURVE",
"642 45 OFFCURVE",
"642 86 CURVE SMOOTH",
"642 126 OFFCURVE",
"621 166 OFFCURVE",
"558 166 CURVE SMOOTH",
"471 166 LINE",
"494 298 LINE",
"829 298 OFFCURVE",
"1150 364 OFFCURVE",
"1150 636 CURVE SMOOTH",
"1150 848 OFFCURVE",
"963 948 OFFCURVE",
"609 948 CURVE",
"619 1005 LINE",
"652 1005 LINE SMOOTH",
"715 1005 OFFCURVE",
"756 1053 OFFCURVE",
"756 1095 CURVE SMOOTH",
"756 1136 OFFCURVE",
"736 1171 OFFCURVE",
"679 1171 CURVE SMOOTH",
"312 1171 LINE SMOOTH",
"248 1171 OFFCURVE",
"206 1123 OFFCURVE",
"206 1081 CURVE SMOOTH",
"206 1040 OFFCURVE",
"228 1005 OFFCURVE",
"291 1005 CURVE SMOOTH",
"373 1005 LINE",
"225 166 LINE",
"120 166 LINE SMOOTH",
"57 166 OFFCURVE",
"15 120 OFFCURVE",
"15 80 CURVE SMOOTH",
"15 39 OFFCURVE",
"38 0 OFFCURVE",
"102 0 CURVE SMOOTH"
);
},
{
closed = 1;
nodes = (
"580 786 LINE",
"827 786 OFFCURVE",
"903 725 OFFCURVE",
"904 631 CURVE SMOOTH",
"905 498 OFFCURVE",
"744 460 OFFCURVE",
"523 460 CURVE"
);
}
);
width = 1240;
}
);
unicode = 00DE;
},
{
glyphname = Q;
lastChange = "2017-12-30 18:04:06 +0000";
layers = (
{
anchors = (
{
name = bottom;
position = "{620, 0}";
},
{
name = top;
position = "{620, 1171}";
}
);
layerId = "840BD324-B0A6-42B0-BD23-CB5E8C19394F";
paths = (
{
closed = 1;
nodes = (
"967 -15 OFFCURVE",
"1132 286 OFFCURVE",
"1132 582 CURVE SMOOTH",
"1132 883 OFFCURVE",
"961 1187 OFFCURVE",
"620 1187 CURVE SMOOTH",
"279 1187 OFFCURVE",
"108 883 OFFCURVE",
"108 582 CURVE SMOOTH",
"108 256 OFFCURVE",
"280 -19 OFFCURVE",
"620 -17 CURVE SMOOTH"
);
},
{
closed = 1;
nodes = (
"340 66 OFFCURVE",
"204 306 OFFCURVE",
"204 582 CURVE SMOOTH",
"204 842 OFFCURVE",
"344 1101 OFFCURVE",
"620 1101 CURVE SMOOTH",
"896 1101 OFFCURVE",
"1036 842 OFFCURVE",
"1036 582 CURVE SMOOTH",
"1036 326 OFFCURVE",
"900 66 OFFCURVE",
"620 66 CURVE SMOOTH"
);
},
{
closed = 1;
nodes = (
"1030 -253 OFFCURVE",
"1107 -218 OFFCURVE",
"1147 -171 CURVE SMOOTH",
"1177 -136 OFFCURVE",
"1190 -95 OFFCURVE",
"1155 -72 CURVE SMOOTH",
"1103 -38 OFFCURVE",
"1035 -76 OFFCURVE",
"972 -171 CURVE",
"790 -170 OFFCURVE",
"742 -38 OFFCURVE",
"722 59 CURVE SMOOTH",
"688 223 OFFCURVE",
"620 392 OFFCURVE",
"410 392 CURVE SMOOTH",
"281 392 OFFCURVE",
"216 322 OFFCURVE",
"204 306 CURVE",
"250 240 LINE",
"259 259 OFFCURVE",
"310 307 OFFCURVE",
"410 307 CURVE SMOOTH",
"542 307 OFFCURVE",
"599 200 OFFCURVE",
"637 30 CURVE SMOOTH",
"666 -101 OFFCURVE",
"761 -253 OFFCURVE",
"970 -253 CURVE SMOOTH"
);
}
);
width = 1240;
},
{
anchors = (
{
name = bottom;
position = "{620, 0}";
},
{
name = top;
position = "{620, 1171}";
}
);
layerId = "F2E12B84-E402-48AA-89E7-06534AE23493";
paths = (
{
closed = 1;
nodes = (
"971 -17 OFFCURVE",
"1145 281 OFFCURVE",
"1145 582 CURVE SMOOTH",
"1145 893 OFFCURVE",
"971 1187 OFFCURVE",
"620 1187 CURVE SMOOTH",
"269 1187 OFFCURVE",
"95 893 OFFCURVE",
"95 582 CURVE SMOOTH",
"95 281 OFFCURVE",
"269 -17 OFFCURVE",
"620 -17 CURVE SMOOTH"
);
},
{
closed = 1;
nodes = (
"431 173 OFFCURVE",
"342 378 OFFCURVE",
"342 583 CURVE SMOOTH",
"342 818 OFFCURVE",
"434 997 OFFCURVE",
"620 997 CURVE SMOOTH",
"806 997 OFFCURVE",
"898 818 OFFCURVE",
"898 583 CURVE SMOOTH",
"898 378 OFFCURVE",
"809 173 OFFCURVE",
"620 173 CURVE SMOOTH"
);
},
{
closed = 1;
nodes = (
"1103 -243 OFFCURVE",
"1240 -179 OFFCURVE",
"1240 -63 CURVE SMOOTH",
"1240 -35 OFFCURVE",
"1233 -3 OFFCURVE",
"1195 28 CURVE SMOOTH",
"1145 69 OFFCURVE",
"1053 51 OFFCURVE",
"972 -81 CURVE",
"880 -80 OFFCURVE",
"827 34 OFFCURVE",
"811 111 CURVE SMOOTH",
"779 267 OFFCURVE",
"730 512 OFFCURVE",
"489 512 CURVE SMOOTH",
"361 512 OFFCURVE",
"306 436 OFFCURVE",
"304 431 CURVE",
"369 279 LINE",
"369 279 OFFCURVE",
"390 347 OFFCURVE",
"476 347 CURVE SMOOTH",
"580 347 OFFCURVE",
"609 150 OFFCURVE",
"632 59 CURVE SMOOTH",
"676 -141 OFFCURVE",
"811 -243 OFFCURVE",
"990 -243 CURVE SMOOTH"
);
}
);
width = 1240;
},
{
anchors = (
{
name = bottom;
position = "{552, 0}";
},
{
name = top;
position = "{758, 1171}";
}
);
layerId = "440824D2-40E3-4EBC-B94D-DAF81B1E7F5E";
paths = (
{
closed = 1;
nodes = (
"928 -17 OFFCURVE",
"1179 311 OFFCURVE",
"1179 707 CURVE SMOOTH",
"1179 962 OFFCURVE",
"1053 1187 OFFCURVE",
"750 1187 CURVE SMOOTH",
"382 1187 OFFCURVE",
"130 857 OFFCURVE",
"130 461 CURVE SMOOTH",
"130 211 OFFCURVE",
"256 -17 OFFCURVE",
"560 -17 CURVE SMOOTH"
);
},
{
closed = 1;
nodes = (
"325 69 OFFCURVE",
"228 265 OFFCURVE",
"228 476 CURVE SMOOTH",
"228 796 OFFCURVE",
"439 1101 OFFCURVE",
"745 1101 CURVE SMOOTH",
"981 1101 OFFCURVE",
"1083 912 OFFCURVE",
"1082 695 CURVE SMOOTH",
"1082 374 OFFCURVE",
"870 69 OFFCURVE",
"565 69 CURVE SMOOTH"
);
},
{
closed = 1;
nodes = (
"1065 -258 OFFCURVE",
"1140 -221 OFFCURVE",
"1180 -174 CURVE SMOOTH",
"1210 -139 OFFCURVE",
"1223 -98 OFFCURVE",
"1188 -75 CURVE SMOOTH",
"1136 -41 OFFCURVE",
"1068 -79 OFFCURVE",
"1005 -174 CURVE",
"798 -173 OFFCURVE",
"742 -38 OFFCURVE",
"722 59 CURVE SMOOTH",
"688 223 OFFCURVE",
"620 392 OFFCURVE",
"410 392 CURVE SMOOTH",
"281 392 OFFCURVE",
"216 322 OFFCURVE",
"204 306 CURVE",
"250 240 LINE",
"259 259 OFFCURVE",
"310 307 OFFCURVE",
"410 307 CURVE SMOOTH",
"542 307 OFFCURVE",
"599 200 OFFCURVE",
"637 30 CURVE SMOOTH",
"666 -101 OFFCURVE",
"771 -258 OFFCURVE",
"985 -258 CURVE SMOOTH"
);
}
);
width = 1240;
},
{
anchors = (
{
name = bottom;
position = "{552, 0}";
},
{
name = top;
position = "{758, 1171}";
}
);
layerId = "2EAAA3E6-1429-4D6D-BAD7-A55486495AAE";
paths = (
{
closed = 1;
nodes = (
"948 -17 OFFCURVE",
"1189 281 OFFCURVE",
"1189 707 CURVE SMOOTH",
"1189 972 OFFCURVE",
"1033 1187 OFFCURVE",
"730 1187 CURVE SMOOTH",
"362 1187 OFFCURVE",
"120 897 OFFCURVE",
"120 471 CURVE SMOOTH",
"120 221 OFFCURVE",
"276 -17 OFFCURVE",
"580 -17 CURVE SMOOTH"
);
},
{
closed = 1;
nodes = (
"445 166 OFFCURVE",
"366 318 OFFCURVE",
"366 491 CURVE SMOOTH",
"366 778 OFFCURVE",
"495 1004 OFFCURVE",
"712 1004 CURVE SMOOTH",
"862 1004 OFFCURVE",
"945 856 OFFCURVE",
"944 689 CURVE SMOOTH",
"942 392 OFFCURVE",
"814 166 OFFCURVE",
"598 166 CURVE SMOOTH"
);
},
{
closed = 1;
nodes = (
"1002 -243 OFFCURVE",
"1140 -179 OFFCURVE",
"1161 -63 CURVE SMOOTH",
"1166 -35 OFFCURVE",
"1164 -3 OFFCURVE",
"1131 28 CURVE SMOOTH",
"1088 68 OFFCURVE",
"1003 31 OFFCURVE",
"889 -81 CURVE",
"788 -80 OFFCURVE",
"788 51 OFFCURVE",
"788 128 CURVE SMOOTH",
"788 357 OFFCURVE",
"711 517 OFFCURVE",
"500 517 CURVE SMOOTH",
"382 517 OFFCURVE",
"304 436 OFFCURVE",
"301 431 CURVE",
"339 279 LINE",
"339 279 OFFCURVE",
"382 347 OFFCURVE",
"468 347 CURVE SMOOTH",
"572 347 OFFCURVE",
"566 150 OFFCURVE",
"574 59 CURVE SMOOTH",
"589 -121 OFFCURVE",
"730 -243 OFFCURVE",
"889 -243 CURVE SMOOTH"
);
}
);
width = 1240;
}
);
unicode = 0051;
},
{
glyphname = R;
lastChange = "2017-12-30 20:32:33 +0000";
layers = (
{
anchors = (
{
name = bottom;
position = "{620, 0}";
},
{
name = top;
position = "{620, 1141}";
}
);
layerId = "840BD324-B0A6-42B0-BD23-CB5E8C19394F";
paths = (
{
closed = 1;
nodes = (
"588 0 LINE SMOOTH",
"622 0 OFFCURVE",
"638 21 OFFCURVE",
"638 43 CURVE SMOOTH",
"638 62 OFFCURVE",
"622 86 OFFCURVE",
"589 86 CURVE SMOOTH",
"419 86 LINE",
"419 482 LINE",
"584 482 LINE SMOOTH",
"827 482 OFFCURVE",
"1047 592 OFFCURVE",
"1047 834 CURVE SMOOTH",
"1047 1064 OFFCURVE",
"847 1171 OFFCURVE",
"537 1171 CURVE SMOOTH",
"217 1171 LINE SMOOTH",
"183 1171 OFFCURVE",
"166 1149 OFFCURVE",
"166 1127 CURVE SMOOTH",
"166 1106 OFFCURVE",
"183 1085 OFFCURVE",
"216 1085 CURVE SMOOTH",
"323 1085 LINE",
"323 86 LINE",
"188 86 LINE SMOOTH",
"155 86 OFFCURVE",
"138 62 OFFCURVE",
"138 43 CURVE SMOOTH",
"138 21 OFFCURVE",
"155 0 OFFCURVE",
"189 0 CURVE SMOOTH"
);
},
{
closed = 1;
nodes = (
"1070 0 LINE SMOOTH",
"1114 0 OFFCURVE",
"1130 21 OFFCURVE",
"1130 44 CURVE SMOOTH",
"1130 62 OFFCURVE",
"1116 86 OFFCURVE",
"1069 86 CURVE SMOOTH",
"980 86 LINE",
"726 558 LINE",
"635 536 LINE",
"895 48 LINE SMOOTH",
"906 27 OFFCURVE",
"924 0 OFFCURVE",
"950 0 CURVE SMOOTH"
);
},
{
closed = 1;
nodes = (
"419 1085 LINE",
"536 1085 LINE SMOOTH",
"774 1085 OFFCURVE",
"951 1020 OFFCURVE",
"951 827 CURVE SMOOTH",
"951 627 OFFCURVE",
"774 569 OFFCURVE",
"516 569 CURVE SMOOTH",
"419 569 LINE"
);
}
);
width = 1240;
},
{
anchors = (
{
name = bottom;
position = "{620, 0}";
},
{
name = top;
position = "{620, 1171}";
}
);
layerId = "F2E12B84-E402-48AA-89E7-06534AE23493";
paths = (
{
closed = 1;
nodes = (
"592 0 LINE SMOOTH",
"645 0 OFFCURVE",
"672 36 OFFCURVE",
"672 78 CURVE SMOOTH",
"672 119 OFFCURVE",
"646 166 OFFCURVE",
"593 166 CURVE SMOOTH",
"514 166 LINE",
"514 441 LINE",
"554 441 LINE SMOOTH",
"937 441 OFFCURVE",
"1112 560 OFFCURVE",
"1112 806 CURVE SMOOTH",
"1112 1054 OFFCURVE",
"924 1171 OFFCURVE",
"554 1171 CURVE SMOOTH",
"190 1171 LINE SMOOTH",
"127 1171 OFFCURVE",
"100 1129 OFFCURVE",
"100 1087 CURVE SMOOTH",
"100 1046 OFFCURVE",
"126 1005 OFFCURVE",
"189 1005 CURVE SMOOTH",
"268 1005 LINE",
"268 166 LINE",
"175 166 LINE SMOOTH",
"122 166 OFFCURVE",
"95 119 OFFCURVE",
"95 78 CURVE SMOOTH",
"95 36 OFFCURVE",
"122 0 OFFCURVE",
"176 0 CURVE SMOOTH"
);
},
{
closed = 1;
nodes = (
"1106 0 LINE SMOOTH",
"1160 0 OFFCURVE",
"1186 41 OFFCURVE",
"1186 84 CURVE SMOOTH",
"1186 122 OFFCURVE",
"1162 166 OFFCURVE",
"1105 166 CURVE SMOOTH",
"1016 166 LINE",
"822 558 LINE",
"621 496 LINE",
"821 48 LINE SMOOTH",
"830 27 OFFCURVE",
"850 0 OFFCURVE",
"886 0 CURVE SMOOTH"
);
},
{
closed = 1;
nodes = (
"514 1005 LINE",
"584 1005 LINE SMOOTH",
"754 1005 OFFCURVE",
"866 925 OFFCURVE",
"866 802 CURVE SMOOTH",
"866 696 OFFCURVE",
"764 607 OFFCURVE",
"590 607 CURVE SMOOTH",
"514 607 LINE"
);
}
);
width = 1240;
},
{
anchors = (
{
name = bottom;
position = "{622, 0}";
},
{
name = top;
position = "{758, 1171}";
}
);
layerId = "440824D2-40E3-4EBC-B94D-DAF81B1E7F5E";
paths = (
{
closed = 1;
nodes = (
"516 0 LINE SMOOTH",
"550 0 OFFCURVE",
"570 21 OFFCURVE",
"573 43 CURVE SMOOTH",
"576 62 OFFCURVE",
"565 86 OFFCURVE",
"532 86 CURVE SMOOTH",
"362 86 LINE",
"431 482 LINE",
"556 482 LINE SMOOTH",
"872 482 OFFCURVE",
"1125 599 OFFCURVE",
"1127 876 CURVE SMOOTH",
"1128 1081 OFFCURVE",
"953 1171 OFFCURVE",
"669 1171 CURVE SMOOTH",
"349 1171 LINE SMOOTH",
"315 1171 OFFCURVE",
"294 1149 OFFCURVE",
"291 1127 CURVE SMOOTH",
"288 1106 OFFCURVE",
"300 1085 OFFCURVE",
"333 1085 CURVE SMOOTH",
"440 1085 LINE",
"266 86 LINE",
"131 86 LINE SMOOTH",
"98 86 OFFCURVE",
"77 62 OFFCURVE",
"73 43 CURVE SMOOTH",
"68 21 OFFCURVE",
"83 0 OFFCURVE",
"117 0 CURVE SMOOTH"
);
},
{
closed = 1;
nodes = (
"536 1085 LINE",
"653 1085 LINE SMOOTH",
"870 1085 OFFCURVE",
"1027 1031 OFFCURVE",
"1027 876 CURVE SMOOTH",
"1027 636 OFFCURVE",
"806 569 OFFCURVE",
"543 569 CURVE SMOOTH",
"446 569 LINE"
);
},
{
closed = 1;
nodes = (
"1002 -7 OFFCURVE",
"1040 13 OFFCURVE",
"1067 38 CURVE SMOOTH",
"1094 63 OFFCURVE",
"1109 95 OFFCURVE",
"1109 118 CURVE SMOOTH",
"1109 144 OFFCURVE",
"1096 164 OFFCURVE",
"1073 164 CURVE SMOOTH",
"1017 164 OFFCURVE",
"1025 77 OFFCURVE",
"957 77 CURVE",
"899 77 OFFCURVE",
"878 139 OFFCURVE",
"858 186 CURVE SMOOTH",
"707 547 LINE",
"632 510 LINE",
"802 100 LINE SMOOTH",
"826 43 OFFCURVE",
"880 -7 OFFCURVE",
"957 -7 CURVE SMOOTH"
);
}
);
width = 1240;
},
{
anchors = (
{
name = bottom;
position = "{652, 0}";
},
{
name = top;
position = "{758, 1171}";
}
);
layerId = "2EAAA3E6-1429-4D6D-BAD7-A55486495AAE";
paths = (
{
closed = 1;
nodes = (
"516 0 LINE SMOOTH",
"579 0 OFFCURVE",
"622 37 OFFCURVE",
"622 90 CURVE SMOOTH",
"622 121 OFFCURVE",
"609 166 OFFCURVE",
"536 166 CURVE SMOOTH",
"447 166 LINE",
"495 451 LINE",
"535 451 LINE SMOOTH",
"896 451 OFFCURVE",
"1148 527 OFFCURVE",
"1159 835 CURVE SMOOTH",
"1167 1046 OFFCURVE",
"996 1171 OFFCURVE",
"662 1171 CURVE SMOOTH",
"288 1171 LINE SMOOTH",
"225 1171 OFFCURVE",
"184 1134 OFFCURVE",
"184 1082 CURVE SMOOTH",
"184 1050 OFFCURVE",
"195 1005 OFFCURVE",
"268 1005 CURVE SMOOTH",
"347 1005 LINE",
"201 166 LINE",
"118 166 LINE SMOOTH",
"55 166 OFFCURVE",
"13 126 OFFCURVE",
"13 71 CURVE SMOOTH",
"13 38 OFFCURVE",
"26 0 OFFCURVE",
"100 0 CURVE SMOOTH"
);
},
{
closed = 1;
nodes = (
"593 1005 LINE",
"663 1005 LINE SMOOTH",
"808 1005 OFFCURVE",
"912 938 OFFCURVE",
"912 818 CURVE SMOOTH",
"912 689 OFFCURVE",
"763 617 OFFCURVE",
"600 617 CURVE SMOOTH",
"524 617 LINE"
);
},
{
closed = 1;
nodes = (
"1007 -7 OFFCURVE",
"1068 28 OFFCURVE",
"1112 82 CURVE SMOOTH",
"1138 114 OFFCURVE",
"1154 153 OFFCURVE",
"1155 196 CURVE SMOOTH",
"1156 240 OFFCURVE",
"1124 269 OFFCURVE",
"1090 269 CURVE SMOOTH",
"1050 269 OFFCURVE",
"1013 228 OFFCURVE",
"976 191 CURVE",
"955 191 OFFCURVE",
"936 206 OFFCURVE",
"926 232 CURVE SMOOTH",
"804 547 LINE",
"582 520 LINE",
"714 154 LINE SMOOTH",
"739 86 OFFCURVE",
"796 -7 OFFCURVE",
"934 -7 CURVE SMOOTH"
);
}
);
width = 1240;
}
);
unicode = 0052;
},
{
glyphname = S;
lastChange = "2017-12-30 19:31:27 +0000";
layers = (
{
anchors = (
{
name = bottom;
position = "{620, 0}";
},
{
name = top;
position = "{630, 1171}";
}
);
layerId = "840BD324-B0A6-42B0-BD23-CB5E8C19394F";
paths = (
{
closed = 1;
nodes = (
"309 -17 OFFCURVE",
"323 6 OFFCURVE",
"317 46 CURVE SMOOTH",
"311 88 OFFCURVE",
"305 130 OFFCURVE",
"299 172 CURVE",
"348 86 OFFCURVE",
"476 -17 OFFCURVE",
"659 -17 CURVE SMOOTH",
"871 -17 OFFCURVE",
"1037 71 OFFCURVE",
"1037 278 CURVE SMOOTH",
"1037 689 OFFCURVE",
"313 600 OFFCURVE",
"313 916 CURVE SMOOTH",
"313 1038 OFFCURVE",
"435 1101 OFFCURVE",
"586 1101 CURVE SMOOTH",
"771 1101 OFFCURVE",
"920 969 OFFCURVE",
"928 868 CURVE SMOOTH",
"931 832 OFFCURVE",
"946 811 OFFCURVE",
"963 811 CURVE SMOOTH",
"981 811 OFFCURVE",
"1001 828 OFFCURVE",
"999 864 CURVE SMOOTH",
"987 1117 LINE SMOOTH",
"985 1169 OFFCURVE",
"971 1187 OFFCURVE",
"942 1187 CURVE SMOOTH",
"915 1187 OFFCURVE",
"892 1167 OFFCURVE",
"898 1120 CURVE SMOOTH",
"902 1086 OFFCURVE",
"907 1052 OFFCURVE",
"911 1018 CURVE",
"869 1099 OFFCURVE",
"764 1187 OFFCURVE",
"586 1187 CURVE SMOOTH",
"374 1187 OFFCURVE",
"217 1091 OFFCURVE",
"217 916 CURVE SMOOTH",
"217 510 OFFCURVE",
"941 631 OFFCURVE",
"941 274 CURVE SMOOTH",
"941 133 OFFCURVE",
"808 69 OFFCURVE",
"662 69 CURVE SMOOTH",
"461 69 OFFCURVE",
"293 223 OFFCURVE",
"293 329 CURVE SMOOTH",
"293 362 OFFCURVE",
"275 378 OFFCURVE",
"257 378 CURVE SMOOTH",
"239 378 OFFCURVE",
"222 363 OFFCURVE",
"223 331 CURVE SMOOTH",
"230 46 LINE SMOOTH",
"231 5 OFFCURVE",
"246 -17 OFFCURVE",
"277 -17 CURVE SMOOTH"
);
}
);
width = 1240;
},
{
anchors = (
{
name = bottom;
position = "{620, 0}";
},
{
name = top;
position = "{620, 1171}";
}
);
layerId = "F2E12B84-E402-48AA-89E7-06534AE23493";
paths = (
{
closed = 1;
nodes = (
"366 -17 OFFCURVE",
"410 10 OFFCURVE",
"410 66 CURVE SMOOTH",
"410 92 OFFCURVE",
"398 129 OFFCURVE",
"392 152 CURVE",
"431 86 OFFCURVE",
"539 -17 OFFCURVE",
"702 -17 CURVE SMOOTH",
"894 -17 OFFCURVE",
"1060 91 OFFCURVE",
"1060 308 CURVE SMOOTH",
"1060 778 OFFCURVE",
"446 597 OFFCURVE",
"446 881 CURVE SMOOTH",
"446 978 OFFCURVE",
"538 1021 OFFCURVE",
"639 1021 CURVE SMOOTH",
"751 1021 OFFCURVE",
"833 943 OFFCURVE",
"868 869 CURVE SMOOTH",
"884 835 OFFCURVE",
"915 811 OFFCURVE",
"962 811 CURVE SMOOTH",
"1007 811 OFFCURVE",
"1033 838 OFFCURVE",
"1030 884 CURVE SMOOTH",
"1017 1102 LINE SMOOTH",
"1013 1164 OFFCURVE",
"972 1189 OFFCURVE",
"910 1189 CURVE SMOOTH",
"860 1189 OFFCURVE",
"813 1164 OFFCURVE",
"813 1130 CURVE SMOOTH",
"813 1111 OFFCURVE",
"820 1086 OFFCURVE",
"832 1047 CURVE",
"809 1083 OFFCURVE",
"727 1187 OFFCURVE",
"559 1187 CURVE SMOOTH",
"357 1187 OFFCURVE",
"200 1081 OFFCURVE",
"200 886 CURVE SMOOTH",
"200 412 OFFCURVE",
"814 595 OFFCURVE",
"814 301 CURVE SMOOTH",
"814 213 OFFCURVE",
"721 169 OFFCURVE",
"655 169 CURVE SMOOTH",
"520 169 OFFCURVE",
"381 242 OFFCURVE",
"364 328 CURVE SMOOTH",
"355 373 OFFCURVE",
"325 393 OFFCURVE",
"284 393 CURVE SMOOTH",
"241 393 OFFCURVE",
"198 363 OFFCURVE",
"198 309 CURVE SMOOTH",
"198 81 LINE SMOOTH",
"198 15 OFFCURVE",
"249 -17 OFFCURVE",
"310 -17 CURVE SMOOTH"
);
}
);
width = 1240;
},
{
anchors = (
{
name = bottom;
position = "{602, 0}";
},
{
name = top;
position = "{758, 1171}";
}
);
layerId = "440824D2-40E3-4EBC-B94D-DAF81B1E7F5E";
paths = (
{
closed = 1;
nodes = (
"823 -17 OFFCURVE",
"1016 105 OFFCURVE",
"1016 331 CURVE SMOOTH",
"1016 668 OFFCURVE",
"426 610 OFFCURVE",
"426 883 CURVE SMOOTH",
"426 1027 OFFCURVE",
"602 1101 OFFCURVE",
"724 1101 CURVE SMOOTH",
"845 1101 OFFCURVE",
"916 1062 OFFCURVE",
"968 1005 CURVE",
"983 903 OFFCURVE",
"986 827 OFFCURVE",
"1034 827 CURVE SMOOTH",
"1075 827 OFFCURVE",
"1094 862 OFFCURVE",
"1094 907 CURVE SMOOTH",
"1094 1005 OFFCURVE",
"1024 1187 OFFCURVE",
"729 1187 CURVE SMOOTH",
"523 1187 OFFCURVE",
"328 1073 OFFCURVE",
"328 866 CURVE SMOOTH",
"328 525 OFFCURVE",
"921 608 OFFCURVE",
"919 314 CURVE SMOOTH",
"919 157 OFFCURVE",
"773 69 OFFCURVE",
"600 69 CURVE SMOOTH",
"466 69 OFFCURVE",
"375 116 OFFCURVE",
"318 179 CURVE",
"303 281 OFFCURVE",
"300 361 OFFCURVE",
"252 361 CURVE SMOOTH",
"211 361 OFFCURVE",
"192 326 OFFCURVE",
"192 281 CURVE SMOOTH",
"192 80 OFFCURVE",
"375 -17 OFFCURVE",
"592 -17 CURVE SMOOTH"
);
}
);
width = 1240;
},
{
anchors = (
{
name = bottom;
position = "{552, 0}";
},
{
name = top;
position = "{758, 1171}";
}
);
layerId = "2EAAA3E6-1429-4D6D-BAD7-A55486495AAE";
paths = (
{
closed = 1;
nodes = (
"812 -17 OFFCURVE",
"1065 95 OFFCURVE",
"1065 331 CURVE SMOOTH",
"1065 688 OFFCURVE",
"516 680 OFFCURVE",
"516 893 CURVE SMOOTH",
"516 977 OFFCURVE",
"622 1041 OFFCURVE",
"714 1041 CURVE SMOOTH",
"795 1041 OFFCURVE",
"861 1002 OFFCURVE",
"898 973 CURVE",
"903 853 OFFCURVE",
"930 787 OFFCURVE",
"1008 787 CURVE SMOOTH",
"1079 787 OFFCURVE",
"1134 842 OFFCURVE",
"1134 927 CURVE SMOOTH",
"1134 1065 OFFCURVE",
"994 1187 OFFCURVE",
"719 1187 CURVE SMOOTH",
"453 1187 OFFCURVE",
"238 1073 OFFCURVE",
"238 866 CURVE SMOOTH",
"238 495 OFFCURVE",
"781 518 OFFCURVE",
"781 284 CURVE SMOOTH",
"781 217 OFFCURVE",
"734 139 OFFCURVE",
"589 139 CURVE SMOOTH",
"495 139 OFFCURVE",
"425 169 OFFCURVE",
"387 209 CURVE",
"382 341 OFFCURVE",
"355 401 OFFCURVE",
"287 401 CURVE SMOOTH",
"206 401 OFFCURVE",
"152 340 OFFCURVE",
"152 255 CURVE SMOOTH",
"152 64 OFFCURVE",
"364 -17 OFFCURVE",
"581 -17 CURVE SMOOTH"
);
}
);
width = 1240;
}
);
unicode = 0053;
},
{
glyphname = Germandbls;
lastChange = "2017-12-26 01:56:23 +0000";
layers = (
{
layerId = "840BD324-B0A6-42B0-BD23-CB5E8C19394F";
paths = (
{
closed = 1;
nodes = (
"345 0 LINE SMOOTH",
"377 0 OFFCURVE",
"396 15 OFFCURVE",
"396 40 CURVE",
"396 790 LINE",
"396 979 OFFCURVE",
"480 1101 OFFCURVE",
"631 1101 CURVE SMOOTH",
"773 1101 OFFCURVE",
"861 1101 OFFCURVE",
"950 1101 CURVE",
"940 988 OFFCURVE",
"764 794 OFFCURVE",
"661 707 CURVE SMOOTH",
"642 691 OFFCURVE",
"626 672 OFFCURVE",
"626 652 CURVE SMOOTH",
"626 631 OFFCURVE",
"647 613 OFFCURVE",
"679 606 CURVE SMOOTH",
"852 569 OFFCURVE",
"974 470 OFFCURVE",
"974 325 CURVE SMOOTH",
"974 192 OFFCURVE",
"896 85 OFFCURVE",
"769 85 CURVE SMOOTH",
"716 85 OFFCURVE",
"646 113 OFFCURVE",
"615 163 CURVE SMOOTH",
"597 192 OFFCURVE",
"583 211 OFFCURVE",
"555 211 CURVE SMOOTH",
"532 211 OFFCURVE",
"516 193 OFFCURVE",
"516 171 CURVE SMOOTH",
"516 99 OFFCURVE",
"631 0 OFFCURVE",
"769 0 CURVE SMOOTH",
"955 0 OFFCURVE",
"1072 137 OFFCURVE",
"1072 323 CURVE SMOOTH",
"1072 509 OFFCURVE",
"928 645 OFFCURVE",
"742 665 CURVE",
"897 803 OFFCURVE",
"1028 980 OFFCURVE",
"1050 1134 CURVE SMOOTH",
"1055 1167 OFFCURVE",
"1037 1188 OFFCURVE",
"1005 1188 CURVE SMOOTH",
"895 1188 OFFCURVE",
"786 1188 OFFCURVE",
"631 1188 CURVE SMOOTH",
"422 1188 OFFCURVE",
"304 1032 OFFCURVE",
"304 790 CURVE SMOOTH",
"304 86 LINE",
"173 86 LINE SMOOTH",
"139 86 OFFCURVE",
"124 67 OFFCURVE",
"124 40 CURVE SMOOTH",
"124 19 OFFCURVE",
"143 0 OFFCURVE",
"175 0 CURVE SMOOTH"
);
}
);
width = 1240;
},
{
layerId = "F2E12B84-E402-48AA-89E7-06534AE23493";
paths = (
{
closed = 1;
nodes = (
"395 0 LINE SMOOTH",
"427 0 OFFCURVE",
"446 15 OFFCURVE",
"446 40 CURVE",
"446 790 LINE",
"446 979 OFFCURVE",
"530 1021 OFFCURVE",
"631 1021 CURVE SMOOTH",
"773 1021 OFFCURVE",
"841 1021 OFFCURVE",
"860 1021 CURVE",
"850 988 OFFCURVE",
"747 811 OFFCURVE",
"656 714 CURVE SMOOTH",
"640 697 OFFCURVE",
"626 676 OFFCURVE",
"626 637 CURVE SMOOTH",
"626 606 OFFCURVE",
"647 572 OFFCURVE",
"689 564 CURVE SMOOTH",
"802 542 OFFCURVE",
"914 470 OFFCURVE",
"914 325 CURVE SMOOTH",
"914 252 OFFCURVE",
"866 165 OFFCURVE",
"769 165 CURVE SMOOTH",
"721 165 OFFCURVE",
"670 197 OFFCURVE",
"652 215 CURVE SMOOTH",
"626 241 OFFCURVE",
"596 252 OFFCURVE",
"578 252 CURVE SMOOTH",
"530 252 OFFCURVE",
"516 212 OFFCURVE",
"516 171 CURVE SMOOTH",
"516 99 OFFCURVE",
"631 0 OFFCURVE",
"809 0 CURVE SMOOTH",
"1015 0 OFFCURVE",
"1152 137 OFFCURVE",
"1152 323 CURVE SMOOTH",
"1152 509 OFFCURVE",
"1008 645 OFFCURVE",
"882 665 CURVE",
"967 803 OFFCURVE",
"1098 980 OFFCURVE",
"1120 1133 CURVE SMOOTH",
"1125 1167 OFFCURVE",
"1107 1188 OFFCURVE",
"1075 1188 CURVE SMOOTH",
"895 1188 OFFCURVE",
"786 1188 OFFCURVE",
"631 1188 CURVE SMOOTH",
"322 1188 OFFCURVE",
"204 1032 OFFCURVE",
"204 790 CURVE SMOOTH",
"204 166 LINE",
"153 166 LINE SMOOTH",
"89 166 OFFCURVE",
"64 127 OFFCURVE",
"64 80 CURVE SMOOTH",
"64 39 OFFCURVE",
"93 0 OFFCURVE",
"155 0 CURVE SMOOTH"
);
}
);
width = 1240;
},
{
layerId = "440824D2-40E3-4EBC-B94D-DAF81B1E7F5E";
paths = (
{
closed = 1;
nodes = (
"281 0 LINE SMOOTH",
"313 0 OFFCURVE",
"335 15 OFFCURVE",
"341 50 CURVE SMOOTH",
"470 790 LINE",
"503 979 OFFCURVE",
"609 1101 OFFCURVE",
"760 1101 CURVE SMOOTH",
"902 1101 OFFCURVE",
"985 1101 OFFCURVE",
"1074 1101 CURVE",
"1044 988 OFFCURVE",
"840 793 OFFCURVE",
"721 707 CURVE SMOOTH",
"699 691 OFFCURVE",
"676 672 OFFCURVE",
"676 648 CURVE SMOOTH",
"676 631 OFFCURVE",
"690 613 OFFCURVE",
"721 606 CURVE SMOOTH",
"871 572 OFFCURVE",
"970 490 OFFCURVE",
"971 368 CURVE SMOOTH",
"971 227 OFFCURVE",
"863 85 OFFCURVE",
"720 85 CURVE SMOOTH",
"667 85 OFFCURVE",
"602 113 OFFCURVE",
"580 163 CURVE SMOOTH",
"567 192 OFFCURVE",
"556 211 OFFCURVE",
"528 211 CURVE SMOOTH",
"505 211 OFFCURVE",
"486 193 OFFCURVE",
"482 171 CURVE SMOOTH",
"469 99 OFFCURVE",
"567 0 OFFCURVE",
"715 0 CURVE SMOOTH",
"909 0 OFFCURVE",
"1070 177 OFFCURVE",
"1070 379 CURVE SMOOTH",
"1070 536 OFFCURVE",
"937 649 OFFCURVE",
"804 667 CURVE",
"973 803 OFFCURVE",
"1133 981 OFFCURVE",
"1184 1134 CURVE SMOOTH",
"1195 1167 OFFCURVE",
"1181 1188 OFFCURVE",
"1149 1188 CURVE SMOOTH",
"1039 1188 OFFCURVE",
"930 1188 OFFCURVE",
"775 1188 CURVE SMOOTH",
"566 1188 OFFCURVE",
"420 1032 OFFCURVE",
"378 790 CURVE SMOOTH",
"255 86 LINE",
"124 86 LINE SMOOTH",
"90 86 OFFCURVE",
"67 64 OFFCURVE",
"67 36 CURVE SMOOTH",
"67 19 OFFCURVE",
"79 0 OFFCURVE",
"111 0 CURVE SMOOTH"
);
}
);
width = 1240;
},
{
layerId = "2EAAA3E6-1429-4D6D-BAD7-A55486495AAE";
paths = (
{
closed = 1;
nodes = (
"327 0 LINE SMOOTH",
"359 0 OFFCURVE",
"381 15 OFFCURVE",
"385 40 CURVE",
"518 790 LINE",
"551 979 OFFCURVE",
"642 1021 OFFCURVE",
"743 1021 CURVE SMOOTH",
"885 1021 OFFCURVE",
"953 1021 OFFCURVE",
"972 1021 CURVE",
"956 988 OFFCURVE",
"822 811 OFFCURVE",
"714 714 CURVE SMOOTH",
"695 697 OFFCURVE",
"662 676 OFFCURVE",
"662 630 CURVE SMOOTH",
"662 599 OFFCURVE",
"680 572 OFFCURVE",
"721 564 CURVE SMOOTH",
"820 545 OFFCURVE",
"908 483 OFFCURVE",
"908 364 CURVE SMOOTH",
"908 265 OFFCURVE",
"832 165 OFFCURVE",
"730 165 CURVE SMOOTH",
"682 165 OFFCURVE",
"638 198 OFFCURVE",
"622 215 CURVE SMOOTH",
"601 238 OFFCURVE",
"573 252 OFFCURVE",
"555 252 CURVE SMOOTH",
"507 252 OFFCURVE",
"478 212 OFFCURVE",
"478 171 CURVE SMOOTH",
"478 94 OFFCURVE",
"573 0 OFFCURVE",
"731 0 CURVE SMOOTH",
"972 0 OFFCURVE",
"1146 167 OFFCURVE",
"1146 379 CURVE SMOOTH",
"1146 536 OFFCURVE",
"1041 647 OFFCURVE",
"932 665 CURVE",
"1041 803 OFFCURVE",
"1203 980 OFFCURVE",
"1252 1133 CURVE SMOOTH",
"1263 1167 OFFCURVE",
"1249 1188 OFFCURVE",
"1217 1188 CURVE SMOOTH",
"1037 1188 OFFCURVE",
"928 1188 OFFCURVE",
"773 1188 CURVE SMOOTH",
"464 1188 OFFCURVE",
"319 1032 OFFCURVE",
"276 790 CURVE SMOOTH",
"166 166 LINE",
"115 166 LINE SMOOTH",
"51 166 OFFCURVE",
"19 127 OFFCURVE",
"10 80 CURVE SMOOTH",
"2 39 OFFCURVE",
"25 0 OFFCURVE",
"87 0 CURVE SMOOTH"
);
}
);
width = 1240;
}
);
unicode = 1E9E;
},
{
glyphname = Schwa;
lastChange = "2017-12-26 01:58:09 +0000";
layers = (
{
anchors = (
{
name = bottom;
position = "{620, 397}";
},
{
name = ogonek;
position = "{124, 1161}";
},
{
name = top;
position = "{620, 1171}";
}
);
layerId = "840BD324-B0A6-42B0-BD23-CB5E8C19394F";
paths = (
{
closed = 1;
nodes = (
"371 1188 OFFCURVE",
"232 1081 OFFCURVE",
"152 987 CURVE SMOOTH",
"141 974 OFFCURVE",
"135 958 OFFCURVE",
"135 944 CURVE SMOOTH",
"135 920 OFFCURVE",
"147 896 OFFCURVE",
"175 896 CURVE SMOOTH",
"187 896 OFFCURVE",
"202 900 OFFCURVE",
"215 914 CURVE SMOOTH",
"298 1003 OFFCURVE",
"390 1102 OFFCURVE",
"583 1102 CURVE SMOOTH",
"902 1102 OFFCURVE",
"1042 826 OFFCURVE",
"1042 594 CURVE SMOOTH",
"1042 312 OFFCURVE",
"904 74 OFFCURVE",
"604 74 CURVE SMOOTH",
"327 74 OFFCURVE",
"215 310 OFFCURVE",
"209 531 CURVE",
"1052 535 LINE",
"1052 624 LINE",
"191 619 LINE SMOOTH",
"142 619 OFFCURVE",
"115 578 OFFCURVE",
"115 536 CURVE SMOOTH",
"115 248 OFFCURVE",
"300 -12 OFFCURVE",
"606 -12 CURVE SMOOTH",
"947 -12 OFFCURVE",
"1138 248 OFFCURVE",
"1138 594 CURVE SMOOTH",
"1138 880 OFFCURVE",
"952 1188 OFFCURVE",
"583 1188 CURVE SMOOTH"
);
}
);
width = 1240;
},
{
anchors = (
{
name = bottom;
position = "{620, 0}";
},
{
name = ogonek;
position = "{124, 1161}";
},
{
name = top;
position = "{620, 1171}";
}
);
layerId = "F2E12B84-E402-48AA-89E7-06534AE23493";
paths = (
{
closed = 1;
nodes = (
"371 1188 OFFCURVE",
"231 1080 OFFCURVE",
"179 1019 CURVE SMOOTH",
"156 992 OFFCURVE",
"135 958 OFFCURVE",
"135 914 CURVE SMOOTH",
"135 859 OFFCURVE",
"176 823 OFFCURVE",
"233 823 CURVE SMOOTH",
"275 823 OFFCURVE",
"301 855 OFFCURVE",
"314 869 CURVE SMOOTH",
"338 893 OFFCURVE",
"420 1022 OFFCURVE",
"583 1022 CURVE SMOOTH",
"802 1022 OFFCURVE",
"912 776 OFFCURVE",
"912 594 CURVE SMOOTH",
"912 392 OFFCURVE",
"814 154 OFFCURVE",
"604 154 CURVE SMOOTH",
"427 154 OFFCURVE",
"325 390 OFFCURVE",
"329 491 CURVE",
"1052 495 LINE",
"1052 664 LINE",
"161 659 LINE SMOOTH",
"112 659 OFFCURVE",
"85 618 OFFCURVE",
"85 576 CURVE SMOOTH",
"85 248 OFFCURVE",
"300 -12 OFFCURVE",
"606 -12 CURVE SMOOTH",
"947 -12 OFFCURVE",
"1158 248 OFFCURVE",
"1158 594 CURVE SMOOTH",
"1158 880 OFFCURVE",
"952 1188 OFFCURVE",
"583 1188 CURVE SMOOTH"
);
}
);
width = 1240;
},
{
layerId = "440824D2-40E3-4EBC-B94D-DAF81B1E7F5E";
paths = (
{
closed = 1;
nodes = (
"504 1188 OFFCURVE",
"348 1078 OFFCURVE",
"250 987 CURVE SMOOTH",
"236 974 OFFCURVE",
"228 958 OFFCURVE",
"225 944 CURVE SMOOTH",
"220 920 OFFCURVE",
"229 896 OFFCURVE",
"257 896 CURVE SMOOTH",
"269 896 OFFCURVE",
"284 900 OFFCURVE",
"300 914 CURVE SMOOTH",
"400 1001 OFFCURVE",
"508 1102 OFFCURVE",
"706 1102 CURVE SMOOTH",
"974 1102 OFFCURVE",
"1081 900 OFFCURVE",
"1080 696 CURVE SMOOTH",
"1080 369 OFFCURVE",
"858 74 OFFCURVE",
"539 74 CURVE SMOOTH",
"265 74 OFFCURVE",
"194 310 OFFCURVE",
"227 531 CURVE",
"1071 535 LINE",
"1086 624 LINE",
"224 619 LINE SMOOTH",
"175 619 OFFCURVE",
"141 578 OFFCURVE",
"134 536 CURVE SMOOTH",
"86 248 OFFCURVE",
"223 -12 OFFCURVE",
"539 -12 CURVE SMOOTH",
"902 -12 OFFCURVE",
"1177 325 OFFCURVE",
"1178 698 CURVE SMOOTH",
"1178 956 OFFCURVE",
"1036 1188 OFFCURVE",
"706 1188 CURVE SMOOTH"
);
}
);
width = 1240;
},
{
layerId = "2EAAA3E6-1429-4D6D-BAD7-A55486495AAE";
paths = (
{
closed = 1;
nodes = (
"532 1188 OFFCURVE",
"383 1080 OFFCURVE",
"320 1019 CURVE SMOOTH",
"292 992 OFFCURVE",
"265 958 OFFCURVE",
"257 914 CURVE SMOOTH",
"247 859 OFFCURVE",
"282 823 OFFCURVE",
"339 823 CURVE SMOOTH",
"381 823 OFFCURVE",
"413 855 OFFCURVE",
"429 869 CURVE SMOOTH",
"457 893 OFFCURVE",
"562 1022 OFFCURVE",
"725 1022 CURVE SMOOTH",
"912 1022 OFFCURVE",
"986 843 OFFCURVE",
"986 667 CURVE SMOOTH",
"986 429 OFFCURVE",
"812 154 OFFCURVE",
"602 154 CURVE SMOOTH",
"415 154 OFFCURVE",
"355 390 OFFCURVE",
"377 491 CURVE",
"1101 495 LINE",
"1130 664 LINE",
"239 659 LINE SMOOTH",
"190 659 OFFCURVE",
"155 618 OFFCURVE",
"148 576 CURVE SMOOTH",
"93 247 OFFCURVE",
"279 -12 OFFCURVE",
"595 -12 CURVE SMOOTH",
"957 -12 OFFCURVE",
"1233 322 OFFCURVE",
"1233 667 CURVE SMOOTH",
"1233 949 OFFCURVE",
"1069 1188 OFFCURVE",
"734 1188 CURVE SMOOTH"
);
}
);
width = 1240;
}
);
unicode = 018F;
},
